{"glyphs":{"0":{"ha":914,"x_min":86,"x_max":828,"o":"m 725 843 q 776 768 725 843 q 828 486 828 693 q 725 129 828 279 q 457 -21 622 -21 q 189 129 292 -21 q 86 486 86 279 q 189 843 86 693 q 457 993 292 993 q 725 843 622 993 m 651 195 q 689 257 651 195 q 728 486 728 319 q 651 777 728 653 q 457 901 574 901 q 263 777 340 901 q 186 486 186 653 q 263 195 186 319 q 457 71 340 71 q 651 195 574 71 z "},"1":{"ha":551,"x_min":32,"x_max":415,"o":"m 410 285 q 410 235 410 285 q 413 126 411 186 q 415 46 415 67 q 400 6 415 25 q 361 -14 385 -14 q 322 6 338 -14 q 307 46 307 25 q 308 126 307 67 q 314 488 314 265 l 314 836 l 247 753 q 209 703 231 732 q 176 661 188 675 q 151 629 165 647 q 128 603 136 611 q 111 586 121 594 q 75 572 93 572 q 44 586 57 572 q 32 615 32 600 q 35 638 32 629 q 51 663 39 647 q 76 693 64 679 q 117 738 89 707 q 174 803 146 769 q 237 880 203 836 q 286 942 271 924 q 352 986 321 986 q 399 967 383 986 q 415 926 415 947 q 414 844 415 906 q 408 542 408 701 q 410 285 408 383 z "},"2":{"ha":761,"x_min":64,"x_max":704,"o":"m 371 89 l 635 96 q 685 81 665 96 q 704 44 704 65 q 635 -7 704 -7 l 371 0 l 133 -7 q 64 57 64 -7 q 103 158 64 108 q 167 235 142 207 q 250 326 192 263 q 331 413 308 389 q 379 466 353 438 q 417 508 406 494 q 452 550 428 521 q 489 599 476 579 q 517 646 501 619 q 546 739 546 696 q 496 855 546 808 q 383 901 446 901 q 280 878 319 901 q 222 828 240 856 q 140 754 176 754 q 108 767 121 754 q 94 800 94 781 q 175 924 94 854 q 378 993 256 993 q 573 917 500 993 q 646 749 646 840 q 592 575 646 657 q 492 451 549 513 q 410 360 436 390 q 324 267 385 331 q 226 161 263 203 q 178 89 190 119 l 371 89 z "},"3":{"ha":789,"x_min":79,"x_max":703,"o":"m 371 972 l 582 978 q 665 914 665 978 q 639 852 665 885 q 544 751 613 819 q 421 615 476 683 q 629 504 556 588 q 703 299 703 421 q 615 78 703 176 q 372 -21 526 -21 q 167 43 256 -21 q 79 163 79 107 q 89 190 79 178 q 113 203 99 203 q 138 195 128 203 q 162 172 149 188 q 192 140 175 156 q 226 112 208 125 q 288 85 244 99 q 383 71 331 71 q 541 138 479 71 q 603 304 603 204 q 532 467 603 404 q 365 536 461 531 q 294 476 322 493 q 238 460 267 460 q 192 476 208 460 q 176 520 176 492 q 211 580 176 549 q 315 625 246 611 q 532 878 436 758 l 371 883 l 160 876 q 111 890 129 876 q 93 928 93 904 q 111 965 93 951 q 160 979 129 979 q 371 972 160 979 z "},"4":{"ha":803,"x_min":35,"x_max":749,"o":"m 600 317 l 607 56 q 592 5 607 24 q 553 -14 578 -14 q 513 5 528 -14 q 499 56 499 24 l 504 319 l 401 321 l 97 315 q 51 331 68 315 q 35 365 35 347 q 37 394 35 383 q 48 419 39 404 q 66 449 57 435 q 97 491 75 463 q 140 544 119 519 q 275 714 163 571 l 438 921 q 535 986 488 986 q 607 903 607 986 q 606 832 607 894 q 600 413 600 686 l 679 417 q 729 403 710 417 q 749 365 749 389 q 729 328 749 342 q 691 314 710 314 q 600 317 672 314 m 160 410 l 506 410 q 508 658 508 511 l 506 853 q 326 629 444 782 q 160 410 207 476 z "},"5":{"ha":799,"x_min":86,"x_max":725,"o":"m 600 876 l 403 883 q 281 881 328 883 q 217 878 233 878 q 225 756 225 807 q 217 596 225 671 l 214 571 q 418 646 313 646 q 645 554 565 646 q 725 323 725 463 q 634 81 725 183 q 389 -21 543 -21 q 176 53 267 -21 q 86 193 86 128 q 98 227 86 214 q 128 240 110 240 q 156 231 146 240 q 179 201 167 222 q 200 169 192 179 q 389 71 283 71 q 560 149 494 71 q 625 325 625 226 q 567 489 625 424 q 413 554 510 554 q 218 478 318 554 q 167 451 185 451 q 113 510 113 451 q 122 603 113 525 q 131 738 131 682 q 123 844 131 793 q 115 914 115 896 q 192 979 115 979 l 403 972 l 600 979 q 649 965 631 979 q 667 928 667 951 q 649 890 667 904 q 600 876 631 876 z "},"6":{"ha":801,"x_min":86,"x_max":728,"o":"m 436 629 q 650 535 572 629 q 728 310 728 440 q 645 79 728 179 q 411 -21 563 -21 q 173 90 260 -21 q 86 369 86 200 q 228 806 86 626 q 589 986 371 986 q 678 938 678 986 q 601 886 678 886 q 329 772 442 886 q 196 501 217 658 q 294 591 231 553 q 436 629 358 629 m 417 68 q 463 68 417 68 q 568 136 508 68 q 628 304 628 204 q 571 472 628 404 q 417 540 514 540 q 258 465 321 540 q 196 296 196 390 q 260 135 196 201 q 417 68 325 68 z "},"7":{"ha":681,"x_min":43,"x_max":646,"o":"m 338 972 l 563 979 q 646 914 646 979 q 622 833 646 886 q 542 669 597 779 q 436 444 486 558 q 303 89 342 226 l 288 33 q 231 -14 269 -14 q 197 2 210 -14 q 183 36 183 18 q 185 69 183 54 q 193 103 188 83 q 203 140 199 122 q 219 184 208 157 q 239 232 231 211 q 263 290 247 253 q 289 351 278 326 q 319 423 300 376 q 366 531 339 469 q 449 718 393 593 q 519 878 506 843 l 338 883 l 113 876 q 43 928 43 876 q 113 979 43 979 l 338 972 z "},"8":{"ha":800,"x_min":82,"x_max":718,"o":"m 501 547 q 656 430 594 501 q 718 251 718 358 q 629 61 718 143 q 400 -21 540 -21 q 171 61 260 -21 q 82 251 82 143 q 147 431 82 358 q 310 547 211 503 q 181 648 226 594 q 135 783 135 701 q 210 929 135 865 q 399 993 285 993 q 590 928 514 993 q 665 783 665 864 q 622 649 665 703 q 501 547 578 596 m 618 261 q 400 493 618 400 q 182 261 182 400 q 244 123 182 175 q 400 71 307 71 q 556 123 493 71 q 618 261 618 175 m 403 597 q 525 682 482 640 q 568 776 568 724 q 518 865 568 829 q 401 901 468 901 q 283 865 335 901 q 232 776 232 829 q 276 683 232 724 q 403 597 321 642 z "},"9":{"ha":799,"x_min":71,"x_max":713,"o":"m 363 343 q 149 442 226 343 q 71 669 71 540 q 158 896 71 799 q 392 993 244 993 q 626 883 539 993 q 713 603 713 772 q 572 162 713 338 q 210 -14 431 -14 q 121 35 121 -14 q 197 86 121 86 q 471 196 360 86 q 603 471 582 306 q 504 381 568 419 q 363 343 440 343 m 386 904 q 340 904 386 904 q 233 836 294 904 q 171 668 171 768 q 228 500 171 568 q 381 432 285 432 q 540 507 478 432 q 603 676 603 582 q 540 838 603 771 q 386 904 478 904 z "}," ":{"ha":331,"x_min":0,"x_max":0,"o":""},"!":{"ha":336,"x_min":104,"x_max":232,"o":"m 173 139 q 187 139 173 139 q 217 118 201 139 q 232 65 232 97 q 212 6 232 32 q 163 -21 192 -21 q 119 1 135 -21 q 104 55 104 24 q 124 113 104 86 q 173 139 144 139 m 214 650 l 218 356 q 168 286 218 286 q 118 356 118 286 l 122 650 q 117 855 122 732 q 113 986 113 978 q 168 1056 113 1056 q 224 986 224 1056 q 219 855 224 978 q 214 650 214 732 z "},"\"":{"ha":475,"x_min":76,"x_max":399,"o":"m 343 1007 q 356 1007 343 1007 q 384 988 369 1007 q 399 950 399 969 q 390 869 399 931 q 380 766 382 808 q 371 702 378 724 q 344 681 364 681 q 316 703 324 681 q 306 767 308 725 q 296 869 304 808 q 288 949 288 929 q 302 988 288 969 q 343 1007 317 1007 m 132 1007 q 145 1007 132 1007 q 173 988 158 1007 q 188 950 188 969 q 179 869 188 931 q 169 766 171 808 q 160 702 167 724 q 133 681 153 681 q 105 703 113 681 q 95 767 97 725 q 85 869 93 808 q 76 949 76 929 q 91 988 76 969 q 132 1007 106 1007 z "},"#":{"ha":1115,"x_min":67,"x_max":1049,"o":"m 656 381 l 700 613 l 456 613 l 411 381 l 656 381 m 924 294 l 728 297 q 682 38 710 200 q 625 -19 671 -19 q 596 -7 607 -19 q 585 24 585 6 q 592 75 585 43 q 636 300 619 207 l 396 300 q 367 137 381 221 q 350 36 353 53 q 293 -21 339 -21 q 264 -8 275 -21 q 253 23 253 4 q 260 74 253 42 q 281 171 267 106 q 307 299 296 236 l 131 294 q 67 340 67 294 q 131 386 67 386 l 325 382 l 369 611 l 190 607 q 126 653 126 607 q 190 699 126 699 l 383 694 q 412 842 399 765 q 428 933 425 918 q 485 990 439 990 q 514 977 503 990 q 525 947 525 964 q 518 898 525 929 q 498 808 511 867 q 474 693 485 749 l 714 693 q 743 842 729 764 q 760 935 757 919 q 817 992 771 992 q 846 978 835 992 q 857 948 857 965 q 850 899 857 931 q 830 809 843 868 q 806 694 817 750 l 985 699 q 1049 653 1049 699 q 985 607 1049 607 l 788 611 l 743 382 l 924 386 q 988 340 988 386 q 924 294 988 294 z "},"$":{"ha":769,"x_min":72,"x_max":699,"o":"m 699 258 q 629 78 699 154 q 443 -15 560 3 q 446 -82 446 -50 q 397 -153 446 -153 q 349 -82 349 -153 l 350 -18 q 158 37 243 -11 q 72 129 72 85 q 83 160 72 149 q 113 172 94 172 q 158 150 131 172 q 353 71 249 78 q 356 497 356 265 q 178 625 243 561 q 114 772 114 689 q 179 915 114 854 q 350 986 244 975 l 350 1040 q 397 1111 350 1111 q 444 1040 444 1111 l 444 986 q 593 944 533 978 q 653 871 653 911 q 642 844 653 856 q 612 832 632 832 q 540 863 592 832 q 442 896 488 894 q 439 561 439 729 q 604 446 551 494 q 678 353 657 397 q 699 258 699 308 m 440 75 q 550 137 506 86 q 594 251 594 188 q 554 358 594 314 q 439 449 514 403 q 440 75 439 168 m 215 771 q 356 608 215 697 q 353 896 356 797 q 254 857 293 889 q 215 771 215 825 z "},"%":{"ha":1117,"x_min":67,"x_max":1051,"o":"m 813 981 q 735 836 813 921 q 446 14 460 49 q 396 -21 432 -21 q 365 -8 378 -21 q 353 26 353 4 q 388 132 353 47 q 635 801 528 475 q 572 790 611 790 q 467 810 532 790 q 474 753 474 785 q 417 582 474 651 q 270 513 361 513 q 123 580 179 513 q 67 751 67 647 q 125 924 67 854 q 265 993 183 993 q 421 933 347 993 q 560 872 494 872 q 656 897 626 872 l 667 936 q 718 1046 692 1026 q 753 1056 731 1056 q 794 1034 776 1056 q 813 981 813 1013 m 272 592 q 299 592 272 592 q 358 637 326 592 q 389 751 389 682 q 358 867 389 821 q 272 914 328 914 q 185 869 217 914 q 154 754 154 824 q 185 638 154 685 q 272 592 217 592 m 848 460 q 893 460 848 460 q 995 392 939 460 q 1051 222 1051 325 q 993 49 1051 118 q 844 -21 935 -21 q 697 47 753 -21 q 640 217 640 114 q 699 390 640 321 q 848 460 757 460 m 845 58 q 873 58 845 58 q 931 103 900 58 q 963 218 963 149 q 932 334 963 288 q 847 381 901 381 q 760 335 792 381 q 729 221 729 290 q 760 105 729 151 q 845 58 790 58 z "},"&":{"ha":1063,"x_min":65,"x_max":1032,"o":"m 569 492 l 743 485 q 876 521 815 485 q 938 625 938 557 q 832 764 938 728 q 774 790 792 778 q 757 824 757 803 q 772 858 757 846 q 810 869 786 869 q 959 794 886 869 q 1032 634 1032 719 q 981 494 1032 549 q 706 397 892 397 q 743 246 743 335 q 655 68 743 157 q 413 -21 567 -21 q 163 78 260 -21 q 65 322 65 176 q 113 485 65 406 q 242 617 161 564 q 168 708 200 654 q 136 819 136 763 q 200 972 136 908 q 375 1035 264 1035 q 508 1003 447 1035 q 569 933 569 971 q 556 899 569 911 q 526 888 543 888 q 468 916 510 888 q 369 944 426 944 q 272 911 311 944 q 233 827 233 878 q 258 731 233 776 q 317 663 282 686 q 383 671 346 671 q 446 653 419 671 q 472 606 472 636 q 444 559 472 576 q 378 542 417 542 q 308 557 339 542 q 203 464 240 524 q 165 326 165 404 q 235 146 165 218 q 411 74 306 74 q 581 132 517 74 q 646 269 646 190 q 576 390 646 390 q 531 378 558 390 q 482 365 503 365 q 448 380 461 365 q 435 415 435 394 q 474 471 435 450 q 569 492 514 492 z "},"'":{"ha":264,"x_min":76,"x_max":188,"o":"m 132 1007 q 145 1007 132 1007 q 173 988 158 1007 q 188 950 188 969 q 179 869 188 931 q 169 766 171 808 q 160 702 167 724 q 133 681 153 681 q 105 703 113 681 q 95 767 97 725 q 85 869 93 808 q 76 949 76 929 q 91 988 76 969 q 132 1007 106 1007 z "},"(":{"ha":419,"x_min":64,"x_max":392,"o":"m 333 1056 q 349 1056 333 1056 q 378 1040 365 1056 q 392 1005 392 1025 q 378 964 392 985 q 336 906 365 943 q 285 829 307 869 q 168 332 168 622 q 246 -72 168 106 q 356 -256 288 -171 q 372 -290 372 -276 q 346 -319 372 -319 q 246 -244 303 -319 q 153 -82 189 -168 q 64 394 64 126 q 93 633 64 510 q 164 847 122 756 q 253 997 206 938 q 333 1056 301 1056 z "},")":{"ha":421,"x_min":28,"x_max":356,"o":"m 356 394 q 267 -82 356 126 q 174 -244 231 -168 q 74 -319 117 -319 q 47 -290 47 -319 q 64 -256 47 -276 q 251 332 251 -21 q 135 829 251 622 q 83 906 113 869 q 41 964 54 943 q 28 1005 28 985 q 41 1040 28 1025 q 86 1056 54 1056 q 166 997 118 1056 q 256 847 214 938 q 326 633 297 756 q 356 394 356 510 z "},"*":{"ha":589,"x_min":88,"x_max":501,"o":"m 325 771 l 340 646 q 328 605 340 621 q 294 589 315 589 q 261 605 274 589 q 249 638 249 621 q 255 697 249 654 q 264 771 261 740 q 208 728 239 754 q 161 694 176 703 q 130 685 146 685 q 101 697 114 685 q 88 726 88 708 q 98 756 88 744 q 123 774 108 768 q 172 792 138 779 q 236 821 207 806 q 172 849 207 836 q 123 868 138 863 q 98 885 108 874 q 88 915 88 897 q 101 945 88 933 q 130 957 114 957 q 161 948 146 957 q 208 913 176 939 q 264 871 239 888 q 249 999 264 871 q 261 1040 249 1024 q 294 1056 274 1056 q 328 1040 315 1056 q 340 1006 340 1024 q 334 945 340 989 q 325 871 328 901 q 381 913 350 888 q 428 948 413 939 q 459 957 443 957 q 488 945 475 957 q 501 915 501 933 q 491 885 501 897 q 466 868 481 874 q 417 849 451 863 q 353 821 382 836 q 417 792 382 806 q 466 774 451 779 q 491 756 481 768 q 501 726 501 744 q 488 697 501 708 q 459 685 475 685 q 428 694 443 685 q 381 728 413 703 q 325 771 350 754 z "},"+":{"ha":735,"x_min":65,"x_max":671,"o":"m 411 404 l 614 408 q 655 396 639 408 q 671 363 671 383 q 655 329 671 342 q 614 317 639 317 q 411 321 544 317 l 417 103 q 403 61 417 76 q 368 46 390 46 q 322 103 322 46 q 328 321 322 110 q 142 317 186 317 q 81 329 97 317 q 65 363 65 342 q 81 396 65 383 q 122 408 97 408 l 328 404 q 322 603 322 599 q 368 660 322 660 q 403 644 390 660 q 417 614 417 629 q 411 404 417 599 z "},",":{"ha":292,"x_min":39,"x_max":210,"o":"m 210 68 q 162 -119 210 -26 q 67 -212 114 -212 q 47 -205 56 -212 q 39 -187 39 -197 q 65 -133 39 -176 q 90 -53 90 -89 q 85 8 90 -18 q 79 61 79 33 q 99 115 79 89 q 149 142 119 142 q 194 120 179 142 q 210 68 210 99 z "},"-":{"ha":594,"x_min":92,"x_max":503,"o":"m 297 404 l 446 408 q 487 396 471 408 q 503 363 503 383 q 487 329 503 342 q 446 317 471 317 l 297 321 l 149 317 q 108 329 124 317 q 92 363 92 342 q 108 396 92 383 q 149 408 124 408 l 297 404 z "},".":{"ha":288,"x_min":78,"x_max":208,"o":"m 148 149 q 163 149 148 149 q 193 127 178 149 q 208 73 208 106 q 188 13 208 40 q 139 -14 168 -14 q 94 8 110 -14 q 78 63 78 31 q 98 122 78 96 q 148 149 118 149 z "},"/":{"ha":504,"x_min":78,"x_max":425,"o":"m 128 -211 q 78 -156 78 -211 q 128 85 78 -132 q 207 433 179 303 q 260 692 235 563 q 301 901 286 822 q 319 997 315 981 q 375 1056 332 1056 q 425 997 425 1056 q 408 904 425 978 q 203 -57 278 351 q 183 -153 188 -136 q 128 -211 172 -211 z "},":":{"ha":314,"x_min":92,"x_max":222,"o":"m 162 708 q 177 708 162 708 q 207 687 192 708 q 222 633 222 665 q 202 573 222 600 q 153 546 182 546 q 108 568 124 546 q 92 623 92 590 q 112 682 92 656 q 162 708 132 708 m 162 149 q 177 149 162 149 q 207 127 192 149 q 222 73 222 106 q 202 13 222 40 q 153 -14 182 -14 q 108 8 124 -14 q 92 63 92 31 q 112 122 92 96 q 162 149 132 149 z "},";":{"ha":336,"x_min":65,"x_max":238,"o":"m 236 68 q 188 -119 236 -26 q 93 -212 140 -212 q 74 -205 82 -212 q 65 -187 65 -197 q 91 -133 65 -176 q 117 -53 117 -89 q 111 8 117 -18 q 106 61 106 33 q 126 115 106 89 q 176 142 146 142 q 221 120 206 142 q 236 68 236 99 m 177 708 q 192 708 177 708 q 222 687 207 708 q 238 633 238 665 q 217 573 238 600 q 168 546 197 546 q 123 568 139 546 q 107 623 107 590 q 127 682 107 656 q 177 708 147 708 z "},"<":{"ha":754,"x_min":63,"x_max":657,"o":"m 108 340 q 95 349 108 340 q 72 372 82 357 q 63 404 63 388 q 67 431 63 421 q 83 451 71 440 q 108 471 94 463 q 147 492 121 479 q 197 517 174 506 q 261 548 219 528 q 341 588 303 568 q 427 631 379 607 q 496 667 475 656 q 542 689 517 678 q 604 707 582 707 q 641 694 626 707 q 656 662 656 681 q 646 631 656 643 q 611 607 636 619 q 558 583 586 594 q 415 522 456 542 q 353 493 374 503 q 319 478 332 483 q 288 463 307 472 q 258 447 269 453 q 233 433 246 440 q 210 408 210 418 q 481 267 210 386 q 560 232 533 243 q 611 207 586 221 q 657 156 657 182 q 642 115 657 131 q 611 100 628 100 q 577 106 594 100 q 533 124 560 111 q 483 150 507 136 q 260 265 332 231 q 161 311 188 299 q 108 340 135 324 z "},"=":{"ha":822,"x_min":108,"x_max":714,"o":"m 411 504 l 657 508 q 698 496 682 508 q 714 463 714 483 q 698 429 714 442 q 657 417 682 417 l 411 421 l 165 417 q 124 429 140 417 q 108 463 108 442 q 124 496 108 483 q 165 508 140 508 q 411 504 165 508 m 411 304 l 657 308 q 698 296 682 308 q 714 263 714 283 q 698 229 714 242 q 657 217 682 217 l 411 221 l 165 217 q 124 229 140 217 q 108 263 108 242 q 124 296 108 283 q 165 308 140 308 l 411 304 z "},">":{"ha":754,"x_min":97,"x_max":692,"o":"m 672 451 q 677 446 672 451 q 688 431 683 440 q 692 404 692 421 q 682 372 692 388 q 646 340 672 357 q 593 311 619 324 q 513 274 567 299 q 421 228 460 249 q 339 185 382 208 q 272 149 296 163 q 221 124 247 136 q 149 100 171 100 q 112 115 126 100 q 97 150 97 131 q 107 181 97 169 q 142 207 117 193 q 194 232 168 221 q 403 326 263 261 q 544 408 544 390 q 467 463 544 422 q 435 478 447 472 q 356 514 386 499 q 275 551 326 529 q 196 583 224 572 q 143 607 168 594 q 108 631 118 619 q 99 662 99 643 q 113 694 99 681 q 143 707 128 707 q 173 703 158 707 q 213 689 188 700 q 258 667 238 678 q 327 631 279 656 q 413 588 375 607 q 493 548 451 568 q 558 517 535 528 q 607 492 581 506 q 647 471 633 479 q 672 451 660 463 z "},"?":{"ha":626,"x_min":68,"x_max":557,"o":"m 471 606 q 399 531 435 567 q 313 363 313 444 q 264 282 313 282 q 213 360 213 282 q 299 558 213 465 q 371 633 335 597 q 457 807 457 722 q 409 920 457 874 q 310 967 361 967 q 226 950 260 967 q 178 914 193 933 q 115 861 139 861 q 80 874 92 861 q 68 906 68 888 q 140 1005 68 954 q 299 1056 211 1056 q 485 984 414 1056 q 557 804 557 913 q 471 606 557 696 m 267 139 q 282 139 267 139 q 311 118 296 139 q 326 65 326 97 q 306 6 326 32 q 258 -21 286 -21 q 214 1 229 -21 q 199 55 199 24 q 219 113 199 86 q 267 139 239 139 z "},"@":{"ha":1393,"x_min":82,"x_max":1325,"o":"m 986 574 q 958 338 986 553 l 958 276 q 1064 81 958 81 q 1173 151 1125 81 q 1221 380 1221 222 q 1148 658 1221 538 q 959 836 1075 778 q 704 894 843 894 q 338 721 490 894 q 186 308 186 547 q 318 -80 186 68 q 631 -228 450 -228 q 769 -210 706 -228 q 865 -173 832 -193 q 928 -135 899 -153 q 972 -118 957 -118 q 997 -130 986 -118 q 1008 -160 1008 -142 q 980 -204 1008 -178 q 903 -256 951 -231 q 781 -301 856 -282 q 624 -319 706 -319 q 238 -145 394 -319 q 82 303 82 29 q 162 644 82 488 q 385 894 242 801 q 706 986 529 986 q 1150 821 975 986 q 1325 371 1325 656 q 1249 97 1325 206 q 1065 -12 1174 -12 q 883 163 910 -12 q 789 38 850 88 q 642 -12 728 -12 q 499 43 557 -12 q 396 314 396 140 q 481 563 396 457 q 701 669 567 669 q 874 607 786 669 q 932 669 885 669 q 986 574 986 669 m 875 300 l 875 507 q 710 578 801 578 q 556 503 618 578 q 493 325 493 429 q 533 148 493 221 q 647 75 574 75 q 780 140 719 75 q 875 300 840 206 z "},"A":{"ha":892,"x_min":54,"x_max":839,"o":"m 708 442 l 769 443 q 819 428 800 443 q 839 389 839 413 q 742 336 839 336 q 774 236 764 268 q 803 156 785 204 q 839 36 839 56 q 826 1 839 17 q 792 -14 814 -14 q 731 35 751 -14 q 683 182 711 88 q 633 342 654 276 q 401 346 467 346 q 246 342 336 346 q 154 38 160 53 q 100 -14 135 -14 q 67 0 79 -14 q 54 34 54 14 q 67 97 54 54 q 105 214 79 139 q 146 339 131 289 l 121 339 q 54 390 54 339 q 121 442 54 442 q 178 440 153 442 q 360 972 182 451 q 440 1056 389 1056 q 494 1035 475 1056 q 525 984 513 1015 q 567 864 538 953 q 708 442 658 585 m 276 438 q 442 433 354 433 q 603 438 531 433 q 443 897 460 897 q 314 553 424 897 l 276 438 z "},"B":{"ha":910,"x_min":78,"x_max":843,"o":"m 153 115 l 157 511 q 156 734 157 589 q 154 897 154 879 q 132 894 138 894 q 90 940 90 894 q 126 997 90 971 q 214 1036 163 1022 q 406 1063 321 1063 q 566 1038 492 1063 q 683 974 640 1013 q 767 807 767 896 q 617 567 767 646 q 779 460 715 539 q 843 286 843 382 q 722 59 843 139 q 400 -21 601 -21 q 169 9 260 -21 q 78 86 78 39 q 88 114 78 103 q 117 125 99 125 q 153 115 135 125 m 396 72 q 642 130 550 72 q 733 294 733 188 q 660 438 733 382 q 504 508 588 494 q 340 488 383 488 q 257 497 296 488 q 263 85 257 192 q 396 72 328 72 m 396 968 q 261 949 335 968 q 257 600 257 875 q 352 614 283 614 q 479 603 421 614 q 549 624 508 604 q 628 693 590 644 q 665 805 665 742 q 599 918 665 868 q 396 968 533 968 z "},"C":{"ha":914,"x_min":79,"x_max":861,"o":"m 861 132 q 762 33 861 88 q 529 -21 663 -21 q 207 137 335 -21 q 79 522 79 294 q 208 906 79 749 q 532 1063 338 1063 q 739 1019 647 1063 q 831 922 831 976 q 817 888 831 900 q 781 875 804 875 q 727 897 758 875 q 648 942 696 919 q 532 965 600 965 q 288 834 383 965 q 192 524 192 703 q 288 211 192 346 q 531 76 383 76 q 653 91 599 76 q 736 122 708 106 q 788 153 764 139 q 824 168 811 168 q 861 132 861 168 z "},"D":{"ha":985,"x_min":79,"x_max":906,"o":"m 158 511 l 151 908 q 85 961 85 908 q 176 1032 85 1008 q 383 1056 268 1056 q 603 1008 499 1056 q 772 883 707 961 q 906 506 906 722 q 776 144 906 297 q 613 24 714 69 q 383 -21 513 -21 q 166 9 253 -21 q 79 86 79 39 q 90 114 79 103 q 118 125 100 125 q 154 115 136 125 l 158 511 m 692 818 q 557 918 640 881 q 369 956 474 956 q 265 943 318 956 q 258 544 258 836 q 267 85 258 251 q 383 78 300 78 q 689 204 581 78 q 797 510 797 331 q 692 818 797 690 z "},"E":{"ha":817,"x_min":64,"x_max":751,"o":"m 457 92 l 682 99 q 751 46 751 99 q 682 -7 751 -7 l 457 0 q 214 -7 457 0 q 151 46 151 -7 q 155 210 151 94 q 158 504 158 325 q 131 503 146 503 q 64 554 64 503 q 82 593 64 578 q 123 608 100 608 q 158 607 146 608 q 149 944 156 886 q 132 996 132 968 q 206 1049 132 1049 l 474 1042 l 682 1049 q 751 996 751 1049 q 682 943 751 943 l 474 950 q 265 944 315 950 q 258 604 258 763 q 356 601 319 601 l 606 608 q 656 594 638 608 q 675 554 675 579 q 606 503 675 503 l 356 510 q 258 507 317 510 l 258 369 q 265 97 258 163 q 457 92 363 92 z "},"F":{"ha":786,"x_min":63,"x_max":750,"o":"m 354 601 l 589 608 q 640 593 621 608 q 660 554 660 578 q 640 517 660 531 q 589 503 621 503 l 354 510 q 257 507 315 510 l 264 67 q 207 -14 264 -14 q 150 67 150 -14 q 153 257 150 121 q 157 504 157 393 q 129 503 144 503 q 63 554 63 503 q 81 593 63 578 q 122 608 99 608 q 157 607 144 608 q 147 944 154 886 q 131 996 131 968 q 208 1049 131 1049 l 472 1042 l 675 1049 q 750 996 750 1049 q 675 943 750 943 l 472 950 q 264 944 314 950 q 257 604 257 763 q 354 601 318 601 z "},"G":{"ha":1003,"x_min":79,"x_max":940,"o":"m 507 549 l 690 542 q 800 546 738 542 q 869 550 863 550 q 940 489 940 550 q 825 116 940 254 q 523 -22 710 -22 q 208 136 336 -22 q 79 522 79 294 q 212 906 79 749 q 546 1063 344 1063 q 772 1014 671 1063 q 872 908 872 965 q 859 874 872 886 q 824 861 846 861 q 774 877 801 861 q 723 913 747 893 q 651 949 699 933 q 546 965 604 965 q 292 834 392 965 q 192 524 192 703 q 288 211 192 346 q 531 76 383 76 q 738 173 656 76 q 824 444 821 269 q 690 450 754 450 l 507 443 q 440 494 440 443 q 458 534 440 519 q 507 549 476 549 z "},"H":{"ha":997,"x_min":61,"x_max":936,"o":"m 850 985 l 843 606 l 865 606 q 916 590 896 606 q 936 550 936 574 q 917 512 936 526 q 865 497 897 497 l 843 497 l 850 57 q 833 6 850 26 q 793 -14 817 -14 q 753 6 769 -14 q 736 57 736 26 l 743 501 q 448 506 539 506 q 253 501 357 506 q 256 172 253 276 q 260 47 260 68 q 243 6 260 26 q 203 -14 226 -14 q 163 6 179 -14 q 146 47 146 26 q 147 131 146 68 q 153 499 153 274 l 128 499 q 61 550 61 499 q 79 590 61 575 q 128 604 97 604 l 153 604 l 146 985 q 163 1035 146 1015 q 203 1056 179 1056 q 243 1035 226 1056 q 260 985 260 1015 l 253 600 q 517 597 392 597 q 743 601 642 597 l 736 985 q 753 1035 736 1015 q 793 1056 769 1056 q 833 1035 817 1056 q 850 985 850 1015 z "},"I":{"ha":606,"x_min":51,"x_max":554,"o":"m 361 92 l 483 99 q 534 84 515 99 q 553 46 553 69 q 533 7 553 22 q 483 -8 514 -8 l 304 0 l 121 -7 q 51 46 51 -7 q 121 99 51 99 q 247 92 136 99 q 254 520 254 404 q 247 949 254 636 q 121 943 125 943 q 54 994 54 943 q 72 1034 54 1019 q 121 1049 90 1049 l 304 1042 q 414 1046 351 1042 q 495 1050 476 1050 q 534 1034 514 1050 q 554 994 554 1018 q 535 956 554 971 q 494 942 515 942 q 361 949 472 942 q 354 517 354 629 q 361 92 354 404 z "},"J":{"ha":726,"x_min":43,"x_max":669,"o":"m 571 519 l 572 353 q 485 75 572 164 q 288 -14 397 -14 q 110 35 178 -14 q 43 126 43 85 q 56 162 43 149 q 88 175 69 175 q 124 160 106 175 q 157 126 142 144 q 204 93 172 108 q 278 78 236 78 q 413 151 357 78 q 469 383 469 224 q 471 519 469 383 q 468 950 471 831 q 424 951 453 951 l 236 944 q 169 996 169 944 q 188 1035 169 1019 q 236 1050 206 1050 l 419 1043 q 529 1047 467 1043 q 610 1051 592 1051 q 649 1035 629 1051 q 669 996 669 1019 q 648 958 669 972 q 594 943 626 943 l 574 943 q 571 519 571 815 z "},"K":{"ha":858,"x_min":136,"x_max":839,"o":"m 243 479 l 250 57 q 233 6 250 26 q 193 -14 217 -14 q 153 6 169 -14 q 136 57 136 26 l 143 517 l 136 983 q 153 1034 136 1014 q 193 1054 169 1054 q 233 1034 217 1054 q 250 994 250 1014 q 249 921 250 974 q 243 589 243 710 q 363 606 285 606 q 428 601 365 606 q 552 774 496 660 q 629 994 608 888 q 686 1056 643 1056 q 719 1042 706 1056 q 733 1004 733 1028 q 658 760 733 911 q 508 536 583 610 q 617 326 546 450 q 724 153 688 203 q 787 99 757 113 q 828 87 817 86 q 839 79 839 88 q 817 13 839 39 q 764 -14 796 -14 q 643 81 711 -14 q 413 485 575 176 q 311 472 344 472 q 243 479 278 472 z "},"L":{"ha":756,"x_min":136,"x_max":711,"o":"m 250 985 l 243 517 q 249 99 243 376 q 395 92 306 92 q 559 97 485 92 q 653 101 633 101 q 692 87 674 101 q 711 47 711 72 q 692 8 711 22 q 642 -7 674 -7 l 432 0 l 207 -7 q 156 11 175 -7 q 136 64 136 29 l 143 517 l 136 985 q 151 1036 136 1017 q 193 1056 167 1056 q 235 1036 219 1056 q 250 985 250 1017 z "},"M":{"ha":1128,"x_min":136,"x_max":993,"o":"m 143 517 l 136 978 q 152 1031 136 1014 q 199 1049 168 1049 q 250 1000 229 1049 q 392 683 363 746 q 483 488 422 619 q 565 315 544 357 q 815 857 701 578 q 879 1007 860 965 q 936 1049 899 1049 q 993 978 993 1049 q 991 902 993 967 q 988 732 989 838 q 986 517 986 626 q 988 302 986 407 q 991 133 989 197 q 993 47 993 68 q 976 6 993 26 q 936 -14 960 -14 q 896 6 913 -14 q 879 47 879 26 q 881 133 879 68 q 889 517 889 369 l 889 786 l 621 197 q 567 154 601 154 q 514 201 533 154 q 243 792 346 576 l 243 517 l 250 57 q 233 6 250 26 q 193 -14 217 -14 q 153 6 169 -14 q 136 57 136 26 l 143 517 z "},"N":{"ha":960,"x_min":136,"x_max":826,"o":"m 143 517 l 136 983 q 153 1035 136 1014 q 194 1056 169 1056 q 261 1018 239 1056 q 466 653 274 999 q 719 210 658 308 l 719 517 q 716 863 719 751 q 713 994 713 974 q 729 1035 713 1015 q 769 1056 746 1056 q 810 1035 793 1056 q 826 994 826 1015 q 825 907 826 974 q 819 517 819 751 l 822 57 q 805 6 822 25 q 757 -14 788 -14 q 704 24 726 -14 q 653 114 697 35 q 452 473 518 361 q 326 694 386 585 q 243 840 267 803 l 243 517 l 250 57 q 233 6 250 26 q 193 -14 217 -14 q 153 6 169 -14 q 136 57 136 26 l 143 517 z "},"O":{"ha":1075,"x_min":79,"x_max":996,"o":"m 538 81 q 611 81 538 81 q 784 214 685 81 q 883 524 883 347 q 785 831 883 701 q 538 961 686 961 q 290 831 389 961 q 192 524 192 701 q 291 214 192 347 q 538 81 390 81 m 865 906 q 931 827 865 906 q 996 522 996 749 q 864 138 996 296 q 537 -21 732 -21 q 210 138 342 -21 q 79 522 79 296 q 211 905 79 747 q 539 1063 343 1063 q 865 906 735 1063 z "},"P":{"ha":835,"x_min":79,"x_max":790,"o":"m 393 967 q 250 942 293 967 q 246 732 246 879 q 249 522 246 585 q 429 499 326 499 q 610 565 532 499 q 688 721 688 632 q 610 899 688 831 q 393 967 533 967 m 249 428 l 256 57 q 239 6 256 26 q 199 -14 222 -14 q 158 6 175 -14 q 142 48 142 26 q 144 136 142 69 q 150 480 150 333 q 149 709 150 626 q 145 840 147 792 q 143 897 143 888 q 121 894 126 894 q 79 940 79 894 q 189 1030 79 997 q 385 1063 299 1063 q 686 963 582 1063 q 790 731 790 864 q 687 503 790 599 q 422 407 583 407 q 249 428 325 407 z "},"Q":{"ha":1047,"x_min":79,"x_max":968,"o":"m 856 522 q 761 831 856 701 q 524 961 667 961 q 286 831 381 961 q 192 524 192 701 q 287 214 192 347 q 524 81 382 81 q 622 97 583 81 q 565 190 594 144 q 525 253 535 236 q 515 289 515 269 q 532 324 515 308 q 574 339 549 339 q 621 300 599 339 l 701 147 q 815 306 775 207 q 856 522 856 406 m 968 522 q 911 251 968 374 q 753 57 854 128 q 859 -119 850 -103 q 868 -155 868 -135 q 856 -190 868 -175 q 818 -206 844 -206 q 768 -164 792 -206 q 727 -89 760 -150 q 672 11 694 -28 q 522 -21 603 -21 q 206 138 333 -21 q 79 522 79 296 q 208 905 79 747 q 525 1063 336 1063 q 841 906 714 1063 q 968 522 968 749 z "},"R":{"ha":883,"x_min":79,"x_max":846,"o":"m 249 426 l 256 57 q 239 6 256 26 q 199 -14 222 -14 q 158 6 175 -14 q 142 48 142 26 q 144 136 142 69 q 150 480 150 333 q 149 709 150 626 q 145 840 147 792 q 143 897 143 888 q 121 894 126 894 q 79 940 79 894 q 189 1030 79 997 q 385 1063 299 1063 q 672 973 575 1063 q 769 753 769 883 q 713 583 769 664 q 560 461 657 501 q 778 103 690 151 q 817 92 803 89 q 846 75 846 96 q 821 11 846 36 q 764 -14 796 -14 q 653 64 711 -14 q 460 429 569 183 q 328 417 393 417 l 249 426 m 667 744 q 596 905 667 843 q 409 967 525 967 q 250 942 293 967 q 246 718 246 869 q 247 535 246 567 q 375 551 310 551 q 494 538 440 551 q 612 610 557 550 q 667 744 667 671 z "},"S":{"ha":772,"x_min":58,"x_max":711,"o":"m 711 278 q 617 65 711 151 q 374 -21 522 -21 q 158 34 258 -21 q 58 143 58 89 q 72 178 58 164 q 106 192 85 192 q 152 174 126 192 q 201 134 178 156 q 270 94 224 113 q 374 76 317 76 q 535 131 471 76 q 600 278 600 186 q 548 392 600 339 q 422 488 496 446 q 273 575 347 531 q 147 682 199 619 q 94 819 94 744 q 180 990 94 918 q 379 1063 265 1063 q 574 1024 493 1063 q 654 936 654 985 q 641 901 654 914 q 607 889 628 889 q 565 901 586 889 q 527 927 544 913 q 474 953 510 942 q 377 965 438 965 q 261 924 317 965 q 206 826 206 883 q 258 720 206 768 q 384 630 310 672 q 533 541 458 588 q 659 426 607 494 q 711 278 711 358 z "},"T":{"ha":726,"x_min":38,"x_max":693,"o":"m 371 1042 l 622 1050 q 674 1035 654 1050 q 693 996 693 1021 q 674 956 693 971 q 622 942 654 942 l 428 949 q 421 517 421 636 l 428 57 q 413 6 428 25 q 371 -14 397 -14 q 329 6 344 -14 q 314 57 314 25 l 321 517 q 314 950 321 638 l 104 943 q 38 996 38 943 q 104 1049 38 1049 l 371 1042 z "},"U":{"ha":949,"x_min":126,"x_max":822,"o":"m 724 85 q 680 32 724 85 q 474 -21 636 -21 q 224 85 311 -21 q 135 343 138 192 q 126 998 126 979 q 142 1036 126 1017 q 183 1056 157 1056 q 225 1036 210 1056 q 240 994 240 1017 q 239 900 240 972 q 233 568 233 729 q 238 356 233 407 q 258 249 243 304 q 297 158 272 193 q 474 76 357 76 q 671 192 619 76 q 715 456 715 292 q 712 801 715 621 q 708 985 708 982 q 724 1036 708 1017 q 765 1056 739 1056 q 807 1036 792 1056 q 822 985 822 1017 q 814 342 822 724 q 724 85 811 190 z "},"V":{"ha":868,"x_min":35,"x_max":833,"o":"m 515 42 q 444 -14 494 -14 q 374 38 394 -14 q 237 406 307 211 q 135 685 167 600 q 89 812 104 771 q 58 894 74 853 q 35 994 35 964 q 49 1040 35 1024 q 88 1056 64 1056 q 149 1004 128 1056 q 180 910 150 1001 q 251 694 210 818 q 335 444 292 569 q 447 147 438 147 q 517 333 457 147 q 651 759 578 519 q 724 1000 724 999 q 782 1056 740 1056 q 820 1040 807 1056 q 833 1004 833 1025 q 815 924 833 983 q 751 730 796 864 q 637 383 706 596 q 515 42 568 171 z "},"W":{"ha":1263,"x_min":38,"x_max":1221,"o":"m 946 47 q 873 -14 924 -14 q 800 43 822 -14 q 754 196 794 58 q 676 455 714 333 q 632 576 638 576 q 589 454 626 576 q 513 195 551 332 q 469 47 474 58 q 397 -14 446 -14 q 326 43 349 -14 q 223 382 303 117 q 103 767 143 647 q 38 996 38 968 q 51 1040 38 1024 q 86 1056 65 1056 q 147 1006 128 1056 q 210 783 149 1003 q 404 147 388 147 q 521 518 421 147 q 567 688 561 668 q 637 758 586 758 q 707 692 688 758 q 753 531 710 683 q 876 147 864 147 q 974 465 886 147 q 1118 1000 1061 783 q 1175 1056 1133 1056 q 1221 1000 1221 1056 q 1188 853 1221 967 q 1126 646 1154 740 q 946 47 988 175 z "},"X":{"ha":868,"x_min":46,"x_max":851,"o":"m 713 1056 q 726 1056 713 1056 q 753 1040 739 1056 q 767 1009 767 1025 q 753 968 767 993 q 704 886 740 943 q 486 539 585 697 q 738 146 676 221 q 788 99 764 113 q 825 86 813 85 q 844 85 838 88 q 851 68 851 82 q 829 6 851 29 q 776 -18 807 -18 q 661 69 724 -18 q 425 446 593 169 q 235 137 299 244 q 165 19 172 29 q 111 -14 142 -14 q 56 35 56 -14 q 68 77 56 57 q 126 167 81 97 q 242 342 172 236 q 367 533 313 449 q 160 899 238 769 q 115 942 138 929 q 78 954 92 956 q 46 975 46 951 q 67 1037 46 1014 q 119 1060 89 1060 q 174 1043 150 1060 q 235 974 199 1026 q 428 622 271 913 q 574 870 497 738 q 668 1029 650 1003 q 713 1056 686 1056 z "},"Y":{"ha":769,"x_min":21,"x_max":749,"o":"m 329 56 q 331 119 329 65 q 336 436 336 246 l 183 704 q 128 799 157 750 l 82 875 q 28 972 36 953 q 21 1008 21 992 q 33 1040 21 1025 q 67 1056 46 1056 q 101 1044 88 1056 q 132 1006 115 1033 q 164 947 149 978 q 390 543 268 733 q 603 919 518 744 q 624 962 613 940 q 642 996 636 983 q 656 1020 649 1008 q 669 1038 664 1032 q 681 1047 674 1043 q 708 1056 690 1056 q 737 1043 725 1056 q 749 1015 749 1031 q 744 984 749 999 q 726 943 740 969 q 699 894 713 917 q 655 818 686 871 q 599 721 624 765 l 436 436 q 440 153 436 243 q 443 56 443 63 q 386 -14 443 -14 q 329 56 329 -14 z "},"Z":{"ha":789,"x_min":47,"x_max":743,"o":"m 389 1042 l 651 1050 q 701 1037 681 1050 q 722 997 722 1024 q 711 952 722 971 q 667 881 700 933 q 334 337 457 549 q 193 96 211 125 q 396 92 276 92 l 674 100 q 724 85 706 100 q 743 44 743 71 q 674 -8 743 -8 l 396 0 l 115 -7 q 47 49 47 -7 q 58 85 47 67 q 111 169 69 103 q 382 610 228 353 q 576 944 536 868 l 389 950 l 136 943 q 85 958 104 943 q 65 997 65 972 q 136 1049 65 1049 l 389 1042 z "},"[":{"ha":483,"x_min":106,"x_max":447,"o":"m 269 -222 l 390 -218 q 431 -231 415 -218 q 447 -264 447 -243 q 431 -297 447 -285 q 390 -310 415 -310 l 269 -306 l 163 -311 q 122 -299 138 -311 q 106 -270 106 -286 q 110 -47 106 -254 q 114 368 114 160 q 110 783 114 576 q 106 1006 106 990 q 122 1035 106 1022 q 163 1047 138 1047 l 269 1042 l 390 1046 q 431 1033 415 1046 q 447 1000 447 1021 q 431 967 447 979 q 390 954 415 954 l 269 958 l 208 958 q 200 368 200 483 q 208 -222 200 253 l 269 -222 z "},"\\":{"ha":504,"x_min":79,"x_max":426,"o":"m 426 -156 q 376 -211 426 -211 q 321 -153 332 -211 q 303 -57 317 -136 q 171 590 228 350 q 97 904 114 831 q 79 997 79 978 q 129 1056 79 1056 q 185 997 172 1056 q 203 901 189 981 q 333 272 272 532 q 410 -62 393 11 q 426 -156 426 -135 z "},"]":{"ha":483,"x_min":36,"x_max":378,"o":"m 214 1042 l 321 1047 q 362 1035 346 1047 q 378 1006 378 1022 q 374 783 378 990 q 369 368 369 576 q 374 -47 369 160 q 378 -270 378 -254 q 362 -299 378 -286 q 321 -311 346 -311 l 214 -306 l 93 -310 q 52 -297 68 -310 q 36 -264 36 -285 q 52 -231 36 -243 q 93 -218 68 -218 l 214 -222 l 275 -222 q 283 368 283 253 q 275 958 283 483 l 214 958 l 93 954 q 52 967 68 954 q 36 1000 36 979 q 52 1033 36 1021 q 93 1046 68 1046 q 214 1042 93 1046 z "},"^":{"ha":724,"x_min":58,"x_max":668,"o":"m 561 758 q 608 677 561 758 q 662 579 656 596 q 668 549 668 563 q 655 524 668 536 q 618 511 642 511 q 576 544 594 511 q 524 647 576 549 q 442 802 472 744 q 389 897 411 860 q 361 933 367 933 q 333 897 356 933 q 281 802 311 860 q 222 692 250 744 q 146 544 146 549 q 104 511 128 511 q 69 523 81 511 q 58 551 58 535 q 76 601 58 568 q 134 703 93 635 q 196 808 175 772 q 242 892 217 844 q 313 1024 307 1013 q 363 1056 331 1056 q 414 1025 396 1056 q 561 758 467 919 z "},"_":{"ha":800,"x_min":69,"x_max":731,"o":"m 400 -222 l 674 -218 q 715 -231 699 -218 q 731 -264 731 -243 q 715 -297 731 -285 q 674 -310 699 -310 l 400 -306 l 126 -310 q 85 -297 101 -310 q 69 -264 69 -285 q 85 -231 69 -243 q 126 -218 101 -218 q 400 -222 126 -218 z "},"`":{"ha":396,"x_min":97,"x_max":299,"o":"m 299 853 q 261 824 299 824 q 160 883 224 824 q 97 1003 97 943 q 110 1040 97 1024 q 147 1056 122 1056 q 188 1036 172 1056 q 219 981 204 1017 q 244 933 233 946 q 269 901 254 919 q 299 853 299 869 z "},"a":{"ha":793,"x_min":67,"x_max":742,"o":"m 649 336 q 664 166 649 232 q 700 92 679 100 q 720 86 708 88 q 737 82 732 85 q 742 71 742 79 q 722 10 742 33 q 661 -14 701 -14 q 599 38 621 -14 q 576 169 576 89 q 474 39 542 92 q 323 -14 407 -14 q 178 42 239 -14 q 67 332 67 143 q 154 596 67 483 q 379 708 242 708 q 560 638 483 708 q 613 708 560 708 q 676 610 676 708 q 649 336 676 513 m 568 324 l 561 538 q 387 618 478 618 q 231 536 296 618 q 165 340 165 454 q 208 151 165 225 q 328 76 250 76 q 469 146 406 76 q 568 324 533 215 z "},"b":{"ha":767,"x_min":92,"x_max":701,"o":"m 701 363 q 614 99 701 211 q 389 -14 526 -14 q 208 57 285 -14 q 156 -14 208 -14 q 92 84 92 -14 q 119 358 92 182 q 107 715 119 453 q 94 997 94 976 q 109 1037 94 1018 q 149 1056 124 1056 q 188 1037 174 1056 q 203 986 203 1018 l 203 547 q 303 663 240 618 q 448 708 367 708 q 589 653 529 708 q 701 363 701 551 m 381 76 q 427 76 381 76 q 538 158 472 76 q 603 355 603 240 q 560 544 603 469 q 440 618 518 618 q 299 549 363 618 q 200 371 235 479 l 207 157 q 381 76 290 76 z "},"c":{"ha":707,"x_min":64,"x_max":654,"o":"m 619 143 q 654 106 654 143 q 574 24 654 69 q 404 -21 493 -21 q 161 87 258 -21 q 64 347 64 194 q 162 608 64 500 q 419 715 260 715 q 574 676 507 715 q 642 594 642 636 q 628 558 642 572 q 596 543 614 543 q 554 564 578 543 q 407 625 482 625 q 240 544 311 625 q 168 349 168 464 q 240 151 168 233 q 419 69 313 69 q 579 125 501 69 q 619 143 606 143 z "},"d":{"ha":817,"x_min":65,"x_max":772,"o":"m 589 317 l 589 538 q 392 618 506 618 q 235 536 303 618 q 168 344 168 454 q 217 155 168 233 q 349 76 265 76 q 589 317 494 76 m 736 89 q 772 68 772 89 q 753 14 772 42 q 694 -14 735 -14 q 631 31 654 -14 q 599 172 608 75 q 342 -14 497 -14 q 186 44 251 -14 q 93 179 121 103 q 65 332 65 256 q 157 596 65 483 q 392 708 249 708 q 589 640 496 708 q 592 923 592 833 q 605 1034 592 1013 q 648 1056 618 1056 q 697 1031 678 1056 q 715 960 715 1007 q 710 844 715 913 q 693 662 704 775 q 675 457 682 549 q 688 192 675 288 q 736 89 700 96 z "},"e":{"ha":749,"x_min":33,"x_max":681,"o":"m 376 374 q 423 374 376 374 q 526 406 469 374 q 582 492 582 438 q 545 585 582 546 q 440 625 508 625 q 286 556 349 625 q 206 396 224 488 q 376 374 282 374 m 428 715 q 484 715 428 715 q 610 653 540 715 q 681 490 681 590 q 594 338 681 390 q 381 286 507 286 q 204 307 308 286 q 277 140 213 210 q 421 69 342 69 q 508 83 468 69 q 569 111 549 96 q 642 154 625 154 q 670 144 660 154 q 681 118 681 133 q 601 29 681 79 q 428 -21 521 -21 q 199 81 283 -21 q 107 325 114 182 q 33 397 33 347 q 45 430 33 418 q 74 442 57 442 q 115 429 90 442 q 231 635 146 554 q 428 715 317 715 z "},"f":{"ha":454,"x_min":28,"x_max":472,"o":"m 243 694 l 378 697 q 415 686 400 697 q 431 653 431 675 q 378 611 431 611 l 243 614 l 243 521 q 247 199 243 329 q 251 47 251 68 q 237 6 251 25 q 197 -14 222 -14 q 158 6 172 -14 q 143 47 143 25 q 144 133 143 68 q 151 521 151 329 l 151 614 l 81 611 q 28 653 28 611 q 43 686 28 675 q 81 697 58 697 l 150 694 l 150 813 q 201 999 150 942 q 318 1056 251 1056 q 428 1030 385 1056 q 472 975 472 1004 q 433 929 472 929 q 386 946 415 929 q 329 963 357 963 q 243 800 243 963 l 243 694 z "},"g":{"ha":775,"x_min":65,"x_max":681,"o":"m 567 325 l 567 538 q 398 618 490 618 q 237 535 306 618 q 168 340 168 453 q 211 151 168 226 q 330 76 254 76 q 469 147 406 76 q 567 325 533 218 m 564 643 q 617 708 567 708 q 681 610 681 708 q 653 336 681 513 q 669 83 669 167 q 584 -209 669 -99 q 344 -319 499 -319 q 182 -284 258 -319 q 106 -213 106 -249 q 138 -178 106 -178 q 209 -203 150 -178 q 344 -229 268 -229 q 519 -146 456 -229 q 583 69 583 -62 q 576 169 583 124 q 477 40 546 94 q 335 -14 408 -14 q 211 18 263 -14 q 128 101 160 50 q 65 344 65 206 q 159 595 65 482 q 390 708 253 708 q 564 643 486 708 z "},"h":{"ha":801,"x_min":92,"x_max":751,"o":"m 686 438 l 679 219 q 680 160 679 181 q 688 119 681 140 q 707 92 696 97 q 730 86 718 88 q 747 82 742 85 q 751 71 751 79 q 728 10 751 35 q 675 -14 706 -14 q 602 28 622 -14 q 582 150 582 69 l 588 406 q 547 558 588 500 q 435 617 507 617 q 297 538 364 617 q 204 358 231 458 l 208 57 q 156 -14 208 -14 q 92 84 92 -14 q 119 358 92 182 q 107 715 119 453 q 94 997 94 976 q 109 1037 94 1018 q 149 1056 124 1056 q 188 1037 174 1056 q 203 986 203 1018 l 203 532 q 453 708 304 708 q 625 629 564 708 q 686 438 686 550 z "},"i":{"ha":311,"x_min":93,"x_max":219,"o":"m 163 1007 q 177 1007 163 1007 q 206 988 192 1007 q 219 941 219 969 q 200 884 219 913 q 151 856 181 856 q 108 875 122 856 q 93 926 93 894 q 113 983 93 958 q 163 1007 133 1007 m 201 347 l 208 56 q 156 -14 208 -14 q 103 56 103 -14 l 110 347 l 103 639 q 156 708 103 708 q 208 639 208 708 l 201 347 z "},"j":{"ha":310,"x_min":-10,"x_max":219,"o":"m 163 1007 q 177 1007 163 1007 q 206 988 192 1007 q 219 941 219 969 q 200 884 219 913 q 151 856 181 856 q 108 875 122 856 q 93 926 93 894 q 113 983 93 958 q 163 1007 133 1007 m 201 319 l 200 14 q 140 -184 200 -106 q 28 -262 79 -262 q -10 -236 -10 -262 q 50 -158 -10 -217 q 92 -87 74 -136 q 111 28 111 -37 l 110 319 l 103 639 q 156 708 103 708 q 208 639 208 708 l 201 319 z "},"k":{"ha":708,"x_min":92,"x_max":661,"o":"m 204 358 l 208 57 q 156 -14 208 -14 q 92 84 92 -14 q 119 358 92 182 q 107 715 119 453 q 94 997 94 976 q 109 1037 94 1018 q 149 1056 124 1056 q 188 1037 174 1056 q 203 986 203 1018 l 203 532 q 453 708 304 708 q 582 661 533 708 q 631 546 631 614 q 513 351 631 432 q 444 307 486 333 l 547 149 q 603 96 574 108 q 647 83 632 83 q 661 71 661 83 q 640 12 661 38 q 590 -14 619 -14 q 545 -5 561 -14 q 510 30 529 4 q 475 83 492 56 q 351 276 394 215 q 292 297 315 276 q 268 344 268 317 q 287 390 268 372 q 336 408 306 408 q 399 374 367 408 q 492 446 451 397 q 533 533 533 494 q 512 594 533 572 q 447 617 490 617 q 300 538 369 617 q 204 358 231 460 z "},"l":{"ha":311,"x_min":103,"x_max":208,"o":"m 201 521 l 208 56 q 156 -14 208 -14 q 103 56 103 -14 l 110 521 l 103 986 q 156 1056 103 1056 q 208 986 208 1056 l 201 521 z "},"m":{"ha":1218,"x_min":94,"x_max":1168,"o":"m 1103 438 l 1096 219 q 1097 160 1096 181 q 1105 119 1097 140 q 1124 92 1113 97 q 1147 86 1135 88 q 1163 82 1158 85 q 1168 71 1168 79 q 1145 10 1168 35 q 1092 -14 1122 -14 q 1019 28 1039 -14 q 999 150 999 69 l 1004 406 q 967 558 1004 500 q 865 617 931 617 q 736 538 799 617 q 649 358 674 458 l 653 57 q 600 -14 653 -14 q 536 84 536 -14 q 564 358 536 182 q 422 617 564 617 q 294 538 357 617 q 207 358 232 458 l 211 57 q 158 -14 211 -14 q 94 84 94 -14 q 122 358 94 182 q 110 519 122 417 q 99 647 99 622 q 113 690 99 671 q 153 708 128 708 q 192 690 178 708 q 207 647 207 671 q 206 590 207 624 q 206 532 206 556 q 442 708 300 708 q 576 660 524 708 q 647 532 628 613 q 883 708 742 708 q 1045 629 988 708 q 1103 438 1103 550 z "},"n":{"ha":804,"x_min":94,"x_max":754,"o":"m 689 438 l 682 219 q 683 160 682 181 q 691 119 683 140 q 710 92 699 97 q 733 86 721 88 q 749 82 744 85 q 754 71 754 79 q 731 10 754 35 q 678 -14 708 -14 q 605 28 625 -14 q 585 150 585 69 l 590 406 q 550 558 590 500 q 438 617 510 617 q 300 538 367 617 q 207 358 233 458 l 211 57 q 158 -14 211 -14 q 94 84 94 -14 q 122 358 94 182 q 110 519 122 417 q 99 647 99 622 q 113 690 99 671 q 153 708 128 708 q 192 690 178 708 q 207 647 207 671 q 206 590 207 624 q 206 532 206 556 q 456 708 307 708 q 628 629 567 708 q 689 438 689 550 z "},"o":{"ha":781,"x_min":64,"x_max":717,"o":"m 551 151 q 584 192 551 151 q 618 349 618 233 q 553 544 618 464 q 393 625 489 625 q 230 543 297 625 q 163 346 163 461 q 227 150 163 231 q 388 69 292 69 q 551 151 483 69 m 391 715 q 462 715 391 715 q 625 609 533 715 q 717 349 717 503 q 624 87 717 194 q 389 -21 531 -21 q 156 85 247 -21 q 64 346 64 192 q 156 608 64 500 q 391 715 249 715 z "},"p":{"ha":792,"x_min":76,"x_max":726,"o":"m 400 76 q 556 158 489 76 q 624 351 624 240 q 575 540 624 461 q 443 618 526 618 q 203 378 297 618 l 203 157 q 400 76 286 76 m 117 264 l 118 317 l 118 339 q 106 510 118 397 q 93 647 93 622 q 108 690 93 671 q 147 708 122 708 q 187 690 172 708 q 201 647 201 671 q 201 588 201 624 q 200 529 200 553 q 303 661 246 614 q 450 708 360 708 q 606 650 540 708 q 699 515 671 592 q 726 363 726 439 q 635 99 726 211 q 400 -14 543 -14 q 203 54 296 -14 q 200 -195 200 -114 q 186 -298 200 -276 q 143 -319 172 -319 q 95 -295 114 -319 q 76 -225 76 -271 q 82 -116 76 -179 q 99 51 88 -53 q 117 238 110 154 l 117 264 z "},"q":{"ha":768,"x_min":67,"x_max":676,"o":"m 67 332 q 154 596 67 483 q 379 708 242 708 q 560 638 483 708 q 613 708 560 708 q 676 610 676 708 q 649 336 676 513 q 661 4 649 249 q 674 -261 674 -240 q 659 -301 674 -282 q 619 -319 644 -319 q 580 -301 594 -319 q 565 -250 565 -282 l 565 147 q 465 31 528 76 q 320 -14 401 -14 q 178 42 239 -14 q 67 332 67 143 m 387 618 q 341 618 387 618 q 231 536 296 618 q 165 340 165 454 q 208 151 165 225 q 328 76 250 76 q 469 146 406 76 q 568 324 533 215 l 561 538 q 387 618 478 618 z "},"r":{"ha":567,"x_min":94,"x_max":544,"o":"m 207 318 l 211 57 q 158 -14 211 -14 q 94 84 94 -14 q 122 358 94 182 q 110 518 122 417 q 99 644 99 619 q 113 689 99 669 q 153 708 128 708 q 192 689 178 708 q 207 647 207 669 q 206 588 207 624 q 206 529 206 553 q 292 654 233 600 q 414 708 351 708 q 510 683 476 708 q 544 628 544 657 q 529 582 544 599 q 490 565 514 565 q 437 591 465 565 q 392 617 408 617 q 285 518 346 617 q 207 318 224 419 z "},"s":{"ha":632,"x_min":50,"x_max":578,"o":"m 578 200 q 501 46 578 106 q 316 -14 424 -14 q 129 35 208 -14 q 50 133 50 85 q 63 167 50 154 q 91 181 75 181 q 117 174 107 181 q 143 150 126 168 q 173 119 160 132 q 227 92 186 107 q 303 76 268 76 q 428 108 379 76 q 478 199 478 139 q 339 319 478 271 q 224 362 282 339 q 126 425 167 385 q 86 521 86 465 q 154 652 86 596 q 321 708 222 708 q 477 674 419 708 q 535 603 535 640 q 486 557 535 557 q 444 572 465 557 q 319 618 379 618 q 222 591 260 618 q 185 528 185 564 q 225 468 185 493 q 323 422 265 443 q 439 376 381 401 q 538 305 497 350 q 578 200 578 260 z "},"t":{"ha":468,"x_min":28,"x_max":439,"o":"m 254 610 l 251 281 q 262 115 251 154 q 317 76 272 76 q 367 91 338 76 q 407 106 397 106 q 436 77 436 106 q 385 17 436 49 q 283 -14 333 -14 q 163 164 163 -14 l 161 610 q 97 606 115 606 q 28 651 28 606 q 97 697 28 697 q 158 694 103 697 l 156 850 q 208 919 156 919 q 261 850 261 919 l 257 693 l 369 699 q 439 651 439 699 q 369 607 439 607 q 254 610 357 607 z "},"u":{"ha":811,"x_min":86,"x_max":760,"o":"m 210 594 l 199 289 q 239 135 199 194 q 351 76 279 76 q 489 156 422 76 q 582 336 556 236 l 578 638 q 631 708 578 708 q 694 610 694 708 q 667 336 694 513 q 682 166 667 232 q 718 92 697 100 q 738 86 726 88 q 755 82 750 85 q 760 71 760 79 q 737 10 760 33 q 679 -14 714 -14 q 592 164 592 -14 q 333 -14 489 -14 q 161 69 222 -14 q 100 271 100 151 l 108 481 q 97 584 108 536 q 86 653 86 632 q 103 691 86 674 q 146 708 119 708 q 210 594 210 708 z "},"v":{"ha":674,"x_min":32,"x_max":643,"o":"m 327 126 q 331 118 327 126 q 339 111 335 111 q 351 126 343 111 q 371 172 358 140 q 392 229 383 204 q 419 303 401 254 l 443 371 q 499 537 465 432 q 539 658 532 642 q 593 708 558 708 q 628 695 614 708 q 643 663 643 682 q 631 613 643 644 q 588 502 619 582 q 499 261 557 422 q 413 43 442 100 q 335 -14 383 -14 q 263 36 288 -14 q 190 220 253 56 q 107 438 128 385 q 74 519 86 490 q 53 578 63 549 q 32 659 32 636 q 46 695 32 682 q 81 708 60 708 q 138 660 118 708 q 178 538 144 643 q 228 392 213 433 q 260 304 243 351 q 285 231 276 257 q 307 172 294 204 q 327 126 319 140 z "},"w":{"ha":1092,"x_min":35,"x_max":1057,"o":"m 318 111 q 408 375 331 111 q 494 658 486 639 q 556 708 514 708 q 615 660 599 708 q 657 514 631 613 q 696 372 683 415 q 785 111 772 111 q 876 371 799 111 q 922 533 894 431 q 956 654 950 636 q 1007 708 972 708 q 1042 696 1028 708 q 1057 666 1057 683 q 1053 634 1057 649 q 1041 592 1050 619 q 1022 535 1032 565 q 994 449 1013 504 q 929 250 975 394 q 857 39 883 106 q 781 -14 836 -14 q 700 58 725 -14 q 604 363 650 203 q 547 524 558 524 q 522 469 538 524 q 497 383 506 414 q 485 340 488 351 q 385 35 411 85 q 308 -14 361 -14 q 229 63 256 -14 q 190 182 219 90 q 141 330 160 274 q 103 439 122 386 q 74 522 85 492 q 53 582 63 553 q 35 658 35 636 q 49 694 35 681 q 85 708 64 708 q 140 660 125 708 q 177 538 146 643 q 222 391 208 433 q 249 304 235 349 q 272 232 263 260 q 292 172 281 204 q 318 111 311 111 z "},"x":{"ha":683,"x_min":39,"x_max":660,"o":"m 535 151 q 602 88 571 104 q 647 71 633 71 q 660 64 660 71 q 640 4 660 29 q 598 -21 619 -21 q 564 -16 576 -21 q 538 3 551 -11 q 511 31 524 17 q 478 75 499 46 q 441 130 458 104 q 393 201 424 156 q 336 286 363 247 q 217 110 278 201 q 142 3 157 19 q 110 -14 128 -14 q 78 -1 93 -14 q 64 29 64 13 q 68 57 64 46 q 89 91 72 68 q 126 142 106 114 q 285 363 185 217 l 165 540 q 110 597 136 578 q 69 618 83 617 q 39 633 39 621 q 58 692 39 668 q 110 715 76 715 q 174 679 143 715 q 254 567 204 643 q 310 483 304 492 q 324 461 315 475 q 342 435 333 447 q 501 675 497 669 q 545 708 525 708 q 579 694 565 708 q 593 662 593 679 q 576 617 593 644 q 499 508 560 590 q 393 364 438 425 l 535 151 z "},"y":{"ha":789,"x_min":86,"x_max":694,"o":"m 582 336 l 578 638 q 631 708 578 708 q 694 604 694 708 q 665 336 694 522 q 682 83 682 167 q 593 -209 682 -99 q 343 -319 504 -319 q 181 -284 257 -319 q 104 -213 104 -249 q 136 -178 104 -178 q 213 -203 150 -178 q 343 -229 276 -229 q 528 -146 460 -229 q 596 69 596 -62 q 592 164 596 118 q 333 -14 489 -14 q 161 69 222 -14 q 100 271 100 151 l 108 481 q 97 584 108 536 q 86 653 86 632 q 103 691 86 674 q 146 708 119 708 q 210 594 210 708 l 199 289 q 239 135 199 194 q 351 76 279 76 q 489 156 422 76 q 582 336 556 236 z "},"z":{"ha":664,"x_min":49,"x_max":618,"o":"m 340 83 l 549 90 q 618 42 618 90 q 549 -7 618 -7 l 340 0 q 115 -7 340 0 q 49 42 49 -7 q 97 133 49 78 q 247 320 182 232 q 344 452 311 408 q 394 518 378 496 q 453 607 439 581 q 335 611 349 611 l 132 604 q 63 653 63 604 q 132 701 63 701 l 335 694 l 532 701 q 599 653 599 701 q 573 589 599 622 q 524 528 547 556 q 358 316 461 454 q 193 86 256 178 q 340 83 276 83 z "},"{":{"ha":426,"x_min":19,"x_max":369,"o":"m 317 -218 q 353 -233 338 -218 q 368 -269 368 -247 q 354 -305 368 -290 q 317 -319 340 -319 q 212 -281 257 -319 q 167 -169 167 -242 q 177 -41 167 -133 q 188 113 188 51 q 177 231 188 174 q 144 299 167 288 q 90 286 117 286 q 41 304 63 286 q 19 356 19 322 q 42 413 19 390 q 96 435 64 435 q 144 426 128 435 q 175 508 161 447 q 189 626 189 569 q 178 774 189 682 q 168 903 168 867 q 213 1015 168 975 q 318 1056 258 1056 q 356 1041 342 1056 q 369 1005 369 1026 q 354 969 369 983 q 318 954 339 954 q 265 889 265 954 q 276 781 265 868 q 286 622 286 693 q 218 374 286 463 q 253 323 242 343 q 274 249 264 303 q 285 117 285 194 q 274 -47 285 40 q 264 -156 264 -135 q 317 -218 264 -218 z "},"|":{"ha":306,"x_min":104,"x_max":201,"o":"m 200 1042 l 194 354 q 198 -130 194 28 q 201 -306 201 -287 q 153 -375 201 -375 q 104 -306 104 -375 q 106 -193 104 -287 q 111 354 111 28 l 106 1042 q 153 1111 106 1111 q 200 1042 200 1111 z "},"}":{"ha":426,"x_min":57,"x_max":407,"o":"m 331 435 q 347 435 331 435 q 385 413 363 435 q 407 356 407 390 q 385 304 407 322 q 337 286 364 286 q 282 299 310 286 q 249 231 260 288 q 239 113 239 174 q 249 -41 239 51 q 260 -169 260 -133 q 215 -281 260 -242 q 110 -319 169 -319 q 72 -305 86 -319 q 58 -269 58 -290 q 74 -233 58 -247 q 110 -218 89 -218 q 163 -156 163 -218 q 152 -47 163 -135 q 142 117 142 40 q 152 249 142 194 q 174 323 163 303 q 208 374 185 343 q 140 622 140 463 q 151 781 140 693 q 161 889 161 868 q 108 954 161 954 q 72 969 88 954 q 57 1005 57 983 q 71 1041 57 1026 q 108 1056 85 1056 q 213 1015 168 1056 q 258 903 258 975 q 248 774 258 867 q 238 626 238 682 q 251 508 238 569 q 282 426 265 447 q 331 435 299 435 z "},"~":{"ha":767,"x_min":82,"x_max":686,"o":"m 686 408 q 686 390 686 408 q 636 331 686 372 q 533 289 586 289 q 405 329 479 289 q 290 369 331 369 q 205 327 249 369 q 135 285 161 285 q 96 298 110 285 q 82 331 82 311 q 142 415 82 375 q 272 456 201 456 q 417 415 342 456 q 526 375 493 375 q 582 392 558 375 q 622 427 606 410 q 654 444 639 444 q 686 408 686 444 z "},"":{"ha":331,"x_min":0,"x_max":0,"o":""},"":{"ha":306,"x_min":89,"x_max":217,"o":"m 158 757 q 172 757 158 757 q 201 735 186 757 q 217 681 217 713 q 197 624 217 650 q 148 597 176 597 q 104 618 119 597 q 89 672 89 639 q 109 731 89 704 q 158 757 129 757 m 203 381 l 199 86 q 203 -119 199 4 q 208 -250 208 -242 q 153 -319 208 -319 q 97 -250 97 -319 q 102 -119 97 -242 q 107 86 107 4 l 103 381 q 153 450 103 450 q 203 381 203 450 z "},"":{"ha":742,"x_min":79,"x_max":669,"o":"m 453 825 l 450 714 q 595 672 533 710 q 657 594 657 633 q 643 558 657 572 q 611 543 629 543 q 547 580 593 543 q 449 624 500 617 q 447 388 447 551 q 450 69 447 225 q 567 108 510 74 q 635 143 624 143 q 669 108 669 143 q 601 31 669 74 q 451 -19 533 -11 l 454 -117 q 406 -187 454 -187 q 357 -117 357 -187 q 358 -15 357 -65 q 157 109 235 7 q 79 346 79 211 q 155 582 79 481 q 360 708 231 683 q 358 831 358 767 q 406 896 358 896 q 453 825 453 896 m 361 81 q 364 323 364 233 q 363 498 364 413 q 363 615 363 583 q 235 518 286 592 q 183 350 183 444 q 233 181 183 256 q 361 81 282 107 z "},"":{"ha":744,"x_min":83,"x_max":672,"o":"m 507 446 l 299 450 q 301 351 301 394 q 285 256 300 308 q 256 174 271 204 q 213 90 242 143 q 352 89 258 89 q 520 94 446 89 q 615 99 594 99 q 653 85 635 99 q 672 46 672 71 q 653 7 672 21 q 603 -7 635 -7 l 393 0 l 168 -7 q 117 11 136 -7 q 97 59 97 29 q 124 131 97 89 q 179 234 151 174 q 208 346 207 294 q 206 447 208 397 l 140 446 q 99 458 115 446 q 83 492 83 471 q 99 525 83 513 q 129 538 115 538 q 160 537 143 538 q 192 536 178 536 q 175 611 188 556 q 151 763 151 714 q 222 926 151 860 q 418 993 292 993 q 563 954 493 993 q 635 874 633 915 q 624 844 635 858 q 591 831 613 831 q 517 866 569 831 q 400 901 464 901 q 294 865 336 901 q 251 768 251 829 q 286 533 251 707 l 507 538 q 548 525 532 538 q 564 492 564 513 q 548 458 564 471 q 507 446 532 446 z "},"":{"ha":890,"x_min":86,"x_max":803,"o":"m 692 574 q 735 406 735 499 q 692 239 735 314 l 775 160 q 803 112 803 135 q 788 74 803 89 q 752 58 772 58 q 710 78 732 58 q 629 161 688 99 q 444 94 551 94 q 261 163 338 94 l 188 86 q 136 60 157 60 q 101 74 115 60 q 86 112 86 89 q 114 160 86 135 l 199 242 q 158 404 158 314 q 200 569 158 494 q 114 654 122 644 q 86 705 86 685 q 101 740 86 725 q 140 756 117 756 q 188 728 163 756 l 264 649 q 445 715 342 715 q 628 650 549 715 l 701 728 q 753 754 732 754 q 788 740 774 754 q 803 702 803 725 q 775 654 803 679 q 692 574 735 614 m 444 186 q 485 186 444 186 q 583 251 525 186 q 640 408 640 317 q 585 562 640 499 q 450 625 531 625 q 312 560 369 625 q 254 403 254 494 q 309 249 254 313 q 444 186 364 186 z "},"":{"ha":813,"x_min":74,"x_max":735,"o":"m 453 313 l 656 317 q 697 305 681 317 q 713 272 713 293 q 697 240 713 251 q 635 228 681 228 q 453 232 590 228 l 457 56 q 403 -14 457 -14 q 349 56 349 -14 l 354 232 q 182 228 225 228 q 123 240 139 228 q 107 272 107 251 q 123 305 107 293 q 164 317 139 317 l 354 313 l 354 422 q 182 418 225 418 q 123 430 139 418 q 107 463 107 442 q 123 495 107 483 q 157 507 139 507 q 314 503 210 507 l 200 704 q 120 841 140 807 q 89 894 100 875 q 74 947 74 926 q 88 980 74 967 q 117 993 101 993 q 142 990 133 993 q 160 976 151 986 q 176 956 169 965 q 194 926 183 946 q 213 892 206 907 q 234 847 219 876 q 307 701 249 818 q 407 518 365 583 q 536 761 443 572 q 644 972 629 950 q 683 993 660 993 q 720 980 706 993 q 735 955 735 967 q 734 938 735 943 q 732 928 733 933 q 726 913 731 922 q 716 895 721 904 q 701 869 711 886 q 680 833 690 851 q 651 784 669 815 q 615 721 633 753 l 492 503 q 642 507 604 507 q 697 495 681 507 q 713 463 713 483 q 697 430 713 442 q 633 418 681 418 q 453 422 586 418 l 453 313 z "},"":{"ha":322,"x_min":113,"x_max":210,"o":"m 203 740 l 210 535 q 197 488 210 506 q 160 471 183 471 q 113 535 113 471 l 119 740 q 114 950 119 740 q 160 1010 114 1010 q 208 950 208 1010 l 203 740 m 203 -50 l 210 -256 q 197 -302 210 -285 q 160 -319 183 -319 q 113 -256 113 -319 l 119 -50 l 114 160 q 160 219 114 219 q 208 160 208 219 l 203 -50 z "},"":{"ha":744,"x_min":75,"x_max":674,"o":"m 524 576 q 555 556 524 576 q 630 477 586 535 q 674 349 674 419 q 635 218 674 279 q 532 122 596 157 q 624 -67 624 38 q 540 -249 624 -171 q 328 -326 456 -326 q 156 -281 238 -326 q 75 -189 75 -235 q 87 -158 75 -169 q 117 -147 99 -147 q 154 -161 135 -147 q 191 -191 174 -175 q 245 -221 208 -207 q 328 -235 282 -235 q 459 -187 406 -235 q 513 -65 513 -140 q 469 35 513 -14 q 363 123 425 83 q 240 203 301 163 q 134 299 178 244 q 90 423 90 353 q 142 550 90 493 q 279 626 193 607 q 140 835 140 738 q 213 997 140 932 q 385 1063 286 1063 q 550 1031 483 1063 q 617 956 617 999 q 606 928 617 939 q 578 917 594 917 q 539 931 561 917 q 405 971 472 971 q 294 935 338 971 q 251 846 251 900 q 295 744 251 792 q 401 658 339 697 q 524 576 463 618 m 451 181 q 538 247 506 200 q 571 356 571 293 q 494 481 571 418 q 350 543 418 543 q 238 508 282 543 q 193 419 193 474 q 250 321 193 369 q 358 243 290 288 q 451 181 425 199 z "},"":{"ha":543,"x_min":97,"x_max":446,"o":"m 167 1007 q 181 1007 167 1007 q 210 988 196 1007 q 224 941 224 969 q 204 884 224 913 q 156 856 185 856 q 112 875 126 856 q 97 926 97 894 q 117 983 97 958 q 167 1007 138 1007 m 389 1007 q 403 1007 389 1007 q 432 988 418 1007 q 446 941 446 969 q 426 884 446 913 q 378 856 407 856 q 334 875 349 856 q 319 926 319 894 q 340 983 319 958 q 389 1007 360 1007 z "},"":{"ha":1050,"x_min":89,"x_max":961,"o":"m 532 882 q 639 859 590 882 q 688 806 688 836 q 650 767 688 767 q 605 786 639 767 q 539 806 571 806 q 413 748 458 806 q 368 611 368 690 q 417 476 368 532 q 539 421 467 421 q 619 438 578 421 q 669 456 661 456 q 700 424 700 456 q 651 373 700 401 q 532 344 603 344 q 355 424 426 344 q 283 614 283 503 q 353 803 283 725 q 532 882 422 882 m 833 926 q 897 862 833 926 q 961 614 961 797 q 833 301 961 431 q 525 172 706 172 q 217 301 344 172 q 89 614 89 431 q 217 926 89 797 q 525 1056 344 1056 q 833 926 706 1056 m 773 353 q 825 407 773 353 q 876 614 876 461 q 773 874 876 767 q 524 982 669 982 q 275 874 378 982 q 172 614 172 767 q 275 353 172 461 q 524 246 378 246 q 773 353 669 246 z "},"":{"ha":569,"x_min":65,"x_max":503,"o":"m 442 758 q 450 681 442 728 q 483 619 458 625 q 493 617 489 618 q 503 610 503 615 q 485 563 503 581 q 439 544 468 544 q 374 656 385 544 q 315 577 356 610 q 225 544 274 544 q 108 610 150 544 q 65 762 65 675 q 121 917 65 849 q 261 986 176 986 q 367 942 322 986 q 413 986 374 986 q 458 907 458 986 q 442 758 458 894 m 369 764 l 365 865 q 268 910 321 910 q 181 866 215 910 q 146 760 146 822 q 169 658 146 699 q 231 618 192 618 q 311 662 271 618 q 369 764 351 706 z "},"":{"ha":704,"x_min":61,"x_max":618,"o":"m 92 428 q 86 433 92 428 q 71 454 81 439 q 61 487 61 469 q 72 519 61 504 q 119 567 83 535 q 171 615 156 600 q 206 653 186 631 q 236 683 226 675 q 281 708 260 708 q 315 695 303 708 q 328 663 328 682 q 315 631 328 644 q 273 597 301 617 q 231 564 244 576 q 164 485 164 504 q 231 406 164 465 q 273 373 244 393 q 315 339 301 353 q 328 306 328 325 q 315 274 328 288 q 287 261 303 261 q 258 269 271 261 q 235 285 244 276 q 206 317 226 294 q 170 355 186 339 q 129 394 154 371 q 92 428 104 417 m 383 428 q 377 433 383 428 q 361 454 371 439 q 351 487 351 469 q 363 519 351 504 q 410 567 374 535 q 461 615 446 600 q 497 653 476 631 q 525 683 517 675 q 572 708 550 708 q 606 695 593 708 q 618 663 618 682 q 605 631 618 644 q 563 597 592 617 q 521 564 535 576 q 454 485 454 504 q 521 406 454 465 q 563 373 535 393 q 605 339 592 353 q 618 306 618 325 q 606 274 618 288 q 577 261 593 261 q 548 269 561 261 q 526 285 535 276 q 497 317 517 294 q 460 355 476 339 q 419 394 444 371 q 383 428 394 417 z "},"":{"ha":881,"x_min":108,"x_max":772,"o":"m 769 265 l 772 182 q 758 141 772 157 q 724 125 744 125 q 689 141 703 125 q 675 182 675 157 l 679 265 l 679 318 q 439 321 571 321 l 165 317 q 124 329 139 317 q 108 363 108 342 q 124 396 108 383 q 165 408 139 408 l 439 404 l 713 408 q 772 349 772 408 l 769 265 z "},"":{"ha":594,"x_min":92,"x_max":503,"o":"m 297 404 l 446 408 q 487 396 471 408 q 503 363 503 383 q 487 329 503 342 q 446 317 471 317 l 297 321 l 149 317 q 108 329 124 317 q 92 363 92 342 q 108 396 92 383 q 149 408 124 408 l 297 404 z "},"":{"ha":1050,"x_min":89,"x_max":961,"o":"m 833 926 q 897 862 833 926 q 961 614 961 797 q 833 301 961 431 q 525 172 706 172 q 217 301 344 172 q 89 614 89 431 q 217 926 89 797 q 525 1056 344 1056 q 833 926 706 1056 m 773 353 q 825 407 773 353 q 876 614 876 461 q 773 874 876 767 q 524 982 669 982 q 275 874 378 982 q 172 614 172 767 q 275 353 172 461 q 524 246 378 246 q 773 353 669 246 m 342 638 l 335 828 q 506 893 335 893 q 658 843 606 893 q 710 731 710 793 q 597 578 710 631 q 622 533 611 556 q 663 472 646 493 q 721 438 686 438 q 731 431 731 438 q 713 385 731 404 q 673 367 696 367 q 630 385 650 367 q 597 426 610 404 q 560 491 583 449 q 519 560 536 533 q 469 554 486 554 q 418 560 451 554 q 422 428 422 460 q 410 381 422 397 q 378 365 397 365 q 336 418 336 365 l 342 638 m 550 640 q 602 667 576 640 q 628 729 628 693 q 599 792 628 765 q 515 818 571 818 q 418 806 458 818 q 416 732 418 789 q 414 643 414 675 q 474 656 442 656 q 550 640 506 656 z "},"":{"ha":606,"x_min":69,"x_max":536,"o":"m 303 972 l 479 976 q 520 964 504 976 q 536 931 536 951 q 520 897 536 910 q 479 885 504 885 l 303 889 l 126 885 q 85 897 101 885 q 69 931 69 910 q 85 964 69 951 q 126 976 101 976 l 303 972 z "},"":{"ha":464,"x_min":68,"x_max":396,"o":"m 351 935 q 373 906 351 935 q 396 790 396 876 q 351 646 396 704 q 232 588 306 588 q 113 646 158 588 q 68 790 68 704 q 113 935 68 876 q 232 993 158 993 q 351 935 306 993 m 292 699 q 302 717 292 699 q 313 790 313 735 q 292 881 313 846 q 233 917 271 917 q 173 881 194 917 q 151 790 151 844 q 173 700 151 736 q 233 664 194 664 q 292 699 271 664 z "},"":{"ha":792,"x_min":93,"x_max":699,"o":"m 396 83 l 642 88 q 683 75 667 88 q 699 42 699 63 q 683 8 699 21 q 642 -4 667 -4 l 396 0 l 150 -4 q 109 8 125 -4 q 93 42 93 21 q 109 75 93 63 q 150 88 125 88 q 396 83 150 88 m 439 494 l 642 499 q 683 486 667 499 q 699 453 699 474 q 683 419 699 432 q 642 407 667 407 q 439 411 572 407 l 444 235 q 431 193 444 208 q 396 178 418 178 q 350 235 350 178 q 356 411 350 239 q 169 407 214 407 q 109 419 125 407 q 93 453 93 432 q 109 486 93 474 q 150 499 125 499 l 356 494 q 350 651 350 644 q 396 708 350 708 q 431 693 418 708 q 444 661 444 678 q 439 494 444 644 z "},"":{"ha":519,"x_min":68,"x_max":453,"o":"m 251 546 l 394 553 q 453 508 453 553 q 394 464 453 464 l 253 469 q 124 464 253 469 q 85 477 101 464 q 68 513 68 490 q 80 556 68 535 q 108 597 92 578 q 326 911 326 842 q 306 961 326 942 q 249 981 286 981 q 178 949 211 981 q 126 918 146 918 q 97 929 107 918 q 86 958 86 940 q 135 1026 86 989 q 257 1063 183 1063 q 374 1019 331 1063 q 417 922 417 976 q 404 859 417 885 q 385 820 392 833 q 365 785 379 807 q 344 756 350 764 q 320 724 338 747 q 290 684 303 701 q 234 614 278 667 q 181 546 190 561 l 251 546 z "},"":{"ha":514,"x_min":67,"x_max":450,"o":"m 244 1060 l 346 1063 q 421 1011 421 1063 q 406 976 421 994 q 355 921 392 958 q 288 846 318 883 q 407 778 364 829 q 450 656 450 728 q 394 524 450 583 q 244 464 339 464 q 122 506 178 464 q 67 583 67 547 q 100 618 67 618 q 135 600 117 618 q 246 547 190 547 q 332 579 301 547 q 363 663 363 611 q 327 748 363 714 q 240 785 292 782 q 164 739 196 739 q 114 786 114 739 q 135 824 114 806 q 197 851 156 843 q 313 978 250 907 q 231 982 250 982 l 132 978 q 78 1018 78 978 q 92 1050 78 1038 q 132 1063 107 1063 l 244 1060 z "},"":{"ha":396,"x_min":97,"x_max":299,"o":"m 299 1003 q 235 883 299 943 q 135 824 172 824 q 97 853 97 824 q 119 894 97 869 q 152 933 142 919 q 177 981 163 946 q 208 1036 192 1017 q 249 1056 224 1056 q 286 1040 274 1056 q 299 1003 299 1024 z "},"":{"ha":849,"x_min":115,"x_max":788,"o":"m 226 56 l 236 -249 q 222 -300 236 -281 q 182 -319 207 -319 q 142 -300 157 -319 q 128 -249 128 -281 l 136 236 q 115 603 115 522 q 179 707 115 707 q 235 622 235 707 q 233 565 235 608 q 228 263 228 465 q 269 129 228 181 q 381 78 311 78 q 517 157 450 78 q 610 336 583 236 l 606 638 q 658 708 606 708 q 722 610 722 708 q 694 336 722 513 q 710 166 694 232 q 746 92 725 100 q 766 86 754 88 q 783 82 778 85 q 788 71 788 79 q 765 10 788 33 q 707 -14 742 -14 q 619 164 619 -14 q 517 42 581 97 q 374 -14 453 -14 q 226 56 296 -14 z "},"":{"ha":872,"x_min":61,"x_max":732,"o":"m 731 985 l 724 368 q 728 -57 724 118 q 732 -256 732 -232 q 717 -300 732 -281 q 678 -319 703 -319 q 638 -300 653 -319 q 624 -256 624 -281 q 625 -144 624 -232 q 632 368 632 118 l 625 965 q 543 968 578 968 q 461 965 508 968 q 454 401 454 576 q 456 84 454 225 q 460 -144 458 -57 q 463 -249 463 -232 q 408 -319 463 -319 q 354 -249 354 -319 q 356 -144 354 -232 q 363 368 363 118 l 363 456 q 146 542 231 461 q 61 740 61 624 q 152 970 61 888 q 403 1056 243 1053 l 543 1051 l 664 1056 q 713 1036 694 1056 q 731 985 731 1017 z "},"":{"ha":308,"x_min":89,"x_max":219,"o":"m 159 438 q 174 438 159 438 q 204 416 189 438 q 219 362 219 394 q 199 302 219 329 q 150 275 179 275 q 105 297 121 275 q 89 352 89 319 q 109 411 89 385 q 159 438 129 438 z "},"":{"ha":460,"x_min":60,"x_max":376,"o":"m 376 -190 q 328 -283 376 -246 q 211 -319 279 -319 q 101 -287 143 -319 q 60 -222 60 -256 q 67 -204 60 -212 q 85 -196 74 -196 q 133 -213 96 -196 q 201 -231 169 -231 q 253 -218 232 -231 q 275 -189 275 -206 q 254 -156 275 -172 q 208 -127 233 -140 q 163 -90 183 -114 q 142 -36 142 -65 l 142 17 l 231 17 l 231 -14 q 303 -94 231 -56 q 353 -135 331 -110 q 376 -190 376 -160 z "},"":{"ha":413,"x_min":36,"x_max":318,"o":"m 314 764 l 318 525 q 306 485 318 500 q 273 469 293 469 q 240 485 253 469 q 228 525 228 500 q 232 764 228 525 l 232 931 l 189 882 q 157 842 183 875 q 79 776 107 776 q 36 818 36 776 q 83 888 36 842 q 169 982 129 933 q 227 1047 210 1031 q 268 1063 244 1063 q 318 992 318 1063 l 314 764 z "},"":{"ha":497,"x_min":67,"x_max":431,"o":"m 249 993 q 289 993 249 993 q 380 929 329 993 q 431 768 431 865 q 380 608 431 671 q 249 546 329 546 q 117 608 168 546 q 67 768 67 671 q 117 929 67 865 q 249 993 168 993 m 249 622 q 273 622 249 622 q 322 662 296 622 q 347 768 347 701 q 321 876 347 835 q 249 917 294 917 q 176 875 203 917 q 150 767 150 833 q 176 662 150 701 q 249 622 203 622 z "},"":{"ha":703,"x_min":86,"x_max":643,"o":"m 612 542 q 618 536 612 542 q 633 515 624 531 q 643 483 643 500 q 632 450 643 465 q 585 402 621 435 q 533 354 549 369 q 498 317 518 339 q 469 286 478 294 q 423 261 444 261 q 389 274 401 261 q 376 306 376 288 q 390 339 376 325 q 431 373 403 353 q 474 406 460 393 q 540 485 540 465 q 474 564 540 504 q 431 597 460 576 q 390 631 403 617 q 376 663 376 644 q 389 695 376 682 q 417 708 401 708 q 447 701 433 708 q 469 684 460 693 q 498 653 478 675 q 534 615 518 631 q 575 576 550 599 q 612 542 600 553 m 322 542 q 327 536 322 542 q 343 515 333 531 q 353 483 353 500 q 342 450 353 465 q 294 402 331 435 q 243 354 258 369 q 208 317 228 339 q 178 286 188 294 q 133 261 154 261 q 99 274 111 261 q 86 306 86 288 q 99 339 86 325 q 141 373 113 353 q 183 406 169 393 q 250 485 250 465 q 183 564 250 504 q 141 597 169 576 q 99 631 113 617 q 86 663 86 644 q 99 695 86 682 q 127 708 111 708 q 156 701 143 708 q 178 684 169 693 q 208 653 188 675 q 244 615 228 631 q 285 576 260 599 q 322 542 310 553 z "},"":{"ha":1172,"x_min":57,"x_max":1108,"o":"m 335 764 l 339 525 q 326 485 339 500 q 294 469 314 469 q 261 485 274 469 q 249 525 249 500 q 253 764 249 525 l 253 931 l 210 882 q 178 842 204 875 q 100 776 128 776 q 57 818 57 776 q 103 888 57 842 q 190 982 150 933 q 248 1047 231 1031 q 289 1063 265 1063 q 339 992 339 1063 l 335 764 m 763 936 q 751 908 763 936 q 692 760 740 879 q 602 526 643 642 q 525 303 561 411 q 448 67 467 122 q 413 -4 429 11 q 379 -19 397 -19 q 347 -8 361 -19 q 333 27 333 3 q 355 108 333 51 q 425 285 376 165 q 513 520 474 406 q 590 742 553 635 q 649 915 626 850 q 681 1006 671 979 q 743 1064 699 1064 q 771 1053 757 1064 q 785 1017 785 1042 q 763 936 785 993 m 1019 181 l 1024 46 q 981 -14 1024 -14 q 939 46 939 -14 l 943 183 l 889 185 l 707 181 q 672 193 683 181 q 661 224 661 206 q 683 276 661 243 q 781 408 704 308 l 885 543 q 960 600 929 600 q 1008 577 992 600 q 1024 521 1024 554 l 1019 253 q 1073 256 1061 256 q 1097 244 1085 256 q 1108 218 1108 232 q 1097 192 1108 204 q 1063 179 1085 179 q 1019 181 1042 179 m 760 253 l 942 253 q 943 386 943 307 l 942 494 q 760 253 917 467 z "},"":{"ha":1186,"x_min":57,"x_max":1115,"o":"m 335 764 l 339 525 q 326 485 339 500 q 294 469 314 469 q 261 485 274 469 q 249 525 249 500 q 253 764 249 525 l 253 931 l 210 882 q 178 842 204 875 q 100 776 128 776 q 57 818 57 776 q 103 888 57 842 q 190 982 150 933 q 248 1047 231 1031 q 289 1063 265 1063 q 339 992 339 1063 l 335 764 m 914 78 l 1057 85 q 1115 40 1115 85 q 1057 -4 1115 -4 l 915 1 l 786 -4 q 747 9 764 -4 q 731 44 731 22 q 742 88 731 67 q 771 128 754 110 q 989 443 989 374 q 969 493 989 474 q 911 513 949 513 q 841 481 874 513 q 789 450 808 450 q 759 461 769 450 q 749 490 749 472 q 797 558 749 521 q 919 594 846 594 q 1036 551 993 594 q 1079 454 1079 508 q 1067 391 1079 417 q 1048 352 1054 365 q 1027 317 1042 339 q 1006 288 1013 296 q 983 256 1000 279 q 953 216 965 233 q 897 146 940 199 q 843 78 853 93 l 914 78 m 763 936 q 751 908 763 936 q 692 760 740 879 q 602 526 643 642 q 525 303 561 411 q 448 67 467 122 q 413 -4 429 11 q 379 -19 397 -19 q 347 -8 361 -19 q 333 27 333 3 q 355 108 333 51 q 425 285 376 165 q 513 520 474 406 q 590 742 553 635 q 649 915 626 850 q 681 1006 671 979 q 743 1064 699 1064 q 771 1053 757 1064 q 785 1017 785 1042 q 763 936 785 993 z "},"":{"ha":1242,"x_min":75,"x_max":1181,"o":"m 835 936 q 824 908 835 936 q 764 760 813 879 q 674 526 715 642 q 597 303 633 411 q 520 67 539 122 q 485 -4 501 11 q 451 -19 469 -19 q 419 -8 433 -19 q 406 27 406 3 q 427 108 406 51 q 497 285 449 165 q 585 520 546 406 q 662 742 625 635 q 721 915 699 850 q 753 1006 743 979 q 815 1064 771 1064 q 843 1053 829 1064 q 857 1017 857 1042 q 835 936 857 993 m 1092 181 l 1096 46 q 1053 -14 1096 -14 q 1011 46 1011 -14 l 1015 183 l 961 185 l 779 181 q 744 193 756 181 q 733 224 733 206 q 755 276 733 243 q 853 408 776 308 l 957 543 q 1033 600 1001 600 q 1080 577 1064 600 q 1096 521 1096 554 l 1092 253 q 1145 256 1133 256 q 1169 244 1157 256 q 1181 218 1181 232 q 1169 192 1181 204 q 1135 179 1157 179 q 1092 181 1114 179 m 832 253 l 1014 253 q 1015 386 1015 307 l 1014 494 q 832 253 989 467 m 253 1060 l 354 1063 q 429 1011 429 1063 q 415 976 429 994 q 363 921 400 958 q 296 846 326 883 q 415 778 372 829 q 458 656 458 728 q 403 524 458 583 q 253 464 347 464 q 131 506 186 464 q 75 583 75 547 q 108 618 75 618 q 143 600 125 618 q 254 547 199 547 q 340 579 310 547 q 371 663 371 611 q 335 748 371 714 q 249 785 300 782 q 172 739 204 739 q 122 786 122 739 q 143 824 122 806 q 206 851 164 843 q 321 978 258 907 q 239 982 258 982 l 140 978 q 86 1018 86 978 q 101 1050 86 1038 q 140 1063 115 1063 l 253 1060 z "},"":{"ha":615,"x_min":65,"x_max":554,"o":"m 410 376 q 324 178 410 271 q 251 103 288 139 q 165 -71 165 14 q 213 -184 165 -137 q 312 -231 261 -231 q 396 -214 363 -231 q 444 -178 429 -197 q 507 -125 483 -125 q 542 -138 531 -125 q 554 -169 554 -151 q 483 -269 554 -218 q 324 -319 411 -319 q 137 -248 208 -319 q 65 -71 65 -176 q 151 131 65 40 q 224 206 188 169 q 310 373 310 292 q 358 454 310 454 q 410 376 410 454 m 365 757 q 379 757 365 757 q 408 735 393 757 q 424 681 424 713 q 403 624 424 650 q 355 597 383 597 q 311 618 326 597 q 296 672 296 639 q 316 731 296 704 q 365 757 336 757 z "},"":{"ha":892,"x_min":54,"x_max":839,"o":"m 708 442 l 769 443 q 819 428 800 443 q 839 389 839 413 q 742 336 839 336 q 774 236 764 268 q 803 156 785 204 q 839 36 839 56 q 826 1 839 17 q 792 -14 814 -14 q 731 35 751 -14 q 683 182 711 88 q 633 342 654 276 q 401 346 467 346 q 246 342 336 346 q 154 38 160 53 q 100 -14 135 -14 q 67 0 79 -14 q 54 34 54 14 q 67 97 54 54 q 105 214 79 139 q 146 339 131 289 l 121 339 q 54 390 54 339 q 121 442 54 442 q 178 440 153 442 q 360 972 182 451 q 440 1056 389 1056 q 494 1035 475 1056 q 525 984 513 1015 q 567 864 538 953 q 708 442 658 585 m 276 438 q 442 433 354 433 q 603 438 531 433 q 443 897 460 897 q 314 553 424 897 l 276 438 m 506 1144 q 468 1115 506 1115 q 367 1175 431 1115 q 304 1294 304 1235 q 317 1331 304 1315 q 354 1347 329 1347 q 395 1328 379 1347 q 426 1273 411 1308 q 451 1224 440 1238 q 478 1193 461 1211 q 506 1144 506 1161 z "},"":{"ha":892,"x_min":54,"x_max":839,"o":"m 708 442 l 769 443 q 819 428 800 443 q 839 389 839 413 q 742 336 839 336 q 774 236 764 268 q 803 156 785 204 q 839 36 839 56 q 826 1 839 17 q 792 -14 814 -14 q 731 35 751 -14 q 683 182 711 88 q 633 342 654 276 q 401 346 467 346 q 246 342 336 346 q 154 38 160 53 q 100 -14 135 -14 q 67 0 79 -14 q 54 34 54 14 q 67 97 54 54 q 105 214 79 139 q 146 339 131 289 l 121 339 q 54 390 54 339 q 121 442 54 442 q 178 440 153 442 q 360 972 182 451 q 440 1056 389 1056 q 494 1035 475 1056 q 525 984 513 1015 q 567 864 538 953 q 708 442 658 585 m 276 438 q 442 433 354 433 q 603 438 531 433 q 443 897 460 897 q 314 553 424 897 l 276 438 m 575 1294 q 512 1175 575 1235 q 411 1115 449 1115 q 374 1144 374 1115 q 396 1186 374 1161 q 428 1224 418 1211 q 453 1273 439 1238 q 484 1328 468 1308 q 525 1347 500 1347 q 563 1331 550 1347 q 575 1294 575 1315 z "},"":{"ha":892,"x_min":54,"x_max":839,"o":"m 708 442 l 769 443 q 819 428 800 443 q 839 389 839 413 q 742 336 839 336 q 774 236 764 268 q 803 156 785 204 q 839 36 839 56 q 826 1 839 17 q 792 -14 814 -14 q 731 35 751 -14 q 683 182 711 88 q 633 342 654 276 q 401 346 467 346 q 246 342 336 346 q 154 38 160 53 q 100 -14 135 -14 q 67 0 79 -14 q 54 34 54 14 q 67 97 54 54 q 105 214 79 139 q 146 339 131 289 l 121 339 q 54 390 54 339 q 121 442 54 442 q 178 440 153 442 q 360 972 182 451 q 440 1056 389 1056 q 494 1035 475 1056 q 525 984 513 1015 q 567 864 538 953 q 708 442 658 585 m 276 438 q 442 433 354 433 q 603 438 531 433 q 443 897 460 897 q 314 553 424 897 l 276 438 m 631 1208 q 634 1205 631 1208 q 643 1191 638 1201 q 649 1166 649 1181 q 636 1140 649 1151 q 606 1128 624 1128 q 574 1140 589 1128 q 544 1173 558 1153 q 524 1197 529 1193 q 447 1264 468 1264 q 369 1197 425 1264 q 350 1172 364 1193 q 293 1128 317 1128 q 257 1140 269 1128 q 244 1166 244 1151 q 251 1191 244 1181 q 263 1208 257 1201 q 288 1230 269 1214 q 324 1262 307 1246 q 365 1310 340 1278 q 405 1354 389 1342 q 446 1367 421 1367 q 488 1354 471 1367 q 529 1310 504 1342 q 571 1262 554 1278 q 606 1230 588 1246 q 631 1208 624 1214 z "},"":{"ha":892,"x_min":54,"x_max":839,"o":"m 708 442 l 769 443 q 819 428 800 443 q 839 389 839 413 q 742 336 839 336 q 774 236 764 268 q 803 156 785 204 q 839 36 839 56 q 826 1 839 17 q 792 -14 814 -14 q 731 35 751 -14 q 683 182 711 88 q 633 342 654 276 q 401 346 467 346 q 246 342 336 346 q 154 38 160 53 q 100 -14 135 -14 q 67 0 79 -14 q 54 34 54 14 q 67 97 54 54 q 105 214 79 139 q 146 339 131 289 l 121 339 q 54 390 54 339 q 121 442 54 442 q 178 440 153 442 q 360 972 182 451 q 440 1056 389 1056 q 494 1035 475 1056 q 525 984 513 1015 q 567 864 538 953 q 708 442 658 585 m 276 438 q 442 433 354 433 q 603 438 531 433 q 443 897 460 897 q 314 553 424 897 l 276 438 m 694 1267 q 659 1184 694 1219 q 576 1149 624 1149 q 461 1187 528 1149 q 366 1225 394 1225 q 319 1204 338 1225 q 283 1162 300 1183 q 247 1140 267 1140 q 213 1156 226 1140 q 199 1190 199 1171 q 243 1276 199 1239 q 345 1313 288 1313 q 474 1274 403 1313 q 576 1235 546 1235 q 629 1270 606 1235 q 665 1306 653 1306 q 686 1294 678 1306 q 694 1267 694 1282 z "},"":{"ha":892,"x_min":54,"x_max":839,"o":"m 708 442 l 769 443 q 819 428 800 443 q 839 389 839 413 q 742 336 839 336 q 774 236 764 268 q 803 156 785 204 q 839 36 839 56 q 826 1 839 17 q 792 -14 814 -14 q 731 35 751 -14 q 683 182 711 88 q 633 342 654 276 q 401 346 467 346 q 246 342 336 346 q 154 38 160 53 q 100 -14 135 -14 q 67 0 79 -14 q 54 34 54 14 q 67 97 54 54 q 105 214 79 139 q 146 339 131 289 l 121 339 q 54 390 54 339 q 121 442 54 442 q 178 440 153 442 q 360 972 182 451 q 440 1056 389 1056 q 494 1035 475 1056 q 525 984 513 1015 q 567 864 538 953 q 708 442 658 585 m 276 438 q 442 433 354 433 q 603 438 531 433 q 443 897 460 897 q 314 553 424 897 l 276 438 m 349 1326 q 363 1326 349 1326 q 392 1308 378 1326 q 406 1260 406 1289 q 386 1203 406 1232 q 338 1175 367 1175 q 294 1194 308 1175 q 279 1246 279 1214 q 299 1302 279 1278 q 349 1326 319 1326 m 571 1326 q 585 1326 571 1326 q 614 1308 600 1326 q 628 1260 628 1289 q 608 1203 628 1232 q 560 1175 589 1175 q 516 1194 531 1175 q 501 1246 501 1214 q 522 1302 501 1278 q 571 1326 542 1326 z "},"":{"ha":892,"x_min":54,"x_max":839,"o":"m 708 442 l 769 443 q 819 428 800 443 q 839 389 839 413 q 742 336 839 336 q 774 236 764 268 q 803 156 785 204 q 839 36 839 56 q 826 1 839 17 q 792 -14 814 -14 q 731 35 751 -14 q 683 182 711 88 q 633 342 654 276 q 401 346 467 346 q 246 342 336 346 q 154 38 160 53 q 100 -14 135 -14 q 67 0 79 -14 q 54 34 54 14 q 67 97 54 54 q 105 214 79 139 q 146 339 131 289 l 121 339 q 54 390 54 339 q 121 442 54 442 q 178 440 153 442 q 360 972 182 451 q 440 1056 389 1056 q 494 1035 475 1056 q 525 984 513 1015 q 567 864 538 953 q 708 442 658 585 m 276 438 q 442 433 354 433 q 603 438 531 433 q 443 897 460 897 q 314 553 424 897 l 276 438 m 532 1331 q 550 1312 532 1331 q 568 1238 568 1293 q 533 1144 568 1182 q 442 1107 499 1107 q 350 1144 385 1107 q 315 1237 315 1181 q 351 1331 315 1293 q 442 1369 388 1369 q 532 1331 496 1369 m 442 1172 q 454 1172 442 1172 q 485 1192 467 1172 q 503 1238 503 1213 q 484 1284 503 1264 q 442 1304 465 1304 q 399 1284 418 1304 q 381 1238 381 1264 q 399 1192 381 1213 q 442 1172 417 1172 z "},"":{"ha":1168,"x_min":54,"x_max":1153,"o":"m 532 435 q 443 897 479 768 q 314 553 424 897 l 276 438 q 409 433 354 433 q 493 434 464 433 q 532 435 522 435 m 872 0 l 665 -7 q 589 53 599 -7 q 542 347 571 156 q 246 342 361 347 q 146 18 157 43 q 106 -11 125 -10 q 54 40 54 -11 q 92 175 54 63 q 146 339 131 288 l 121 339 q 54 390 54 339 q 121 442 54 442 q 178 440 153 442 q 358 965 194 488 q 440 1049 388 1049 l 735 1042 l 929 1049 q 999 996 999 1049 q 929 943 999 943 l 735 950 q 540 944 588 950 q 596 611 568 769 q 697 608 657 608 l 933 615 q 984 601 965 615 q 1003 561 1003 586 q 933 510 1003 510 l 697 517 q 614 514 664 517 q 694 97 685 132 q 872 92 783 92 q 1083 99 872 92 q 1153 46 1153 99 q 1083 -7 1153 -7 l 872 0 z "},"":{"ha":885,"x_min":79,"x_max":833,"o":"m 676 -190 q 628 -283 676 -246 q 511 -319 579 -319 q 401 -287 443 -319 q 360 -222 360 -256 q 367 -204 360 -212 q 385 -196 374 -196 q 433 -213 396 -196 q 501 -231 469 -231 q 553 -218 532 -231 q 575 -189 575 -206 q 554 -156 575 -172 q 508 -124 533 -139 q 463 -80 483 -110 q 442 -14 442 -50 q 180 168 281 17 q 79 534 79 319 q 204 906 79 749 q 518 1063 329 1063 q 715 1019 628 1063 q 803 922 803 976 q 790 888 803 900 q 754 875 776 875 q 703 897 732 875 q 518 965 614 965 q 284 834 376 965 q 192 524 192 703 q 284 211 192 346 q 517 76 376 76 q 660 99 600 76 q 751 145 719 122 q 796 168 782 168 q 833 128 833 168 q 743 36 833 89 q 531 -21 653 -17 q 607 -97 535 -60 q 655 -135 633 -111 q 676 -190 676 -160 z "},"":{"ha":817,"x_min":64,"x_max":751,"o":"m 457 92 l 682 99 q 751 46 751 99 q 682 -7 751 -7 l 457 0 q 214 -7 457 0 q 151 46 151 -7 q 155 210 151 94 q 158 504 158 325 q 131 503 146 503 q 64 554 64 503 q 82 593 64 578 q 123 608 100 608 q 158 607 146 608 q 149 944 156 886 q 132 996 132 968 q 206 1049 132 1049 l 474 1042 l 682 1049 q 751 996 751 1049 q 682 943 751 943 l 474 950 q 265 944 315 950 q 258 604 258 763 q 356 601 319 601 l 606 608 q 656 594 638 608 q 675 554 675 579 q 606 503 675 503 l 356 510 q 258 507 317 510 l 258 369 q 265 97 258 163 q 457 92 363 92 m 481 1144 q 443 1115 481 1115 q 342 1175 406 1115 q 279 1294 279 1235 q 292 1331 279 1315 q 329 1347 304 1347 q 370 1328 354 1347 q 401 1273 386 1308 q 426 1224 415 1238 q 453 1193 436 1211 q 481 1144 481 1161 z "},"":{"ha":817,"x_min":64,"x_max":751,"o":"m 457 92 l 682 99 q 751 46 751 99 q 682 -7 751 -7 l 457 0 q 214 -7 457 0 q 151 46 151 -7 q 155 210 151 94 q 158 504 158 325 q 131 503 146 503 q 64 554 64 503 q 82 593 64 578 q 123 608 100 608 q 158 607 146 608 q 149 944 156 886 q 132 996 132 968 q 206 1049 132 1049 l 474 1042 l 682 1049 q 751 996 751 1049 q 682 943 751 943 l 474 950 q 265 944 315 950 q 258 604 258 763 q 356 601 319 601 l 606 608 q 656 594 638 608 q 675 554 675 579 q 606 503 675 503 l 356 510 q 258 507 317 510 l 258 369 q 265 97 258 163 q 457 92 363 92 m 578 1294 q 515 1175 578 1235 q 414 1115 451 1115 q 376 1144 376 1115 q 399 1186 376 1161 q 431 1224 421 1211 q 456 1273 442 1238 q 487 1328 471 1308 q 528 1347 503 1347 q 565 1331 553 1347 q 578 1294 578 1315 z "},"":{"ha":817,"x_min":64,"x_max":751,"o":"m 457 92 l 682 99 q 751 46 751 99 q 682 -7 751 -7 l 457 0 q 214 -7 457 0 q 151 46 151 -7 q 155 210 151 94 q 158 504 158 325 q 131 503 146 503 q 64 554 64 503 q 82 593 64 578 q 123 608 100 608 q 158 607 146 608 q 149 944 156 886 q 132 996 132 968 q 206 1049 132 1049 l 474 1042 l 682 1049 q 751 996 751 1049 q 682 943 751 943 l 474 950 q 265 944 315 950 q 258 604 258 763 q 356 601 319 601 l 606 608 q 656 594 638 608 q 675 554 675 579 q 606 503 675 503 l 356 510 q 258 507 317 510 l 258 369 q 265 97 258 163 q 457 92 363 92 m 619 1208 q 623 1205 619 1208 q 632 1191 626 1201 q 638 1166 638 1181 q 625 1140 638 1151 q 595 1128 613 1128 q 563 1140 578 1128 q 533 1173 547 1153 q 513 1197 518 1193 q 435 1264 457 1264 q 358 1197 414 1264 q 339 1172 353 1193 q 282 1128 306 1128 q 246 1140 258 1128 q 233 1166 233 1151 q 240 1191 233 1181 q 252 1208 246 1201 q 277 1230 258 1214 q 313 1262 296 1246 q 353 1310 329 1278 q 394 1354 378 1342 q 435 1367 410 1367 q 476 1354 460 1367 q 518 1310 493 1342 q 560 1262 543 1278 q 594 1230 576 1246 q 619 1208 613 1214 z "},"":{"ha":817,"x_min":64,"x_max":751,"o":"m 457 92 l 682 99 q 751 46 751 99 q 682 -7 751 -7 l 457 0 q 214 -7 457 0 q 151 46 151 -7 q 155 210 151 94 q 158 504 158 325 q 131 503 146 503 q 64 554 64 503 q 82 593 64 578 q 123 608 100 608 q 158 607 146 608 q 149 944 156 886 q 132 996 132 968 q 206 1049 132 1049 l 474 1042 l 682 1049 q 751 996 751 1049 q 682 943 751 943 l 474 950 q 265 944 315 950 q 258 604 258 763 q 356 601 319 601 l 606 608 q 656 594 638 608 q 675 554 675 579 q 606 503 675 503 l 356 510 q 258 507 317 510 l 258 369 q 265 97 258 163 q 457 92 363 92 m 344 1326 q 359 1326 344 1326 q 388 1308 374 1326 q 401 1260 401 1289 q 382 1203 401 1232 q 333 1175 363 1175 q 290 1194 304 1175 q 275 1246 275 1214 q 295 1302 275 1278 q 344 1326 315 1326 m 567 1326 q 581 1326 567 1326 q 610 1308 596 1326 q 624 1260 624 1289 q 604 1203 624 1232 q 556 1175 585 1175 q 512 1194 526 1175 q 497 1246 497 1214 q 517 1302 497 1278 q 567 1326 538 1326 z "},"":{"ha":606,"x_min":51,"x_max":554,"o":"m 361 92 l 483 99 q 534 84 515 99 q 553 46 553 69 q 533 7 553 22 q 483 -8 514 -8 l 304 0 l 121 -7 q 51 46 51 -7 q 121 99 51 99 q 247 92 136 99 q 254 520 254 404 q 247 949 254 636 q 121 943 125 943 q 54 994 54 943 q 72 1034 54 1019 q 121 1049 90 1049 l 304 1042 q 414 1046 351 1042 q 495 1050 476 1050 q 534 1034 514 1050 q 554 994 554 1018 q 535 956 554 971 q 494 942 515 942 q 361 949 472 942 q 354 517 354 629 q 361 92 354 404 m 363 1144 q 325 1115 363 1115 q 224 1175 288 1115 q 161 1294 161 1235 q 174 1331 161 1315 q 211 1347 186 1347 q 252 1328 236 1347 q 283 1273 268 1308 q 308 1224 297 1238 q 333 1193 318 1211 q 363 1144 363 1161 z "},"":{"ha":606,"x_min":51,"x_max":554,"o":"m 361 92 l 483 99 q 534 84 515 99 q 553 46 553 69 q 533 7 553 22 q 483 -8 514 -8 l 304 0 l 121 -7 q 51 46 51 -7 q 121 99 51 99 q 247 92 136 99 q 254 520 254 404 q 247 949 254 636 q 121 943 125 943 q 54 994 54 943 q 72 1034 54 1019 q 121 1049 90 1049 l 304 1042 q 414 1046 351 1042 q 495 1050 476 1050 q 534 1034 514 1050 q 554 994 554 1018 q 535 956 554 971 q 494 942 515 942 q 361 949 472 942 q 354 517 354 629 q 361 92 354 404 m 446 1294 q 383 1175 446 1235 q 282 1115 319 1115 q 244 1144 244 1115 q 267 1186 244 1161 q 299 1224 289 1211 q 324 1273 310 1238 q 355 1328 339 1308 q 396 1347 371 1347 q 433 1331 421 1347 q 446 1294 446 1315 z "},"":{"ha":606,"x_min":51,"x_max":554,"o":"m 361 92 l 483 99 q 534 84 515 99 q 553 46 553 69 q 533 7 553 22 q 483 -8 514 -8 l 304 0 l 121 -7 q 51 46 51 -7 q 121 99 51 99 q 247 92 136 99 q 254 520 254 404 q 247 949 254 636 q 121 943 125 943 q 54 994 54 943 q 72 1034 54 1019 q 121 1049 90 1049 l 304 1042 q 414 1046 351 1042 q 495 1050 476 1050 q 534 1034 514 1050 q 554 994 554 1018 q 535 956 554 971 q 494 942 515 942 q 361 949 472 942 q 354 517 354 629 q 361 92 354 404 m 489 1208 q 492 1205 489 1208 q 501 1191 496 1201 q 507 1166 507 1181 q 494 1140 507 1151 q 465 1128 482 1128 q 432 1140 447 1128 q 402 1173 417 1153 q 382 1197 388 1193 q 305 1264 326 1264 q 228 1197 283 1264 q 208 1172 222 1193 q 151 1128 175 1128 q 115 1140 128 1128 q 103 1166 103 1151 q 109 1191 103 1181 q 122 1208 115 1201 q 147 1230 128 1214 q 182 1262 165 1246 q 223 1310 199 1278 q 263 1354 247 1342 q 304 1367 279 1367 q 346 1354 329 1367 q 388 1310 363 1342 q 429 1262 413 1278 q 464 1230 446 1246 q 489 1208 482 1214 z "},"":{"ha":606,"x_min":51,"x_max":554,"o":"m 361 92 l 483 99 q 534 84 515 99 q 553 46 553 69 q 533 7 553 22 q 483 -8 514 -8 l 304 0 l 121 -7 q 51 46 51 -7 q 121 99 51 99 q 247 92 136 99 q 254 520 254 404 q 247 949 254 636 q 121 943 125 943 q 54 994 54 943 q 72 1034 54 1019 q 121 1049 90 1049 l 304 1042 q 414 1046 351 1042 q 495 1050 476 1050 q 534 1034 514 1050 q 554 994 554 1018 q 535 956 554 971 q 494 942 515 942 q 361 949 472 942 q 354 517 354 629 q 361 92 354 404 m 199 1326 q 213 1326 199 1326 q 242 1308 228 1326 q 256 1260 256 1289 q 236 1203 256 1232 q 188 1175 217 1175 q 144 1194 158 1175 q 129 1246 129 1214 q 149 1302 129 1278 q 199 1326 169 1326 m 421 1326 q 435 1326 421 1326 q 464 1308 450 1326 q 478 1260 478 1289 q 458 1203 478 1232 q 410 1175 439 1175 q 366 1194 381 1175 q 351 1246 351 1214 q 372 1302 351 1278 q 421 1326 392 1326 z "},"":{"ha":1011,"x_min":10,"x_max":933,"o":"m 186 557 l 179 908 q 113 961 113 908 q 204 1032 113 1008 q 411 1056 296 1056 q 631 1008 526 1056 q 800 883 735 961 q 933 506 933 722 q 804 144 933 297 q 641 24 742 69 q 410 -21 540 -21 q 194 9 281 -21 q 107 86 107 39 q 117 114 107 103 q 146 125 128 125 q 182 115 164 125 l 186 472 q 58 469 75 469 q 26 482 42 469 q 10 515 10 494 q 26 549 10 536 q 70 561 42 561 q 186 557 99 561 m 518 515 q 518 505 518 515 q 502 482 518 494 q 447 469 486 469 q 286 474 407 469 q 294 86 286 239 q 411 78 333 78 q 717 204 608 78 q 825 513 825 331 q 719 818 825 690 q 585 918 668 881 q 397 956 501 956 q 293 943 346 956 q 286 557 286 846 q 461 561 286 557 q 502 549 486 561 q 518 515 518 536 z "},"":{"ha":960,"x_min":135,"x_max":825,"o":"m 825 985 l 818 517 l 821 57 q 803 6 821 25 q 756 -14 786 -14 q 703 24 725 -14 q 653 114 696 35 q 451 473 517 361 q 325 694 385 585 q 242 840 265 803 l 242 517 q 245 176 242 283 q 249 47 249 68 q 232 6 249 26 q 192 -14 215 -14 q 151 6 168 -14 q 135 47 135 26 q 137 133 135 68 q 140 302 139 197 q 142 517 142 407 q 140 733 142 626 q 137 906 139 840 q 135 993 135 972 q 151 1035 135 1014 q 193 1056 168 1056 q 260 1018 238 1056 q 465 653 272 999 q 718 210 657 308 l 718 517 l 711 985 q 728 1035 711 1015 q 768 1056 744 1056 q 808 1035 792 1056 q 825 985 825 1015 m 732 1256 q 697 1173 732 1208 q 613 1138 661 1138 q 499 1176 565 1138 q 403 1214 432 1214 q 356 1193 375 1214 q 321 1151 338 1172 q 284 1129 304 1129 q 250 1144 264 1129 q 236 1179 236 1160 q 281 1265 236 1228 q 383 1301 325 1301 q 512 1263 440 1301 q 613 1224 583 1224 q 667 1259 643 1224 q 703 1294 690 1294 q 724 1283 715 1294 q 732 1256 732 1271 z "},"":{"ha":1075,"x_min":79,"x_max":996,"o":"m 538 81 q 611 81 538 81 q 784 214 685 81 q 883 524 883 347 q 785 831 883 701 q 538 961 686 961 q 290 831 389 961 q 192 524 192 701 q 291 214 192 347 q 538 81 390 81 m 865 906 q 931 827 865 906 q 996 522 996 749 q 864 138 996 296 q 537 -21 732 -21 q 210 138 342 -21 q 79 522 79 296 q 211 905 79 747 q 539 1063 343 1063 q 865 906 735 1063 m 596 1144 q 558 1115 596 1115 q 458 1175 521 1115 q 394 1294 394 1235 q 407 1331 394 1315 q 444 1347 419 1347 q 485 1328 469 1347 q 516 1273 501 1308 q 541 1224 531 1238 q 567 1193 551 1211 q 596 1144 596 1161 z "},"":{"ha":1075,"x_min":79,"x_max":996,"o":"m 538 81 q 611 81 538 81 q 784 214 685 81 q 883 524 883 347 q 785 831 883 701 q 538 961 686 961 q 290 831 389 961 q 192 524 192 701 q 291 214 192 347 q 538 81 390 81 m 865 906 q 931 827 865 906 q 996 522 996 749 q 864 138 996 296 q 537 -21 732 -21 q 210 138 342 -21 q 79 522 79 296 q 211 905 79 747 q 539 1063 343 1063 q 865 906 735 1063 m 679 1294 q 616 1175 679 1235 q 515 1115 553 1115 q 478 1144 478 1115 q 500 1186 478 1161 q 533 1224 522 1211 q 558 1273 543 1238 q 588 1328 572 1308 q 629 1347 604 1347 q 667 1331 654 1347 q 679 1294 679 1315 z "},"":{"ha":1075,"x_min":79,"x_max":996,"o":"m 538 81 q 611 81 538 81 q 784 214 685 81 q 883 524 883 347 q 785 831 883 701 q 538 961 686 961 q 290 831 389 961 q 192 524 192 701 q 291 214 192 347 q 538 81 390 81 m 865 906 q 931 827 865 906 q 996 522 996 749 q 864 138 996 296 q 537 -21 732 -21 q 210 138 342 -21 q 79 522 79 296 q 211 905 79 747 q 539 1063 343 1063 q 865 906 735 1063 m 721 1208 q 724 1205 721 1208 q 733 1191 728 1201 q 739 1166 739 1181 q 726 1140 739 1151 q 697 1128 714 1128 q 664 1140 679 1128 q 634 1173 649 1153 q 614 1197 619 1193 q 537 1264 558 1264 q 460 1197 515 1264 q 439 1172 454 1193 q 383 1128 407 1128 q 347 1140 360 1128 q 335 1166 335 1151 q 341 1191 335 1181 q 353 1208 347 1201 q 378 1230 360 1214 q 414 1262 397 1246 q 455 1310 431 1278 q 495 1354 479 1342 q 536 1367 511 1367 q 578 1354 561 1367 q 619 1310 594 1342 q 661 1262 644 1278 q 696 1230 678 1246 q 721 1208 714 1214 z "},"":{"ha":1075,"x_min":79,"x_max":996,"o":"m 538 81 q 611 81 538 81 q 784 214 685 81 q 883 524 883 347 q 785 831 883 701 q 538 961 686 961 q 290 831 389 961 q 192 524 192 701 q 291 214 192 347 q 538 81 390 81 m 865 906 q 931 827 865 906 q 996 522 996 749 q 864 138 996 296 q 537 -21 732 -21 q 210 138 342 -21 q 79 522 79 296 q 211 905 79 747 q 539 1063 343 1063 q 865 906 735 1063 m 785 1267 q 749 1184 785 1219 q 666 1149 714 1149 q 551 1187 618 1149 q 456 1225 485 1225 q 409 1204 428 1225 q 374 1162 390 1183 q 337 1140 357 1140 q 303 1156 317 1140 q 289 1190 289 1171 q 333 1276 289 1239 q 435 1313 378 1313 q 565 1274 493 1313 q 666 1235 636 1235 q 719 1270 696 1235 q 756 1306 743 1306 q 776 1294 768 1306 q 785 1267 785 1282 z "},"":{"ha":1075,"x_min":79,"x_max":996,"o":"m 538 81 q 611 81 538 81 q 784 214 685 81 q 883 524 883 347 q 785 831 883 701 q 538 961 686 961 q 290 831 389 961 q 192 524 192 701 q 291 214 192 347 q 538 81 390 81 m 865 906 q 931 827 865 906 q 996 522 996 749 q 864 138 996 296 q 537 -21 732 -21 q 210 138 342 -21 q 79 522 79 296 q 211 905 79 747 q 539 1063 343 1063 q 865 906 735 1063 m 432 1326 q 447 1326 432 1326 q 475 1308 461 1326 q 489 1260 489 1289 q 469 1203 489 1232 q 421 1175 450 1175 q 377 1194 392 1175 q 363 1246 363 1214 q 383 1302 363 1278 q 432 1326 403 1326 m 654 1326 q 669 1326 654 1326 q 697 1308 683 1326 q 711 1260 711 1289 q 692 1203 711 1232 q 643 1175 672 1175 q 599 1194 614 1175 q 585 1246 585 1214 q 605 1302 585 1278 q 654 1326 625 1326 z "},"":{"ha":700,"x_min":97,"x_max":603,"o":"m 551 614 q 561 614 551 614 q 585 601 571 614 q 599 569 599 588 q 585 535 599 550 q 542 492 572 521 q 407 357 443 396 q 511 253 446 317 q 590 176 576 189 q 603 144 603 163 q 590 111 603 125 q 557 97 576 97 q 522 113 538 97 q 481 156 506 128 q 350 296 422 219 q 181 113 199 131 q 143 96 163 96 q 110 110 124 96 q 97 142 97 124 q 110 174 97 161 q 154 217 124 188 q 293 356 254 315 q 192 457 257 394 q 115 534 128 519 q 101 567 101 549 q 115 599 101 586 q 149 613 129 613 q 184 597 168 613 q 256 519 200 581 q 350 418 313 457 q 510 592 489 571 q 551 614 532 614 z "},"":{"ha":1049,"x_min":81,"x_max":969,"o":"m 969 522 q 841 138 969 296 q 524 -21 713 -21 q 372 10 444 -21 q 350 -45 367 -1 q 296 -89 333 -89 q 261 -75 275 -89 q 247 -39 247 -61 q 281 64 247 -17 q 134 259 188 138 q 81 522 81 381 q 209 905 81 747 q 526 1063 338 1063 q 672 1033 600 1063 l 686 1068 q 743 1117 707 1117 q 779 1101 767 1117 q 792 1067 792 1086 q 765 981 792 1047 q 915 787 860 908 q 969 522 969 665 m 721 878 q 410 108 550 479 q 525 81 463 81 q 762 214 667 81 q 857 522 857 347 q 821 722 857 628 q 721 878 785 817 m 478 531 l 636 936 q 525 961 585 961 q 288 831 382 961 q 193 522 193 701 q 228 326 193 419 q 325 169 264 232 q 478 531 392 319 z "},"":{"ha":949,"x_min":126,"x_max":822,"o":"m 724 85 q 680 32 724 85 q 474 -21 636 -21 q 224 85 311 -21 q 135 343 138 192 q 126 998 126 979 q 142 1036 126 1017 q 183 1056 157 1056 q 225 1036 210 1056 q 240 994 240 1017 q 239 900 240 972 q 233 568 233 729 q 238 356 233 407 q 258 249 243 304 q 297 158 272 193 q 474 76 357 76 q 671 192 619 76 q 715 456 715 292 q 712 801 715 621 q 708 985 708 982 q 724 1036 708 1017 q 765 1056 739 1056 q 807 1036 792 1056 q 822 985 822 1017 q 814 342 822 724 q 724 85 811 190 m 547 1144 q 510 1115 547 1115 q 409 1175 472 1115 q 346 1294 346 1235 q 358 1331 346 1315 q 396 1347 371 1347 q 437 1328 421 1347 q 467 1273 453 1308 q 492 1224 482 1238 q 519 1193 503 1211 q 547 1144 547 1161 z "},"":{"ha":949,"x_min":126,"x_max":822,"o":"m 724 85 q 680 32 724 85 q 474 -21 636 -21 q 224 85 311 -21 q 135 343 138 192 q 126 998 126 979 q 142 1036 126 1017 q 183 1056 157 1056 q 225 1036 210 1056 q 240 994 240 1017 q 239 900 240 972 q 233 568 233 729 q 238 356 233 407 q 258 249 243 304 q 297 158 272 193 q 474 76 357 76 q 671 192 619 76 q 715 456 715 292 q 712 801 715 621 q 708 985 708 982 q 724 1036 708 1017 q 765 1056 739 1056 q 807 1036 792 1056 q 822 985 822 1017 q 814 342 822 724 q 724 85 811 190 m 617 1294 q 553 1175 617 1235 q 453 1115 490 1115 q 415 1144 415 1115 q 438 1186 415 1161 q 470 1224 460 1211 q 495 1273 481 1238 q 526 1328 510 1308 q 567 1347 542 1347 q 604 1331 592 1347 q 617 1294 617 1315 z "},"":{"ha":949,"x_min":126,"x_max":822,"o":"m 724 85 q 680 32 724 85 q 474 -21 636 -21 q 224 85 311 -21 q 135 343 138 192 q 126 998 126 979 q 142 1036 126 1017 q 183 1056 157 1056 q 225 1036 210 1056 q 240 994 240 1017 q 239 900 240 972 q 233 568 233 729 q 238 356 233 407 q 258 249 243 304 q 297 158 272 193 q 474 76 357 76 q 671 192 619 76 q 715 456 715 292 q 712 801 715 621 q 708 985 708 982 q 724 1036 708 1017 q 765 1056 739 1056 q 807 1036 792 1056 q 822 985 822 1017 q 814 342 822 724 q 724 85 811 190 m 661 1208 q 665 1205 661 1208 q 674 1191 668 1201 q 679 1166 679 1181 q 667 1140 679 1151 q 637 1128 654 1128 q 604 1140 619 1128 q 574 1173 589 1153 q 554 1197 560 1193 q 477 1264 499 1264 q 400 1197 456 1264 q 381 1172 394 1193 q 324 1128 347 1128 q 288 1140 300 1128 q 275 1166 275 1151 q 281 1191 275 1181 q 294 1208 288 1201 q 319 1230 300 1214 q 354 1262 338 1246 q 395 1310 371 1278 q 435 1354 419 1342 q 476 1367 451 1367 q 518 1354 501 1367 q 560 1310 535 1342 q 601 1262 585 1278 q 636 1230 618 1246 q 661 1208 654 1214 z "},"":{"ha":949,"x_min":126,"x_max":822,"o":"m 724 85 q 680 32 724 85 q 474 -21 636 -21 q 224 85 311 -21 q 135 343 138 192 q 126 998 126 979 q 142 1036 126 1017 q 183 1056 157 1056 q 225 1036 210 1056 q 240 994 240 1017 q 239 900 240 972 q 233 568 233 729 q 238 356 233 407 q 258 249 243 304 q 297 158 272 193 q 474 76 357 76 q 671 192 619 76 q 715 456 715 292 q 712 801 715 621 q 708 985 708 982 q 724 1036 708 1017 q 765 1056 739 1056 q 807 1036 792 1056 q 822 985 822 1017 q 814 342 822 724 q 724 85 811 190 m 371 1326 q 385 1326 371 1326 q 414 1308 400 1326 q 428 1260 428 1289 q 408 1203 428 1232 q 360 1175 389 1175 q 316 1194 331 1175 q 301 1246 301 1214 q 322 1302 301 1278 q 371 1326 342 1326 m 593 1326 q 608 1326 593 1326 q 636 1308 622 1326 q 650 1260 650 1289 q 631 1203 650 1232 q 582 1175 611 1175 q 538 1194 553 1175 q 524 1246 524 1214 q 544 1302 524 1278 q 593 1326 564 1326 z "},"":{"ha":769,"x_min":21,"x_max":749,"o":"m 329 56 q 331 119 329 65 q 336 436 336 246 l 183 704 q 128 799 157 750 l 82 875 q 28 972 36 953 q 21 1008 21 992 q 33 1040 21 1025 q 67 1056 46 1056 q 101 1044 88 1056 q 132 1006 115 1033 q 164 947 149 978 q 390 543 268 733 q 603 919 518 744 q 624 962 613 940 q 642 996 636 983 q 656 1020 649 1008 q 669 1038 664 1032 q 681 1047 674 1043 q 708 1056 690 1056 q 737 1043 725 1056 q 749 1015 749 1031 q 744 984 749 999 q 726 943 740 969 q 699 894 713 917 q 655 818 686 871 q 599 721 624 765 l 436 436 q 440 153 436 243 q 443 56 443 63 q 386 -14 443 -14 q 329 56 329 -14 m 539 1294 q 476 1175 539 1235 q 375 1115 413 1115 q 338 1144 338 1115 q 360 1186 338 1161 q 392 1224 382 1211 q 417 1273 403 1238 q 448 1328 432 1308 q 489 1347 464 1347 q 526 1331 514 1347 q 539 1294 539 1315 z "},"":{"ha":788,"x_min":136,"x_max":749,"o":"m 143 521 l 136 986 q 189 1056 136 1056 q 242 986 242 1056 q 238 840 242 961 q 401 864 304 864 q 653 781 557 864 q 749 572 749 697 q 653 363 749 446 q 400 279 557 279 q 236 303 303 279 l 242 56 q 189 -14 242 -14 q 136 56 136 -14 l 143 521 m 408 367 q 458 367 408 367 q 576 423 507 367 q 644 572 644 479 q 576 720 644 664 q 410 776 508 776 q 239 754 311 776 q 236 572 236 696 q 238 389 236 447 q 408 367 310 367 z "},"":{"ha":756,"x_min":28,"x_max":715,"o":"m 81 697 l 150 694 l 150 813 q 213 999 150 942 q 376 1056 275 1056 q 535 998 478 1056 q 592 854 592 940 q 568 749 592 799 q 515 669 544 699 q 439 551 439 596 q 467 472 439 506 q 537 413 496 439 q 618 359 578 388 q 687 285 658 331 q 715 182 715 240 q 657 42 715 97 q 519 -14 599 -14 q 383 18 439 -14 q 326 88 326 50 q 372 135 326 135 q 425 106 383 135 q 508 76 467 76 q 581 104 549 76 q 614 174 614 132 q 593 247 614 217 q 542 297 572 278 q 474 342 511 317 q 407 391 438 367 q 356 455 376 415 q 335 538 335 494 q 358 624 335 582 q 411 696 382 665 q 488 836 488 776 q 456 929 488 896 q 370 963 424 963 q 284 928 317 963 q 251 800 251 893 l 251 57 q 237 6 251 25 q 197 -14 222 -14 q 158 6 172 -14 q 143 47 143 25 q 144 133 143 68 q 151 521 151 329 l 151 614 l 81 611 q 28 653 28 611 q 43 686 28 675 q 81 697 58 697 z "},"":{"ha":793,"x_min":67,"x_max":742,"o":"m 649 336 q 664 166 649 232 q 700 92 679 100 q 720 86 708 88 q 737 82 732 85 q 742 71 742 79 q 722 10 742 33 q 661 -14 701 -14 q 599 38 621 -14 q 576 169 576 89 q 474 39 542 92 q 323 -14 407 -14 q 178 42 239 -14 q 67 332 67 143 q 154 596 67 483 q 379 708 242 708 q 560 638 483 708 q 613 708 560 708 q 676 610 676 708 q 649 336 676 513 m 568 324 l 561 538 q 387 618 478 618 q 231 536 296 618 q 165 340 165 454 q 208 151 165 225 q 328 76 250 76 q 469 146 406 76 q 568 324 533 215 m 469 853 q 432 824 469 824 q 331 883 394 824 q 268 1003 268 943 q 281 1040 268 1024 q 318 1056 293 1056 q 359 1036 343 1056 q 390 981 375 1017 q 415 933 404 946 q 440 901 425 919 q 469 853 469 869 z "},"":{"ha":793,"x_min":67,"x_max":742,"o":"m 649 336 q 664 166 649 232 q 700 92 679 100 q 720 86 708 88 q 737 82 732 85 q 742 71 742 79 q 722 10 742 33 q 661 -14 701 -14 q 599 38 621 -14 q 576 169 576 89 q 474 39 542 92 q 323 -14 407 -14 q 178 42 239 -14 q 67 332 67 143 q 154 596 67 483 q 379 708 242 708 q 560 638 483 708 q 613 708 560 708 q 676 610 676 708 q 649 336 676 513 m 568 324 l 561 538 q 387 618 478 618 q 231 536 296 618 q 165 340 165 454 q 208 151 165 225 q 328 76 250 76 q 469 146 406 76 q 568 324 533 215 m 539 1003 q 476 883 539 943 q 375 824 413 824 q 338 853 338 824 q 360 894 338 869 q 392 933 382 919 q 417 981 403 946 q 448 1036 432 1017 q 489 1056 464 1056 q 526 1040 514 1056 q 539 1003 539 1024 z "},"":{"ha":793,"x_min":67,"x_max":742,"o":"m 649 336 q 664 166 649 232 q 700 92 679 100 q 720 86 708 88 q 737 82 732 85 q 742 71 742 79 q 722 10 742 33 q 661 -14 701 -14 q 599 38 621 -14 q 576 169 576 89 q 474 39 542 92 q 323 -14 407 -14 q 178 42 239 -14 q 67 332 67 143 q 154 596 67 483 q 379 708 242 708 q 560 638 483 708 q 613 708 560 708 q 676 610 676 708 q 649 336 676 513 m 568 324 l 561 538 q 387 618 478 618 q 231 536 296 618 q 165 340 165 454 q 208 151 165 225 q 328 76 250 76 q 469 146 406 76 q 568 324 533 215 m 581 897 q 584 893 581 897 q 593 880 588 890 q 599 855 599 869 q 586 828 599 840 q 556 817 574 817 q 524 829 539 817 q 494 862 508 842 q 474 886 479 882 q 397 953 418 953 q 319 886 375 953 q 300 861 314 882 q 243 817 267 817 q 207 828 219 817 q 194 855 194 840 q 201 880 194 869 q 213 897 207 890 q 238 919 219 903 q 274 951 257 935 q 315 999 290 967 q 355 1043 339 1031 q 396 1056 371 1056 q 438 1043 421 1056 q 479 999 454 1031 q 521 951 504 967 q 556 919 538 935 q 581 897 574 903 z "},"":{"ha":793,"x_min":67,"x_max":742,"o":"m 649 336 q 664 166 649 232 q 700 92 679 100 q 720 86 708 88 q 737 82 732 85 q 742 71 742 79 q 722 10 742 33 q 661 -14 701 -14 q 599 38 621 -14 q 576 169 576 89 q 474 39 542 92 q 323 -14 407 -14 q 178 42 239 -14 q 67 332 67 143 q 154 596 67 483 q 379 708 242 708 q 560 638 483 708 q 613 708 560 708 q 676 610 676 708 q 649 336 676 513 m 568 324 l 561 538 q 387 618 478 618 q 231 536 296 618 q 165 340 165 454 q 208 151 165 225 q 328 76 250 76 q 469 146 406 76 q 568 324 533 215 m 672 947 q 637 865 672 900 q 553 829 601 829 q 439 867 506 829 q 344 906 372 906 q 297 885 315 906 q 261 842 278 864 q 224 821 244 821 q 190 836 204 821 q 176 871 176 851 q 221 956 176 919 q 323 993 265 993 q 452 954 381 993 q 553 915 524 915 q 607 951 583 915 q 643 986 631 986 q 664 974 656 986 q 672 947 672 963 z "},"":{"ha":793,"x_min":67,"x_max":742,"o":"m 649 336 q 664 166 649 232 q 700 92 679 100 q 720 86 708 88 q 737 82 732 85 q 742 71 742 79 q 722 10 742 33 q 661 -14 701 -14 q 599 38 621 -14 q 576 169 576 89 q 474 39 542 92 q 323 -14 407 -14 q 178 42 239 -14 q 67 332 67 143 q 154 596 67 483 q 379 708 242 708 q 560 638 483 708 q 613 708 560 708 q 676 610 676 708 q 649 336 676 513 m 568 324 l 561 538 q 387 618 478 618 q 231 536 296 618 q 165 340 165 454 q 208 151 165 225 q 328 76 250 76 q 469 146 406 76 q 568 324 533 215 m 292 1007 q 306 1007 292 1007 q 335 988 321 1007 q 349 941 349 969 q 329 884 349 913 q 281 856 310 856 q 237 875 251 856 q 222 926 222 894 q 242 983 222 958 q 292 1007 263 1007 m 514 1007 q 528 1007 514 1007 q 557 988 543 1007 q 571 941 571 969 q 551 884 571 913 q 503 856 532 856 q 459 875 474 856 q 444 926 444 894 q 465 983 444 958 q 514 1007 485 1007 z "},"":{"ha":793,"x_min":67,"x_max":742,"o":"m 649 336 q 664 166 649 232 q 700 92 679 100 q 720 86 708 88 q 737 82 732 85 q 742 71 742 79 q 722 10 742 33 q 661 -14 701 -14 q 599 38 621 -14 q 576 169 576 89 q 474 39 542 92 q 323 -14 407 -14 q 178 42 239 -14 q 67 332 67 143 q 154 596 67 483 q 379 708 242 708 q 560 638 483 708 q 613 708 560 708 q 676 610 676 708 q 649 336 676 513 m 568 324 l 561 538 q 387 618 478 618 q 231 536 296 618 q 165 340 165 454 q 208 151 165 225 q 328 76 250 76 q 469 146 406 76 q 568 324 533 215 m 481 1024 q 499 1005 481 1024 q 517 931 517 986 q 482 838 517 875 q 390 800 447 800 q 299 837 333 800 q 264 930 264 874 q 300 1024 264 986 q 390 1063 336 1063 q 481 1024 444 1063 m 390 865 q 403 865 390 865 q 433 885 415 865 q 451 931 451 906 q 433 977 451 957 q 390 997 414 997 q 348 977 367 997 q 329 931 329 957 q 347 885 329 906 q 390 865 365 865 z "},"":{"ha":1163,"x_min":54,"x_max":1094,"o":"m 331 349 q 288 349 331 349 q 199 306 244 349 q 153 206 153 264 q 199 110 153 149 q 316 71 244 71 q 449 135 388 71 q 511 315 511 200 q 331 349 418 349 m 854 715 q 1024 653 954 715 q 1094 490 1094 590 q 1008 338 1094 390 q 808 286 921 286 q 618 301 694 286 q 691 138 626 207 q 835 69 756 69 q 922 83 882 69 q 983 111 963 96 q 1056 154 1039 154 q 1084 144 1074 154 q 1094 118 1094 133 q 1015 29 1094 79 q 842 -21 935 -21 q 567 147 656 -21 q 301 -21 481 -21 q 126 44 197 -21 q 54 207 54 108 q 128 372 54 306 q 297 439 203 439 q 514 404 392 439 q 463 573 514 522 q 333 624 413 624 q 263 611 294 624 q 214 583 231 599 q 146 542 171 542 q 99 585 99 542 q 169 672 99 629 q 331 715 240 715 q 487 673 422 715 q 585 561 551 631 q 854 715 685 715 m 788 374 q 835 374 788 374 q 940 406 883 374 q 996 492 996 438 q 959 585 996 546 q 854 625 922 625 q 700 555 763 625 q 619 392 638 485 q 788 374 692 374 z "},"":{"ha":707,"x_min":64,"x_max":654,"o":"m 553 -190 q 504 -283 553 -246 q 388 -319 456 -319 q 278 -287 319 -319 q 236 -222 236 -256 q 243 -204 236 -212 q 261 -196 250 -196 q 309 -213 272 -196 q 377 -231 346 -231 q 430 -218 408 -231 q 451 -189 451 -206 q 431 -156 451 -172 q 385 -124 410 -139 q 339 -78 360 -108 q 318 -8 318 -47 q 134 119 204 21 q 64 359 64 218 q 162 608 64 500 q 419 715 260 715 q 574 676 507 715 q 642 594 642 636 q 628 558 642 572 q 596 543 614 543 q 554 564 578 543 q 407 625 482 625 q 240 544 311 625 q 168 349 168 464 q 240 151 168 233 q 419 69 313 69 q 579 125 501 69 q 619 143 606 143 q 654 106 654 143 q 575 25 654 69 q 407 -21 496 -19 q 483 -97 411 -60 q 531 -135 510 -111 q 553 -190 553 -160 z "},"":{"ha":749,"x_min":33,"x_max":681,"o":"m 376 374 q 423 374 376 374 q 526 406 469 374 q 582 492 582 438 q 545 585 582 546 q 440 625 508 625 q 286 556 349 625 q 206 396 224 488 q 376 374 282 374 m 428 715 q 484 715 428 715 q 610 653 540 715 q 681 490 681 590 q 594 338 681 390 q 381 286 507 286 q 204 307 308 286 q 277 140 213 210 q 421 69 342 69 q 508 83 468 69 q 569 111 549 96 q 642 154 625 154 q 670 144 660 154 q 681 118 681 133 q 601 29 681 79 q 428 -21 521 -21 q 199 81 283 -21 q 107 325 114 182 q 33 397 33 347 q 45 430 33 418 q 74 442 57 442 q 115 429 90 442 q 231 635 146 554 q 428 715 317 715 m 467 853 q 429 824 467 824 q 328 883 392 824 q 265 1003 265 943 q 278 1040 265 1024 q 315 1056 290 1056 q 356 1036 340 1056 q 387 981 372 1017 q 412 933 401 946 q 438 901 422 919 q 467 853 467 869 z "},"":{"ha":749,"x_min":33,"x_max":681,"o":"m 376 374 q 423 374 376 374 q 526 406 469 374 q 582 492 582 438 q 545 585 582 546 q 440 625 508 625 q 286 556 349 625 q 206 396 224 488 q 376 374 282 374 m 428 715 q 484 715 428 715 q 610 653 540 715 q 681 490 681 590 q 594 338 681 390 q 381 286 507 286 q 204 307 308 286 q 277 140 213 210 q 421 69 342 69 q 508 83 468 69 q 569 111 549 96 q 642 154 625 154 q 670 144 660 154 q 681 118 681 133 q 601 29 681 79 q 428 -21 521 -21 q 199 81 283 -21 q 107 325 114 182 q 33 397 33 347 q 45 430 33 418 q 74 442 57 442 q 115 429 90 442 q 231 635 146 554 q 428 715 317 715 m 554 1003 q 491 883 554 943 q 390 824 428 824 q 353 853 353 824 q 375 894 353 869 q 408 933 397 919 q 433 981 418 946 q 463 1036 447 1017 q 504 1056 479 1056 q 542 1040 529 1056 q 554 1003 554 1024 z "},"":{"ha":749,"x_min":33,"x_max":681,"o":"m 376 374 q 423 374 376 374 q 526 406 469 374 q 582 492 582 438 q 545 585 582 546 q 440 625 508 625 q 286 556 349 625 q 206 396 224 488 q 376 374 282 374 m 428 715 q 484 715 428 715 q 610 653 540 715 q 681 490 681 590 q 594 338 681 390 q 381 286 507 286 q 204 307 308 286 q 277 140 213 210 q 421 69 342 69 q 508 83 468 69 q 569 111 549 96 q 642 154 625 154 q 670 144 660 154 q 681 118 681 133 q 601 29 681 79 q 428 -21 521 -21 q 199 81 283 -21 q 107 325 114 182 q 33 397 33 347 q 45 430 33 418 q 74 442 57 442 q 115 429 90 442 q 231 635 146 554 q 428 715 317 715 m 599 897 q 602 893 599 897 q 611 880 606 890 q 617 855 617 869 q 604 828 617 840 q 574 817 592 817 q 542 829 557 817 q 512 862 526 842 q 492 886 497 882 q 415 953 436 953 q 338 886 393 953 q 317 861 332 882 q 261 817 285 817 q 225 828 238 817 q 213 855 213 840 q 219 880 213 869 q 231 897 225 890 q 256 919 238 903 q 292 951 275 935 q 333 999 308 967 q 373 1043 357 1031 q 414 1056 389 1056 q 456 1043 439 1056 q 497 999 472 1031 q 539 951 522 967 q 574 919 556 935 q 599 897 592 903 z "},"":{"ha":749,"x_min":33,"x_max":681,"o":"m 376 374 q 423 374 376 374 q 526 406 469 374 q 582 492 582 438 q 545 585 582 546 q 440 625 508 625 q 286 556 349 625 q 206 396 224 488 q 376 374 282 374 m 428 715 q 484 715 428 715 q 610 653 540 715 q 681 490 681 590 q 594 338 681 390 q 381 286 507 286 q 204 307 308 286 q 277 140 213 210 q 421 69 342 69 q 508 83 468 69 q 569 111 549 96 q 642 154 625 154 q 670 144 660 154 q 681 118 681 133 q 601 29 681 79 q 428 -21 521 -21 q 199 81 283 -21 q 107 325 114 182 q 33 397 33 347 q 45 430 33 418 q 74 442 57 442 q 115 429 90 442 q 231 635 146 554 q 428 715 317 715 m 314 1007 q 328 1007 314 1007 q 357 988 343 1007 q 371 941 371 969 q 351 884 371 913 q 303 856 332 856 q 259 875 274 856 q 244 926 244 894 q 265 983 244 958 q 314 1007 285 1007 m 536 1007 q 551 1007 536 1007 q 579 988 565 1007 q 593 941 593 969 q 574 884 593 913 q 525 856 554 856 q 481 875 496 856 q 467 926 467 894 q 487 983 467 958 q 536 1007 507 1007 z "},"":{"ha":311,"x_min":42,"x_max":243,"o":"m 201 347 l 208 56 q 156 -14 208 -14 q 103 56 103 -14 l 110 347 q 103 639 110 347 q 156 708 103 708 q 208 639 208 708 l 201 347 m 243 853 q 206 824 243 824 q 105 883 168 824 q 42 1003 42 943 q 54 1040 42 1024 q 92 1056 67 1056 q 133 1036 117 1056 q 163 981 149 1017 q 188 933 178 946 q 214 901 199 919 q 243 853 243 869 z "},"":{"ha":311,"x_min":68,"x_max":269,"o":"m 201 347 l 208 56 q 156 -14 208 -14 q 103 56 103 -14 l 110 347 q 103 639 110 347 q 156 708 103 708 q 208 639 208 708 l 201 347 m 269 1003 q 206 883 269 943 q 106 824 143 824 q 68 853 68 824 q 90 894 68 869 q 123 933 113 919 q 148 981 133 946 q 178 1036 163 1017 q 219 1056 194 1056 q 257 1040 244 1056 q 269 1003 269 1024 z "},"":{"ha":311,"x_min":-46,"x_max":358,"o":"m 201 347 l 208 56 q 156 -14 208 -14 q 103 56 103 -14 l 110 347 q 103 639 110 347 q 156 708 103 708 q 208 639 208 708 l 201 347 m 340 897 q 344 893 340 897 q 353 880 347 890 q 358 855 358 869 q 346 828 358 840 q 316 817 333 817 q 283 829 299 817 q 253 862 268 842 q 233 886 239 882 q 156 953 178 953 q 79 886 135 953 q 58 861 74 882 q 3 817 26 817 q -33 828 -21 817 q -46 855 -46 840 q -40 880 -46 869 q -27 897 -33 890 q -2 919 -21 903 q 33 951 17 935 q 74 999 50 967 q 115 1043 99 1031 q 156 1056 131 1056 q 197 1043 181 1056 q 239 999 214 1031 q 281 951 264 967 q 315 919 297 935 q 340 897 333 903 z "},"":{"ha":311,"x_min":-18,"x_max":331,"o":"m 201 347 l 208 56 q 156 -14 208 -14 q 103 56 103 -14 l 110 347 q 103 639 110 347 q 156 708 103 708 q 208 639 208 708 l 201 347 m 51 1007 q 66 1007 51 1007 q 94 988 81 1007 q 108 941 108 969 q 89 884 108 913 q 40 856 69 856 q -3 875 11 856 q -18 926 -18 894 q 2 983 -18 958 q 51 1007 22 1007 m 274 1007 q 288 1007 274 1007 q 317 988 303 1007 q 331 941 331 969 q 311 884 331 913 q 263 856 292 856 q 219 875 233 856 q 204 926 204 894 q 224 983 204 958 q 274 1007 244 1007 z "},"":{"ha":794,"x_min":67,"x_max":708,"o":"m 708 418 q 626 106 708 225 q 379 -14 543 -14 q 153 92 240 -14 q 67 335 67 197 q 144 575 67 472 q 358 678 222 678 q 500 644 436 678 q 599 564 564 610 q 438 850 564 740 q 389 803 413 828 q 356 769 365 779 q 312 746 332 746 q 279 758 292 746 q 267 783 267 769 q 270 805 267 797 q 284 823 274 813 q 304 841 294 833 q 335 865 314 849 q 374 896 357 882 q 242 938 315 931 q 197 944 211 940 q 164 986 164 953 q 181 1016 164 1003 q 231 1029 199 1029 q 443 964 329 1029 q 487 1005 464 982 q 519 1036 510 1028 q 565 1060 544 1060 q 599 1048 586 1060 q 611 1022 611 1036 q 608 999 611 1007 q 596 981 606 992 q 578 964 586 971 q 549 940 569 957 q 511 910 528 924 q 657 692 606 824 q 708 418 708 561 m 382 75 q 428 75 382 75 q 536 149 474 75 q 599 327 599 224 q 536 510 599 431 q 377 589 474 589 q 224 517 281 589 q 167 335 167 444 q 228 151 167 226 q 382 75 290 75 z "},"":{"ha":804,"x_min":94,"x_max":754,"o":"m 689 438 l 682 219 q 683 160 682 181 q 691 119 683 140 q 710 92 699 97 q 733 86 721 88 q 749 82 744 85 q 754 71 754 79 q 731 10 754 35 q 678 -14 708 -14 q 605 28 625 -14 q 585 150 585 69 l 590 406 q 550 558 590 500 q 438 617 510 617 q 300 538 367 617 q 207 358 233 458 l 211 57 q 158 -14 211 -14 q 94 84 94 -14 q 122 358 94 182 q 110 519 122 417 q 99 647 99 622 q 113 690 99 671 q 153 708 128 708 q 192 690 178 708 q 207 647 207 671 q 206 590 207 624 q 206 532 206 556 q 456 708 307 708 q 628 629 567 708 q 689 438 689 550 m 640 947 q 605 865 640 900 q 522 829 569 829 q 407 867 474 829 q 312 906 340 906 q 265 885 283 906 q 229 842 246 864 q 192 821 213 821 q 158 836 172 821 q 144 871 144 851 q 189 956 144 919 q 291 993 233 993 q 420 954 349 993 q 522 915 492 915 q 575 951 551 915 q 611 986 599 986 q 632 974 624 986 q 640 947 640 963 z "},"":{"ha":781,"x_min":64,"x_max":717,"o":"m 551 151 q 584 192 551 151 q 618 349 618 233 q 553 544 618 464 q 393 625 489 625 q 230 543 297 625 q 163 346 163 461 q 227 150 163 231 q 388 69 292 69 q 551 151 483 69 m 391 715 q 462 715 391 715 q 625 609 533 715 q 717 349 717 503 q 624 87 717 194 q 389 -21 531 -21 q 156 85 247 -21 q 64 346 64 192 q 156 608 64 500 q 391 715 249 715 m 463 853 q 425 824 463 824 q 324 883 388 824 q 261 1003 261 943 q 274 1040 261 1024 q 311 1056 286 1056 q 352 1036 336 1056 q 383 981 368 1017 q 408 933 397 946 q 433 901 418 919 q 463 853 463 869 z "},"":{"ha":781,"x_min":64,"x_max":717,"o":"m 551 151 q 584 192 551 151 q 618 349 618 233 q 553 544 618 464 q 393 625 489 625 q 230 543 297 625 q 163 346 163 461 q 227 150 163 231 q 388 69 292 69 q 551 151 483 69 m 391 715 q 462 715 391 715 q 625 609 533 715 q 717 349 717 503 q 624 87 717 194 q 389 -21 531 -21 q 156 85 247 -21 q 64 346 64 192 q 156 608 64 500 q 391 715 249 715 m 532 1003 q 469 883 532 943 q 368 824 406 824 q 331 853 331 824 q 353 894 331 869 q 385 933 375 919 q 410 981 396 946 q 441 1036 425 1017 q 482 1056 457 1056 q 519 1040 507 1056 q 532 1003 532 1024 z "},"":{"ha":781,"x_min":64,"x_max":717,"o":"m 551 151 q 584 192 551 151 q 618 349 618 233 q 553 544 618 464 q 393 625 489 625 q 230 543 297 625 q 163 346 163 461 q 227 150 163 231 q 388 69 292 69 q 551 151 483 69 m 391 715 q 462 715 391 715 q 625 609 533 715 q 717 349 717 503 q 624 87 717 194 q 389 -21 531 -21 q 156 85 247 -21 q 64 346 64 192 q 156 608 64 500 q 391 715 249 715 m 574 897 q 577 893 574 897 q 586 880 581 890 q 592 855 592 869 q 579 828 592 840 q 549 817 567 817 q 517 829 532 817 q 487 862 501 842 q 467 886 472 882 q 390 953 411 953 q 313 886 368 953 q 293 861 307 882 q 236 817 260 817 q 200 828 213 817 q 188 855 188 840 q 194 880 188 869 q 206 897 200 890 q 231 919 213 903 q 267 951 250 935 q 308 999 283 967 q 348 1043 332 1031 q 389 1056 364 1056 q 431 1043 414 1056 q 472 999 447 1031 q 514 951 497 967 q 549 919 531 935 q 574 897 567 903 z "},"":{"ha":781,"x_min":64,"x_max":717,"o":"m 551 151 q 584 192 551 151 q 618 349 618 233 q 553 544 618 464 q 393 625 489 625 q 230 543 297 625 q 163 346 163 461 q 227 150 163 231 q 388 69 292 69 q 551 151 483 69 m 391 715 q 462 715 391 715 q 625 609 533 715 q 717 349 717 503 q 624 87 717 194 q 389 -21 531 -21 q 156 85 247 -21 q 64 346 64 192 q 156 608 64 500 q 391 715 249 715 m 638 947 q 602 865 638 900 q 519 829 567 829 q 404 867 471 829 q 309 906 338 906 q 262 885 281 906 q 226 842 243 864 q 190 821 210 821 q 156 836 169 821 q 142 871 142 851 q 186 956 142 919 q 288 993 231 993 q 417 954 346 993 q 519 915 489 915 q 572 951 549 915 q 608 986 596 986 q 629 974 621 986 q 638 947 638 963 z "},"":{"ha":781,"x_min":64,"x_max":717,"o":"m 551 151 q 584 192 551 151 q 618 349 618 233 q 553 544 618 464 q 393 625 489 625 q 230 543 297 625 q 163 346 163 461 q 227 150 163 231 q 388 69 292 69 q 551 151 483 69 m 391 715 q 462 715 391 715 q 625 609 533 715 q 717 349 717 503 q 624 87 717 194 q 389 -21 531 -21 q 156 85 247 -21 q 64 346 64 192 q 156 608 64 500 q 391 715 249 715 m 285 1007 q 299 1007 285 1007 q 328 988 314 1007 q 342 941 342 969 q 322 884 342 913 q 274 856 303 856 q 230 875 244 856 q 215 926 215 894 q 235 983 215 958 q 285 1007 256 1007 m 507 1007 q 522 1007 507 1007 q 550 988 536 1007 q 564 941 564 969 q 544 884 564 913 q 496 856 525 856 q 452 875 467 856 q 438 926 438 894 q 458 983 438 958 q 507 1007 478 1007 z "},"":{"ha":775,"x_min":85,"x_max":690,"o":"m 388 404 l 633 408 q 674 396 658 408 q 690 363 690 383 q 674 329 690 342 q 633 317 658 317 l 388 321 l 142 317 q 101 329 117 317 q 85 363 85 342 q 101 396 85 383 q 142 408 117 408 q 388 404 142 408 m 392 210 q 407 210 392 210 q 435 190 421 210 q 450 138 450 169 q 431 81 450 107 q 383 56 411 56 q 340 77 356 56 q 325 129 325 99 q 344 185 325 160 q 392 210 364 210 m 392 669 q 407 669 392 669 q 435 649 421 669 q 450 598 450 629 q 431 541 450 567 q 383 515 411 515 q 340 537 356 515 q 325 589 325 558 q 344 644 325 619 q 392 669 364 669 z "},"":{"ha":781,"x_min":64,"x_max":717,"o":"m 717 347 q 624 87 717 194 q 390 -21 531 -21 q 301 -8 351 -21 l 276 -78 q 219 -126 257 -126 q 185 -111 199 -126 q 171 -75 171 -96 q 208 36 171 -54 q 102 167 140 85 q 64 347 64 249 q 156 608 64 500 q 389 715 249 715 q 476 703 435 715 q 500 767 483 722 q 557 815 521 815 q 592 801 578 815 q 606 763 606 786 q 569 658 606 739 q 678 528 639 610 q 717 347 717 446 m 389 69 q 551 151 483 69 q 618 360 618 233 q 531 569 618 486 q 333 76 446 374 q 389 69 364 69 m 249 126 q 446 617 351 361 q 392 625 421 625 q 230 543 297 625 q 163 333 163 461 q 249 126 163 206 z "},"":{"ha":811,"x_min":86,"x_max":760,"o":"m 210 594 l 199 289 q 239 135 199 194 q 351 76 279 76 q 489 156 422 76 q 582 336 556 236 l 578 638 q 631 708 578 708 q 694 610 694 708 q 667 336 694 513 q 682 166 667 232 q 718 92 697 100 q 738 86 726 88 q 755 82 750 85 q 760 71 760 79 q 737 10 760 33 q 679 -14 714 -14 q 592 164 592 -14 q 333 -14 489 -14 q 161 69 222 -14 q 100 271 100 151 l 108 481 q 97 584 108 536 q 86 653 86 632 q 103 691 86 674 q 146 708 119 708 q 210 594 210 708 m 450 853 q 413 824 450 824 q 312 883 375 824 q 249 1003 249 943 q 261 1040 249 1024 q 299 1056 274 1056 q 340 1036 324 1056 q 370 981 356 1017 q 395 933 385 946 q 421 901 406 919 q 450 853 450 869 z "},"":{"ha":811,"x_min":86,"x_max":760,"o":"m 210 594 l 199 289 q 239 135 199 194 q 351 76 279 76 q 489 156 422 76 q 582 336 556 236 l 578 638 q 631 708 578 708 q 694 610 694 708 q 667 336 694 513 q 682 166 667 232 q 718 92 697 100 q 738 86 726 88 q 755 82 750 85 q 760 71 760 79 q 737 10 760 33 q 679 -14 714 -14 q 592 164 592 -14 q 333 -14 489 -14 q 161 69 222 -14 q 100 271 100 151 l 108 481 q 97 584 108 536 q 86 653 86 632 q 103 691 86 674 q 146 708 119 708 q 210 594 210 708 m 533 1003 q 470 883 533 943 q 369 824 407 824 q 332 853 332 824 q 354 894 332 869 q 387 933 376 919 q 412 981 397 946 q 442 1036 426 1017 q 483 1056 458 1056 q 521 1040 508 1056 q 533 1003 533 1024 z "},"":{"ha":811,"x_min":86,"x_max":760,"o":"m 210 594 l 199 289 q 239 135 199 194 q 351 76 279 76 q 489 156 422 76 q 582 336 556 236 l 578 638 q 631 708 578 708 q 694 610 694 708 q 667 336 694 513 q 682 166 667 232 q 718 92 697 100 q 738 86 726 88 q 755 82 750 85 q 760 71 760 79 q 737 10 760 33 q 679 -14 714 -14 q 592 164 592 -14 q 333 -14 489 -14 q 161 69 222 -14 q 100 271 100 151 l 108 481 q 97 584 108 536 q 86 653 86 632 q 103 691 86 674 q 146 708 119 708 q 210 594 210 708 m 578 897 q 581 893 578 897 q 590 880 585 890 q 596 855 596 869 q 583 828 596 840 q 553 817 571 817 q 521 829 536 817 q 491 862 506 842 q 471 886 476 882 q 394 953 415 953 q 317 886 372 953 q 297 861 311 882 q 240 817 264 817 q 204 828 217 817 q 192 855 192 840 q 198 880 192 869 q 210 897 204 890 q 235 919 217 903 q 271 951 254 935 q 312 999 288 967 q 352 1043 336 1031 q 393 1056 368 1056 q 435 1043 418 1056 q 476 999 451 1031 q 518 951 501 967 q 553 919 535 935 q 578 897 571 903 z "},"":{"ha":811,"x_min":86,"x_max":760,"o":"m 210 594 l 199 289 q 239 135 199 194 q 351 76 279 76 q 489 156 422 76 q 582 336 556 236 l 578 638 q 631 708 578 708 q 694 610 694 708 q 667 336 694 513 q 682 166 667 232 q 718 92 697 100 q 738 86 726 88 q 755 82 750 85 q 760 71 760 79 q 737 10 760 33 q 679 -14 714 -14 q 592 164 592 -14 q 333 -14 489 -14 q 161 69 222 -14 q 100 271 100 151 l 108 481 q 97 584 108 536 q 86 653 86 632 q 103 691 86 674 q 146 708 119 708 q 210 594 210 708 m 300 1007 q 315 1007 300 1007 q 343 988 329 1007 q 357 941 357 969 q 338 884 357 913 q 289 856 318 856 q 245 875 260 856 q 231 926 231 894 q 251 983 231 958 q 300 1007 271 1007 m 522 1007 q 537 1007 522 1007 q 565 988 551 1007 q 579 941 579 969 q 560 884 579 913 q 511 856 540 856 q 467 875 482 856 q 453 926 453 894 q 473 983 453 958 q 522 1007 493 1007 z "},"":{"ha":789,"x_min":86,"x_max":694,"o":"m 582 336 l 578 638 q 631 708 578 708 q 694 604 694 708 q 665 336 694 522 q 682 83 682 167 q 593 -209 682 -99 q 343 -319 504 -319 q 181 -284 257 -319 q 104 -213 104 -249 q 136 -178 104 -178 q 213 -203 150 -178 q 343 -229 276 -229 q 528 -146 460 -229 q 596 69 596 -62 q 592 164 596 118 q 333 -14 489 -14 q 161 69 222 -14 q 100 271 100 151 l 108 481 q 97 584 108 536 q 86 653 86 632 q 103 691 86 674 q 146 708 119 708 q 210 594 210 708 l 199 289 q 239 135 199 194 q 351 76 279 76 q 489 156 422 76 q 582 336 556 236 m 542 1003 q 478 883 542 943 q 378 824 415 824 q 340 853 340 824 q 363 894 340 869 q 395 933 385 919 q 420 981 406 946 q 451 1036 435 1017 q 492 1056 467 1056 q 529 1040 517 1056 q 542 1003 542 1024 z "},"":{"ha":789,"x_min":74,"x_max":724,"o":"m 397 76 q 553 158 486 76 q 621 351 621 240 q 572 540 621 461 q 440 618 524 618 q 200 378 294 618 l 200 157 q 397 76 283 76 m 114 264 l 115 317 l 115 339 q 102 705 115 433 q 89 997 89 976 q 103 1037 89 1018 q 143 1056 118 1056 q 183 1037 168 1056 q 197 986 197 1018 l 197 529 q 300 661 243 614 q 447 708 357 708 q 603 650 538 708 q 696 515 668 592 q 724 363 724 439 q 632 99 724 211 q 397 -14 540 -14 q 200 54 293 -14 q 197 -195 197 -114 q 183 -298 197 -276 q 140 -319 169 -319 q 92 -295 111 -319 q 74 -225 74 -271 q 79 -116 74 -179 q 96 51 85 -53 q 114 238 107 154 l 114 264 z "},"":{"ha":789,"x_min":86,"x_max":694,"o":"m 582 336 l 578 638 q 631 708 578 708 q 694 604 694 708 q 665 336 694 522 q 682 83 682 167 q 593 -209 682 -99 q 343 -319 504 -319 q 181 -284 257 -319 q 104 -213 104 -249 q 136 -178 104 -178 q 213 -203 150 -178 q 343 -229 276 -229 q 528 -146 460 -229 q 596 69 596 -62 q 592 164 596 118 q 333 -14 489 -14 q 161 69 222 -14 q 100 271 100 151 l 108 481 q 97 584 108 536 q 86 653 86 632 q 103 691 86 674 q 146 708 119 708 q 210 594 210 708 l 199 289 q 239 135 199 194 q 351 76 279 76 q 489 156 422 76 q 582 336 556 236 m 303 1007 q 317 1007 303 1007 q 346 988 332 1007 q 360 941 360 969 q 340 884 360 913 q 292 856 321 856 q 248 875 263 856 q 233 926 233 894 q 253 983 233 958 q 303 1007 274 1007 m 525 1007 q 540 1007 525 1007 q 568 988 554 1007 q 582 941 582 969 q 563 884 582 913 q 514 856 543 856 q 470 875 485 856 q 456 926 456 894 q 476 983 456 958 q 525 1007 496 1007 z "},"":{"ha":1042,"x_min":24,"x_max":1018,"o":"m 758 57 l 765 501 q 470 506 561 506 q 275 501 379 506 q 278 172 275 276 q 282 47 282 68 q 265 6 282 26 q 225 -14 249 -14 q 185 6 201 -14 q 168 47 168 26 q 169 131 168 68 q 175 499 175 274 l 150 499 q 83 550 83 499 q 101 590 83 575 q 150 604 119 604 l 171 604 l 171 843 l 81 843 q 40 856 56 843 q 24 889 24 868 q 40 922 24 910 q 92 935 56 935 q 168 933 129 935 l 168 985 q 185 1035 168 1015 q 225 1056 201 1056 q 265 1035 249 1056 q 282 985 282 1015 q 281 932 282 956 q 520 931 356 931 q 758 932 685 931 l 758 985 q 775 1035 758 1015 q 815 1056 792 1056 q 856 1035 839 1056 q 872 986 872 1015 q 871 933 872 957 q 949 935 911 935 q 1002 922 986 935 q 1018 889 1018 910 q 1002 856 1018 868 q 961 843 986 843 l 868 843 q 865 606 865 718 l 888 606 q 938 590 918 606 q 958 550 958 574 q 939 512 958 526 q 888 497 919 497 l 865 497 l 872 57 q 856 6 872 26 q 815 -14 839 -14 q 775 6 792 -14 q 758 57 758 26 m 761 846 l 521 847 l 278 846 q 275 600 275 715 q 540 597 414 597 q 761 601 665 597 l 761 846 z "},"":{"ha":801,"x_min":-31,"x_max":751,"o":"m 203 918 l 379 922 q 420 910 404 922 q 436 876 436 897 q 420 843 436 856 q 379 831 404 831 l 203 835 l 203 532 q 453 708 304 708 q 625 629 564 708 q 686 438 686 550 l 679 219 q 680 160 679 181 q 688 119 681 140 q 707 92 696 97 q 730 86 718 88 q 747 82 742 85 q 751 71 751 79 q 728 10 751 35 q 675 -14 706 -14 q 602 28 622 -14 q 582 150 582 69 l 588 406 q 547 558 588 500 q 435 617 507 617 q 297 538 364 617 q 204 358 231 458 l 208 57 q 156 -14 208 -14 q 92 84 92 -14 q 119 358 92 182 q 100 833 119 483 q 17 831 33 831 q -15 843 1 831 q -31 876 -31 856 q -15 910 -31 897 q 17 922 1 922 q 96 919 32 922 q 94 984 94 950 q 109 1037 94 1018 q 149 1056 124 1056 q 188 1037 174 1056 q 203 986 203 1018 l 203 918 z "},"":{"ha":606,"x_min":51,"x_max":554,"o":"m 361 92 l 483 99 q 534 84 515 99 q 553 46 553 69 q 533 7 553 22 q 483 -8 514 -8 l 304 0 l 121 -7 q 51 46 51 -7 q 121 99 51 99 q 247 92 136 99 q 254 520 254 404 q 247 949 254 636 q 121 943 125 943 q 54 994 54 943 q 72 1034 54 1019 q 121 1049 90 1049 l 304 1042 q 414 1046 351 1042 q 495 1050 476 1050 q 534 1034 514 1050 q 554 994 554 1018 q 535 956 554 971 q 494 942 515 942 q 361 949 472 942 q 354 517 354 629 q 361 92 354 404 m 551 1253 q 516 1170 551 1206 q 433 1135 481 1135 q 318 1173 385 1135 q 223 1211 251 1211 q 176 1190 194 1211 q 140 1148 157 1169 q 103 1126 124 1126 q 69 1142 83 1126 q 56 1176 56 1157 q 100 1262 56 1225 q 202 1299 144 1299 q 331 1260 260 1299 q 433 1221 403 1221 q 486 1256 463 1221 q 522 1292 510 1292 q 543 1280 535 1292 q 551 1253 551 1268 z "},"":{"ha":311,"x_min":-92,"x_max":404,"o":"m 201 347 l 208 56 q 156 -14 208 -14 q 103 56 103 -14 l 110 347 q 103 639 110 347 q 156 708 103 708 q 208 639 208 708 l 201 347 m 404 947 q 369 865 404 900 q 285 829 333 829 q 171 867 238 829 q 76 906 104 906 q 28 885 47 906 q -7 842 10 864 q -44 821 -24 821 q -78 836 -64 821 q -92 871 -92 851 q -47 956 -92 919 q 55 993 -3 993 q 184 954 113 993 q 285 915 256 915 q 339 951 315 915 q 375 986 363 986 q 396 974 388 986 q 404 947 404 963 z "},"":{"ha":606,"x_min":51,"x_max":554,"o":"m 361 92 l 483 99 q 534 84 515 99 q 553 46 553 69 q 533 7 553 22 q 483 -8 514 -8 l 304 0 l 121 -7 q 51 46 51 -7 q 121 99 51 99 q 247 92 136 99 q 254 520 254 404 q 247 949 254 636 q 121 943 125 943 q 54 994 54 943 q 72 1034 54 1019 q 121 1049 90 1049 l 304 1042 q 414 1046 351 1042 q 495 1050 476 1050 q 534 1034 514 1050 q 554 994 554 1018 q 535 956 554 971 q 494 942 515 942 q 361 949 472 942 q 354 517 354 629 q 361 92 354 404 m 317 1326 q 331 1326 317 1326 q 360 1308 346 1326 q 374 1260 374 1289 q 354 1203 374 1232 q 306 1175 335 1175 q 262 1194 276 1175 q 247 1246 247 1214 q 267 1302 247 1278 q 317 1326 288 1326 z "},"":{"ha":311,"x_min":103,"x_max":208,"o":"m 201 347 l 208 56 q 156 -14 208 -14 q 103 56 103 -14 l 110 347 q 103 639 110 347 q 156 708 103 708 q 208 639 208 708 l 201 347 z "},"":{"ha":1279,"x_min":51,"x_max":1222,"o":"m 361 92 l 483 99 q 534 84 515 99 q 553 46 553 69 q 533 7 553 22 q 483 -8 514 -8 l 304 0 l 121 -7 q 51 46 51 -7 q 121 99 51 99 q 247 92 136 99 q 254 520 254 404 q 247 949 254 636 q 121 943 125 943 q 54 994 54 943 q 72 1034 54 1019 q 121 1049 90 1049 l 304 1042 q 414 1046 351 1042 q 495 1050 476 1050 q 534 1034 514 1050 q 554 994 554 1018 q 535 956 554 971 q 494 942 515 942 q 361 949 472 942 q 354 517 354 629 q 361 92 354 404 m 1124 519 l 1125 353 q 1038 75 1125 164 q 840 -14 950 -14 q 663 35 731 -14 q 596 126 596 85 q 609 162 596 149 q 640 175 622 175 q 676 160 658 175 q 710 126 694 144 q 757 93 725 108 q 831 78 789 78 q 966 151 910 78 q 1022 383 1022 224 l 1024 519 q 1021 950 1024 831 q 976 951 1006 951 l 789 944 q 722 996 722 944 q 740 1035 722 1019 q 789 1050 758 1050 l 972 1043 q 1082 1047 1019 1043 q 1163 1051 1144 1051 q 1202 1035 1182 1051 q 1222 996 1222 1019 q 1201 958 1222 972 q 1147 943 1179 943 l 1126 943 q 1124 519 1124 815 z "},"":{"ha":646,"x_min":93,"x_max":556,"o":"m 163 1007 q 177 1007 163 1007 q 206 988 192 1007 q 219 941 219 969 q 200 884 219 913 q 151 856 181 856 q 108 875 122 856 q 93 926 93 894 q 113 983 93 958 q 163 1007 133 1007 m 201 347 l 208 56 q 156 -14 208 -14 q 103 56 103 -14 l 110 347 l 103 639 q 156 708 103 708 q 208 639 208 708 l 201 347 m 499 1007 q 513 1007 499 1007 q 542 988 528 1007 q 556 941 556 969 q 536 884 556 913 q 488 856 517 856 q 444 875 458 856 q 429 926 429 894 q 449 983 429 958 q 499 1007 469 1007 m 538 319 l 536 14 q 476 -184 536 -106 q 364 -262 415 -262 q 326 -236 326 -262 q 386 -158 326 -217 q 428 -87 410 -136 q 447 28 447 -37 l 446 319 l 439 639 q 492 708 439 708 q 544 639 544 708 l 538 319 z "},"":{"ha":706,"x_min":22,"x_max":649,"o":"m 550 519 l 551 353 q 464 75 551 164 q 267 -14 376 -14 q 90 35 157 -14 q 22 126 22 85 q 35 162 22 149 q 67 175 49 175 q 103 160 85 175 q 136 126 121 144 q 183 93 151 108 q 257 78 215 78 q 392 151 336 78 q 449 383 449 224 q 450 519 449 383 q 447 950 450 831 q 403 951 432 951 l 215 944 q 149 996 149 944 q 167 1035 149 1019 q 215 1050 185 1050 l 399 1043 q 508 1047 446 1043 q 590 1051 571 1051 q 628 1035 608 1051 q 649 996 649 1019 q 627 958 649 972 q 574 943 606 943 l 553 943 q 550 519 550 815 m 586 1208 q 590 1205 586 1208 q 599 1191 593 1201 q 604 1166 604 1181 q 592 1140 604 1151 q 562 1128 579 1128 q 529 1140 544 1128 q 499 1173 514 1153 q 479 1197 485 1193 q 402 1264 424 1264 q 325 1197 381 1264 q 306 1172 319 1193 q 249 1128 272 1128 q 213 1140 225 1128 q 200 1166 200 1151 q 206 1191 200 1181 q 219 1208 213 1201 q 244 1230 225 1214 q 279 1262 263 1246 q 320 1310 296 1278 q 360 1354 344 1342 q 401 1367 376 1367 q 443 1354 426 1367 q 485 1310 460 1342 q 526 1262 510 1278 q 561 1230 543 1246 q 586 1208 579 1214 z "},"":{"ha":310,"x_min":-47,"x_max":357,"o":"m 201 319 l 200 14 q 140 -184 200 -106 q 28 -262 79 -262 q -10 -236 -10 -262 q 50 -158 -10 -217 q 92 -87 74 -136 q 111 28 111 -37 l 110 319 l 103 639 q 156 708 103 708 q 208 639 208 708 l 201 319 m 339 897 q 342 893 339 897 q 351 880 346 890 q 357 855 357 869 q 344 828 357 840 q 315 817 332 817 q 282 829 297 817 q 252 862 267 842 q 232 886 238 882 q 155 953 176 953 q 78 886 133 953 q 58 861 72 882 q 1 817 25 817 q -35 828 -22 817 q -47 855 -47 840 q -41 880 -47 869 q -28 897 -35 890 q -3 919 -22 903 q 32 951 15 935 q 73 999 49 967 q 113 1043 97 1031 q 154 1056 129 1056 q 196 1043 179 1056 q 238 999 213 1031 q 279 951 263 967 q 314 919 296 935 q 339 897 332 903 z "},"":{"ha":858,"x_min":136,"x_max":839,"o":"m 283 -160 q 287 -140 283 -160 q 306 -98 292 -119 q 347 -76 321 -76 q 386 -94 372 -76 q 400 -137 400 -112 q 347 -262 400 -197 q 258 -326 293 -326 q 235 -318 244 -326 q 226 -299 226 -310 q 231 -278 226 -289 q 248 -249 236 -267 q 267 -215 260 -231 q 283 -160 274 -200 m 243 479 l 250 57 q 233 6 250 26 q 193 -14 217 -14 q 153 6 169 -14 q 136 57 136 26 l 143 517 l 136 983 q 153 1034 136 1014 q 193 1054 169 1054 q 233 1034 217 1054 q 250 994 250 1014 q 249 921 250 974 q 243 589 243 710 q 363 606 285 606 q 428 601 365 606 q 552 774 496 660 q 629 994 608 888 q 686 1056 643 1056 q 719 1042 706 1056 q 733 1004 733 1028 q 658 763 733 917 q 508 536 582 608 q 617 326 546 450 q 724 153 688 203 q 787 99 757 113 q 828 87 817 86 q 839 79 839 88 q 817 13 839 39 q 764 -14 796 -14 q 643 81 711 -14 q 413 485 575 176 q 311 472 344 472 q 243 479 278 472 z "},"":{"ha":708,"x_min":92,"x_max":661,"o":"m 277 -160 q 282 -140 277 -160 q 301 -98 286 -119 q 341 -76 315 -76 q 381 -94 367 -76 q 394 -137 394 -112 q 341 -262 394 -197 q 253 -326 288 -326 q 230 -318 239 -326 q 221 -299 221 -310 q 226 -278 221 -289 q 243 -249 232 -268 q 261 -215 254 -231 q 277 -160 268 -200 m 204 358 l 208 57 q 156 -14 208 -14 q 92 84 92 -14 q 119 358 92 182 q 107 715 119 453 q 94 997 94 976 q 109 1037 94 1018 q 149 1056 124 1056 q 188 1037 174 1056 q 203 986 203 1018 l 203 532 q 453 708 304 708 q 582 661 533 708 q 631 546 631 614 q 513 351 631 432 q 444 307 486 333 l 547 149 q 603 96 574 108 q 647 83 632 83 q 661 71 661 83 q 640 12 661 38 q 590 -14 619 -14 q 545 -5 561 -14 q 510 30 529 4 q 475 83 492 56 q 351 276 394 215 q 292 297 315 276 q 268 344 268 317 q 287 390 268 372 q 336 408 306 408 q 399 374 367 408 q 492 446 451 397 q 533 533 533 494 q 512 594 533 572 q 447 617 490 617 q 300 538 369 617 q 204 358 231 460 z "},"":{"ha":701,"x_min":103,"x_max":669,"o":"m 110 347 l 103 639 q 156 708 103 708 q 208 639 208 708 q 205 551 208 631 q 201 413 201 471 q 297 432 260 432 q 361 429 333 432 q 453 531 411 463 q 515 660 494 599 q 569 708 531 708 q 601 694 588 708 q 614 663 614 681 q 556 516 614 607 q 429 364 499 425 l 556 150 q 611 98 582 111 q 655 84 640 85 q 669 72 669 83 q 649 13 669 39 q 598 -12 628 -12 q 551 -2 568 -12 q 512 38 533 8 q 472 99 490 68 q 347 311 413 206 q 258 297 313 297 l 201 303 q 208 56 208 67 q 156 -14 208 -14 q 103 56 103 -14 l 110 347 z "},"":{"ha":756,"x_min":136,"x_max":711,"o":"m 250 985 l 243 517 q 249 99 243 376 q 395 92 306 92 q 559 97 485 92 q 653 101 633 101 q 692 87 674 101 q 711 47 711 72 q 692 8 711 22 q 642 -7 674 -7 l 432 0 l 207 -7 q 156 11 175 -7 q 136 64 136 29 l 143 517 l 136 985 q 151 1036 136 1017 q 193 1056 167 1056 q 235 1036 219 1056 q 250 985 250 1017 m 478 611 q 493 611 478 611 q 524 590 508 611 q 539 535 539 568 q 519 476 539 503 q 469 449 499 449 q 424 471 440 449 q 408 526 408 493 q 428 585 408 558 q 478 611 449 611 z "},"":{"ha":469,"x_min":103,"x_max":450,"o":"m 201 521 l 208 56 q 156 -14 208 -14 q 103 56 103 -14 l 110 521 l 103 986 q 156 1056 103 1056 q 208 986 208 1056 l 201 521 m 390 611 q 405 611 390 611 q 435 590 419 611 q 450 535 450 568 q 430 476 450 503 q 381 449 410 449 q 335 471 351 449 q 319 526 319 493 q 340 585 319 558 q 390 611 360 611 z "},"":{"ha":767,"x_min":13,"x_max":722,"o":"m 154 624 l 147 985 q 163 1036 147 1017 q 204 1056 178 1056 q 246 1036 231 1056 q 261 995 261 1017 q 260 936 261 974 q 256 708 256 821 l 349 793 q 388 810 369 810 q 419 797 407 810 q 432 764 432 785 q 408 722 432 743 q 350 677 407 722 q 254 599 293 632 l 254 517 q 260 99 254 376 q 406 92 317 92 q 570 97 496 92 q 665 101 644 101 q 703 87 685 101 q 722 47 722 72 q 703 8 722 22 q 653 -7 685 -7 l 443 0 l 218 -7 q 167 11 186 -7 q 147 52 147 29 q 149 138 147 75 q 154 513 154 388 l 96 460 q 56 443 75 443 q 25 456 38 443 q 13 489 13 468 q 36 531 13 510 q 84 569 43 538 q 154 624 125 600 z "},"":{"ha":356,"x_min":1,"x_max":421,"o":"m 136 618 l 129 986 q 182 1056 129 1056 q 235 986 235 1056 q 233 935 235 974 q 231 828 232 896 q 228 696 229 761 q 293 753 256 719 q 344 799 331 788 q 377 810 358 810 q 408 797 396 810 q 421 764 421 785 q 397 722 421 743 q 336 674 394 719 q 228 586 261 615 l 228 521 q 231 176 228 286 q 235 56 235 67 q 182 -14 235 -14 q 129 56 129 -14 q 131 131 129 67 q 136 506 136 279 l 85 460 q 45 443 64 443 q 14 456 26 443 q 1 489 1 468 q 25 531 1 510 q 136 618 81 574 z "},"":{"ha":961,"x_min":136,"x_max":826,"o":"m 143 517 l 136 983 q 153 1035 136 1014 q 194 1056 169 1056 q 261 1018 239 1056 q 466 653 274 999 q 719 210 658 308 l 719 517 q 716 863 719 751 q 713 994 713 974 q 729 1035 713 1015 q 769 1056 746 1056 q 810 1035 793 1056 q 826 994 826 1015 q 825 907 826 974 q 819 517 819 751 l 822 57 q 805 6 822 25 q 757 -14 788 -14 q 704 24 726 -14 q 653 114 697 35 q 452 473 518 361 q 326 694 386 585 q 243 840 267 803 l 243 517 l 250 57 q 233 6 250 26 q 193 -14 217 -14 q 153 6 169 -14 q 136 57 136 26 l 143 517 m 638 1294 q 574 1175 638 1235 q 474 1115 511 1115 q 436 1144 436 1115 q 458 1186 436 1161 q 491 1224 481 1211 q 516 1273 501 1238 q 547 1328 531 1308 q 588 1347 563 1347 q 625 1331 613 1347 q 638 1294 638 1315 z "},"":{"ha":804,"x_min":94,"x_max":754,"o":"m 689 438 l 682 219 q 683 160 682 181 q 691 119 683 140 q 710 92 699 97 q 733 86 721 88 q 749 82 744 85 q 754 71 754 79 q 731 10 754 35 q 678 -14 708 -14 q 605 28 625 -14 q 585 150 585 69 l 590 406 q 550 558 590 500 q 438 617 510 617 q 300 538 367 617 q 207 358 233 458 l 211 57 q 158 -14 211 -14 q 94 84 94 -14 q 122 358 94 182 q 110 519 122 417 q 99 647 99 622 q 113 690 99 671 q 153 708 128 708 q 192 690 178 708 q 207 647 207 671 q 206 590 207 624 q 206 532 206 556 q 456 708 307 708 q 628 629 567 708 q 689 438 689 550 m 556 1003 q 492 883 556 943 q 392 824 429 824 q 354 853 354 824 q 376 894 354 869 q 409 933 399 919 q 434 981 419 946 q 465 1036 449 1017 q 506 1056 481 1056 q 543 1040 531 1056 q 556 1003 556 1024 z "},"":{"ha":1315,"x_min":79,"x_max":1253,"o":"m 921 601 q 1113 608 1088 608 q 1158 594 1139 608 q 1176 554 1176 579 q 1107 503 1176 503 q 926 508 1104 503 q 883 277 925 385 q 771 96 842 169 q 958 92 843 92 l 1183 99 q 1253 46 1253 99 q 1183 -7 1253 -7 l 958 0 l 715 -7 q 660 15 674 -7 q 508 -21 590 -21 q 202 138 325 -21 q 79 522 79 296 q 203 905 79 747 q 511 1063 328 1063 q 647 1033 585 1063 q 707 1049 665 1049 l 975 1042 l 1183 1049 q 1253 996 1253 1049 q 1183 943 1253 943 l 975 950 q 772 944 818 950 q 921 601 897 815 m 506 81 q 573 81 506 81 q 726 214 639 81 q 814 524 814 347 q 727 831 814 701 q 507 961 640 961 q 283 831 374 961 q 192 524 192 701 q 283 214 192 347 q 506 81 374 81 z "},"":{"ha":1261,"x_min":64,"x_max":1193,"o":"m 953 715 q 1123 653 1053 715 q 1193 490 1193 590 q 1106 338 1193 390 q 893 286 1019 286 q 717 307 821 286 q 790 140 725 210 q 933 69 854 69 q 1021 83 981 69 q 1082 111 1061 96 q 1155 154 1138 154 q 1183 144 1172 154 q 1193 118 1193 133 q 1113 29 1193 79 q 940 -21 1033 -21 q 665 147 754 -21 q 550 24 622 69 q 390 -21 478 -21 q 156 85 247 -21 q 64 346 64 192 q 156 608 64 500 q 389 715 249 715 q 556 668 482 715 q 671 540 629 621 q 953 715 769 715 m 551 151 q 584 192 551 151 q 618 349 618 233 q 553 544 618 464 q 393 625 489 625 q 230 543 297 625 q 163 346 163 461 q 227 150 163 231 q 388 69 292 69 q 551 151 483 69 m 888 374 q 935 374 888 374 q 1038 406 982 374 q 1094 492 1094 438 q 1058 585 1094 546 q 953 625 1021 625 q 799 556 861 625 q 718 396 736 488 q 888 374 794 374 z "},"":{"ha":883,"x_min":79,"x_max":846,"o":"m 249 426 l 256 57 q 239 6 256 26 q 199 -14 222 -14 q 158 6 175 -14 q 142 48 142 26 q 144 136 142 69 q 150 480 150 333 q 149 709 150 626 q 145 840 147 792 q 143 897 143 888 q 121 894 126 894 q 79 940 79 894 q 189 1030 79 997 q 385 1063 299 1063 q 672 973 575 1063 q 769 753 769 883 q 713 583 769 664 q 560 461 657 501 q 778 103 690 151 q 817 92 803 89 q 846 75 846 96 q 821 11 846 36 q 764 -14 796 -14 q 653 64 711 -14 q 460 429 569 183 q 328 417 393 417 l 249 426 m 667 744 q 596 905 667 843 q 409 967 525 967 q 250 942 293 967 q 246 718 246 869 q 247 535 246 567 q 375 551 310 551 q 494 538 440 551 q 612 610 557 550 q 667 744 667 671 m 557 1294 q 494 1175 557 1235 q 393 1115 431 1115 q 356 1144 356 1115 q 378 1186 356 1161 q 410 1224 400 1211 q 435 1273 421 1238 q 466 1328 450 1308 q 507 1347 482 1347 q 544 1331 532 1347 q 557 1294 557 1315 z "},"":{"ha":883,"x_min":81,"x_max":847,"o":"m 269 -160 q 273 -140 269 -160 q 292 -98 278 -119 q 333 -76 307 -76 q 372 -94 358 -76 q 386 -137 386 -112 q 333 -262 386 -197 q 244 -326 279 -326 q 222 -318 231 -326 q 213 -299 213 -310 q 218 -278 213 -289 q 235 -249 224 -268 q 253 -215 246 -231 q 269 -160 260 -200 m 771 753 q 715 583 771 664 q 561 461 658 501 q 779 103 692 151 q 817 92 804 89 q 847 75 847 96 q 822 11 847 36 q 765 -14 797 -14 q 654 64 713 -14 q 461 429 571 183 q 329 417 394 417 l 250 426 q 253 150 250 233 q 257 47 257 67 q 240 6 257 26 q 200 -14 224 -14 q 160 6 176 -14 q 143 48 143 26 q 144 136 143 69 q 151 480 151 333 q 149 709 151 626 q 146 840 147 792 q 144 897 144 888 q 122 894 128 894 q 81 940 81 894 q 190 1030 81 997 q 386 1063 300 1063 q 674 973 576 1063 q 771 753 771 883 m 668 744 q 597 905 668 843 q 410 967 526 967 q 251 942 294 967 q 247 718 247 869 q 249 535 247 567 q 376 551 311 551 q 496 538 442 551 q 613 610 558 550 q 668 744 668 671 z "},"":{"ha":567,"x_min":25,"x_max":544,"o":"m 81 -160 q 86 -140 81 -160 q 105 -98 90 -119 q 145 -76 119 -76 q 185 -94 171 -76 q 199 -137 199 -112 q 145 -262 199 -197 q 57 -326 92 -326 q 34 -318 43 -326 q 25 -299 25 -310 q 31 -278 25 -289 q 47 -249 36 -268 q 65 -215 58 -231 q 81 -160 72 -200 m 207 318 l 211 57 q 158 -14 211 -14 q 94 84 94 -14 q 122 358 94 182 q 110 518 122 417 q 99 644 99 619 q 113 689 99 669 q 153 708 128 708 q 192 689 178 708 q 207 647 207 669 q 206 588 207 624 q 206 529 206 553 q 292 654 233 600 q 414 708 351 708 q 510 683 476 708 q 544 628 544 657 q 529 582 544 599 q 490 565 514 565 q 437 591 465 565 q 392 617 408 617 q 285 518 346 617 q 207 318 224 419 z "},"":{"ha":883,"x_min":79,"x_max":846,"o":"m 249 426 l 256 57 q 239 6 256 26 q 199 -14 222 -14 q 158 6 175 -14 q 142 48 142 26 q 144 136 142 69 q 150 480 150 333 q 149 709 150 626 q 145 840 147 792 q 143 897 143 888 q 121 894 126 894 q 79 940 79 894 q 189 1030 79 997 q 385 1063 299 1063 q 672 973 575 1063 q 769 753 769 883 q 713 583 769 664 q 560 461 657 501 q 778 103 690 151 q 817 92 803 89 q 846 75 846 96 q 821 11 846 36 q 764 -14 796 -14 q 653 64 711 -14 q 460 429 569 183 q 328 417 393 417 l 249 426 m 667 744 q 596 905 667 843 q 409 967 525 967 q 250 942 293 967 q 246 718 246 869 q 247 535 246 567 q 375 551 310 551 q 494 538 440 551 q 612 610 557 550 q 667 744 667 671 m 540 1367 q 552 1367 540 1367 q 576 1355 564 1367 q 589 1328 589 1343 q 583 1303 589 1314 q 571 1287 578 1293 q 546 1265 564 1281 q 511 1233 528 1249 q 469 1185 494 1217 q 428 1140 444 1153 q 386 1128 411 1128 q 345 1140 361 1128 q 305 1185 329 1153 q 264 1233 281 1217 q 228 1265 247 1249 q 203 1286 210 1281 q 185 1324 185 1306 q 197 1355 185 1343 q 227 1367 210 1367 q 259 1356 244 1367 q 291 1322 274 1344 q 310 1297 308 1299 q 387 1231 372 1231 q 464 1297 401 1231 q 483 1322 465 1299 q 540 1367 517 1367 z "},"":{"ha":567,"x_min":94,"x_max":544,"o":"m 207 318 l 211 57 q 158 -14 211 -14 q 94 84 94 -14 q 122 358 94 182 q 110 518 122 417 q 99 644 99 619 q 113 689 99 669 q 153 708 128 708 q 192 689 178 708 q 207 647 207 669 q 206 588 207 624 q 206 529 206 553 q 292 654 233 600 q 414 708 351 708 q 510 683 476 708 q 544 628 544 657 q 529 582 544 599 q 490 565 514 565 q 437 591 465 565 q 392 617 408 617 q 285 518 346 617 q 207 318 224 419 m 464 1056 q 476 1056 464 1056 q 500 1044 488 1056 q 513 1017 513 1032 q 507 992 513 1003 q 494 976 501 982 q 469 953 488 969 q 435 922 451 938 q 393 874 418 906 q 351 829 368 842 q 310 817 335 817 q 269 829 285 817 q 228 874 253 842 q 188 922 204 906 q 152 953 171 938 q 128 975 133 969 q 108 1013 108 994 q 121 1044 108 1032 q 151 1056 133 1056 q 183 1044 168 1056 q 215 1010 197 1033 q 233 986 232 988 q 310 919 296 919 q 388 986 325 919 q 406 1011 389 988 q 464 1056 440 1056 z "},"":{"ha":769,"x_min":21,"x_max":749,"o":"m 329 56 q 331 119 329 65 q 336 436 336 246 l 183 704 q 128 799 157 750 l 82 875 q 28 972 36 953 q 21 1008 21 992 q 33 1040 21 1025 q 67 1056 46 1056 q 101 1044 88 1056 q 132 1006 115 1033 q 164 947 149 978 q 390 543 268 733 q 603 919 518 744 q 624 962 613 940 q 642 996 636 983 q 656 1020 649 1008 q 669 1038 664 1032 q 681 1047 674 1043 q 708 1056 690 1056 q 737 1043 725 1056 q 749 1015 749 1031 q 744 984 749 999 q 726 943 740 969 q 699 894 713 917 q 655 818 686 871 q 599 721 624 765 l 436 436 q 440 153 436 243 q 443 56 443 63 q 386 -14 443 -14 q 329 56 329 -14 m 292 1326 q 306 1326 292 1326 q 335 1308 321 1326 q 349 1260 349 1289 q 329 1203 349 1232 q 281 1175 310 1175 q 237 1194 251 1175 q 222 1246 222 1214 q 242 1302 222 1278 q 292 1326 263 1326 m 514 1326 q 528 1326 514 1326 q 557 1308 543 1326 q 571 1260 571 1289 q 551 1203 571 1232 q 503 1175 532 1175 q 459 1194 474 1175 q 444 1246 444 1214 q 465 1302 444 1278 q 514 1326 485 1326 z "},"":{"ha":571,"x_min":83,"x_max":488,"o":"m 469 897 q 473 893 469 897 q 482 880 476 890 q 488 855 488 869 q 475 828 488 840 q 445 817 463 817 q 413 829 428 817 q 383 862 397 842 q 363 886 368 882 q 285 953 307 953 q 208 886 264 953 q 189 861 203 882 q 132 817 156 817 q 96 828 108 817 q 83 855 83 840 q 90 880 83 869 q 102 897 96 890 q 127 919 108 903 q 163 951 146 935 q 203 999 179 967 q 244 1043 228 1031 q 285 1056 260 1056 q 326 1043 310 1056 q 368 999 343 1031 q 410 951 393 967 q 444 919 426 935 q 469 897 463 903 z "},"":{"ha":571,"x_min":83,"x_max":488,"o":"m 439 1056 q 451 1056 439 1056 q 475 1044 463 1056 q 488 1017 488 1032 q 482 992 488 1003 q 469 976 476 982 q 444 953 463 969 q 410 922 426 938 q 368 874 393 906 q 326 829 343 842 q 285 817 310 817 q 244 829 260 817 q 203 874 228 842 q 163 922 179 906 q 127 953 146 938 q 103 975 108 969 q 83 1013 83 994 q 96 1044 83 1032 q 126 1056 108 1056 q 158 1044 143 1056 q 190 1010 172 1033 q 208 986 207 988 q 285 919 271 919 q 363 986 300 919 q 381 1011 364 988 q 439 1056 415 1056 z "},"":{"ha":576,"x_min":83,"x_max":493,"o":"m 451 1056 q 493 1002 493 1056 q 435 890 493 949 q 288 831 376 831 q 141 890 199 831 q 83 1002 83 949 q 125 1056 83 1056 q 189 986 160 1056 q 224 940 199 961 q 288 918 250 918 q 351 940 325 918 q 388 986 376 961 q 451 1056 417 1056 z "},"":{"ha":265,"x_min":69,"x_max":196,"o":"m 139 1056 q 153 1056 139 1056 q 182 1037 168 1056 q 196 990 196 1018 q 176 933 196 961 q 128 904 157 904 q 84 924 99 904 q 69 975 69 943 q 90 1031 69 1007 q 139 1056 110 1056 z "},"":{"ha":253,"x_min":0,"x_max":253,"o":"m 217 1024 q 235 1005 217 1024 q 253 931 253 986 q 218 838 253 875 q 126 800 183 800 q 35 837 69 800 q 0 930 0 874 q 36 1024 0 986 q 126 1063 72 1063 q 217 1024 181 1063 m 126 865 q 139 865 126 865 q 169 885 151 865 q 188 931 188 906 q 169 977 188 957 q 126 997 150 997 q 84 977 103 997 q 65 931 65 957 q 83 885 65 906 q 126 865 101 865 z "},"":{"ha":493,"x_min":115,"x_max":432,"o":"m 432 -222 q 387 -288 432 -257 q 277 -319 342 -319 q 164 -281 213 -319 q 115 -176 115 -242 q 247 -8 115 -74 l 350 -8 q 208 -165 208 -79 q 233 -214 208 -197 q 290 -231 257 -231 q 359 -213 322 -231 q 407 -196 396 -196 q 425 -204 418 -196 q 432 -222 432 -212 z "},"":{"ha":690,"x_min":97,"x_max":593,"o":"m 593 947 q 558 865 593 900 q 474 829 522 829 q 360 867 426 829 q 265 906 293 906 q 217 885 236 906 q 182 842 199 864 q 145 821 165 821 q 111 836 125 821 q 97 871 97 851 q 142 956 97 919 q 244 993 186 993 q 373 954 301 993 q 474 915 444 915 q 528 951 504 915 q 564 986 551 986 q 585 974 576 986 q 593 947 593 963 z "},"":{"ha":1151,"x_min":39,"x_max":1114,"o":"m 106 99 l 261 92 q 325 93 304 92 q 136 525 136 282 q 267 855 136 717 q 578 993 399 993 q 887 857 757 993 q 1017 529 1017 721 q 828 92 1017 283 q 892 90 847 90 l 1047 97 q 1096 83 1078 97 q 1114 44 1114 68 q 1096 5 1114 19 q 1047 -10 1078 -10 l 892 -1 q 799 -6 851 -1 q 727 -10 746 -10 q 689 5 708 -10 q 669 47 669 19 q 703 92 669 74 q 850 267 792 139 q 908 538 908 396 q 815 788 908 681 q 578 896 721 896 q 340 787 435 896 q 244 535 244 678 q 303 267 244 393 q 450 93 361 142 q 483 47 483 74 q 464 6 483 21 q 426 -8 444 -8 q 354 -4 407 -8 q 261 0 301 0 l 106 -8 q 57 6 75 -8 q 39 44 39 21 q 57 83 39 68 q 106 99 75 99 z "},"":{"ha":789,"x_min":92,"x_max":697,"o":"m 394 404 l 640 408 q 681 396 665 408 q 697 363 697 383 q 681 329 697 342 q 640 317 665 317 l 394 321 l 149 317 q 108 329 124 317 q 92 363 92 342 q 108 396 92 383 q 149 408 124 408 q 394 404 149 408 z "},"":{"ha":1178,"x_min":92,"x_max":1086,"o":"m 589 404 l 1029 408 q 1070 396 1054 408 q 1086 363 1086 383 q 1070 329 1086 342 q 1029 317 1054 317 l 589 321 l 149 317 q 108 329 124 317 q 92 363 92 342 q 108 396 92 383 q 149 408 124 408 q 589 404 149 408 z "},"":{"ha":303,"x_min":69,"x_max":243,"o":"m 192 846 l 200 744 q 181 688 200 714 q 131 661 163 661 q 85 683 100 661 q 69 731 69 704 q 119 919 69 826 q 215 1011 168 1011 q 235 1003 226 1011 q 243 985 243 996 q 217 932 243 975 q 192 846 192 889 z "},"":{"ha":304,"x_min":67,"x_max":240,"o":"m 118 826 l 110 928 q 128 985 110 958 q 178 1011 147 1011 q 225 990 210 1011 q 240 942 240 968 q 191 753 240 846 q 94 661 142 661 q 75 669 83 661 q 67 686 67 676 q 92 740 67 696 q 118 826 118 783 z "},"":{"ha":292,"x_min":79,"x_max":210,"o":"m 86 -158 l 90 -47 q 85 8 90 -18 q 79 61 79 33 q 99 115 79 89 q 149 142 119 142 q 194 120 179 142 q 210 68 210 99 q 178 -103 210 -18 q 114 -187 147 -187 q 86 -158 86 -187 z "},"":{"ha":528,"x_min":69,"x_max":468,"o":"m 417 846 l 425 744 q 406 688 425 714 q 356 661 388 661 q 310 683 325 661 q 294 731 294 704 q 344 919 294 826 q 440 1011 393 1011 q 460 1003 451 1011 q 468 985 468 996 q 442 932 468 975 q 417 846 417 889 m 192 846 l 200 744 q 181 688 200 714 q 131 661 163 661 q 85 683 100 661 q 69 731 69 704 q 119 919 69 826 q 215 1011 168 1011 q 235 1003 226 1011 q 243 985 243 996 q 217 932 243 975 q 192 846 192 889 z "},"":{"ha":529,"x_min":67,"x_max":465,"o":"m 118 826 l 110 928 q 128 985 110 958 q 178 1011 147 1011 q 225 990 210 1011 q 240 942 240 968 q 191 753 240 846 q 94 661 142 661 q 75 669 83 661 q 67 686 67 676 q 92 740 67 696 q 118 826 118 783 m 343 826 l 335 928 q 353 985 335 958 q 403 1011 372 1011 q 450 990 435 1011 q 465 942 465 968 q 416 753 465 846 q 319 661 367 661 q 300 669 308 661 q 292 686 292 676 q 317 740 292 696 q 343 826 343 783 z "},"":{"ha":542,"x_min":79,"x_max":460,"o":"m 86 -158 l 90 -47 q 85 8 90 -18 q 79 61 79 33 q 99 115 79 89 q 149 142 119 142 q 194 120 179 142 q 210 68 210 99 q 178 -103 210 -18 q 114 -187 147 -187 q 86 -158 86 -187 m 336 -158 l 340 -47 q 335 8 340 -18 q 329 61 329 33 q 349 115 329 89 q 399 142 369 142 q 444 120 429 142 q 460 68 460 99 q 428 -103 460 -18 q 364 -187 397 -187 q 336 -158 336 -187 z "},"":{"ha":731,"x_min":56,"x_max":675,"o":"m 404 694 l 618 699 q 659 686 643 699 q 675 653 675 674 q 659 619 675 632 q 618 607 643 607 q 403 611 549 607 l 403 411 q 406 -3 403 131 q 410 -159 410 -136 q 396 -201 410 -182 q 360 -221 382 -221 q 324 -201 338 -221 q 310 -159 310 -182 q 311 -56 310 -136 q 317 340 317 131 q 315 611 317 550 q 133 607 178 607 q 72 619 88 607 q 56 653 56 632 q 72 686 56 674 q 113 699 88 699 l 314 694 l 310 985 q 324 1036 310 1017 q 360 1056 338 1056 q 396 1036 382 1056 q 410 975 410 1017 q 404 694 410 933 z "},"":{"ha":760,"x_min":69,"x_max":690,"o":"m 418 611 l 417 411 l 418 314 l 632 318 q 673 306 657 318 q 689 272 689 293 q 673 239 689 251 q 610 226 657 226 q 418 231 564 226 l 425 -164 q 411 -215 425 -196 q 375 -235 397 -235 q 339 -215 353 -235 q 325 -164 325 -196 l 331 231 q 147 226 193 226 q 85 239 101 226 q 69 272 69 251 q 85 306 69 293 q 126 318 101 318 l 332 314 l 332 411 q 331 611 332 550 q 148 607 193 607 q 87 619 103 607 q 71 653 71 632 q 87 686 71 674 q 128 699 103 699 l 329 694 l 325 985 q 339 1036 325 1017 q 375 1056 353 1056 q 411 1036 397 1056 q 425 975 425 1017 q 419 694 425 933 l 633 699 q 674 686 658 699 q 690 653 690 674 q 674 619 690 632 q 633 607 658 607 q 418 611 564 607 z "},"":{"ha":401,"x_min":71,"x_max":332,"o":"m 211 708 q 241 708 211 708 q 301 666 271 708 q 332 557 332 624 q 292 437 332 490 q 193 383 251 383 q 103 428 135 383 q 71 538 71 474 q 111 656 71 603 q 211 708 151 708 z "},"":{"ha":810,"x_min":78,"x_max":731,"o":"m 148 149 q 163 149 148 149 q 193 127 178 149 q 208 73 208 106 q 188 13 208 40 q 139 -14 168 -14 q 94 8 110 -14 q 78 63 78 31 q 98 122 78 96 q 148 149 118 149 m 409 149 q 424 149 409 149 q 454 127 439 149 q 469 73 469 106 q 449 13 469 40 q 400 -14 429 -14 q 355 8 371 -14 q 339 63 339 31 q 359 122 339 96 q 409 149 379 149 m 670 149 q 685 149 670 149 q 715 127 700 149 q 731 73 731 106 q 710 13 731 40 q 661 -14 690 -14 q 616 8 632 -14 q 600 63 600 31 q 620 122 600 96 q 670 149 640 149 z "},"":{"ha":1603,"x_min":68,"x_max":1539,"o":"m 1335 460 q 1381 460 1335 460 q 1483 392 1426 460 q 1539 222 1539 325 q 1481 49 1539 118 q 1331 -21 1422 -21 q 1184 47 1240 -21 q 1128 217 1128 114 q 1186 390 1128 321 q 1335 460 1244 460 m 1333 58 q 1360 58 1333 58 q 1419 103 1388 58 q 1450 218 1450 149 q 1419 334 1450 288 q 1334 381 1389 381 q 1248 335 1279 381 q 1217 221 1217 290 q 1247 105 1217 151 q 1333 58 1278 58 m 814 981 q 736 836 814 921 q 447 14 461 49 q 397 -21 433 -21 q 367 -8 379 -21 q 354 26 354 4 q 389 132 354 47 q 636 801 529 475 q 573 790 613 790 q 468 810 533 790 q 475 753 475 785 q 419 582 475 651 q 272 513 363 513 q 124 580 181 513 q 68 751 68 647 q 126 924 68 854 q 267 993 185 993 q 422 933 349 993 q 562 872 496 872 q 657 897 628 872 l 668 936 q 719 1046 693 1026 q 755 1056 732 1056 q 796 1034 778 1056 q 814 981 814 1013 m 273 592 q 300 592 273 592 q 359 637 328 592 q 390 751 390 682 q 360 867 390 821 q 274 914 329 914 q 187 869 218 914 q 156 754 156 824 q 187 638 156 685 q 273 592 218 592 m 849 460 q 895 460 849 460 q 997 392 940 460 q 1053 222 1053 325 q 994 49 1053 118 q 845 -21 936 -21 q 698 47 754 -21 q 642 217 642 114 q 700 390 642 321 q 849 460 758 460 m 847 58 q 874 58 847 58 q 933 103 901 58 q 964 218 964 149 q 933 334 964 288 q 848 381 903 381 q 762 335 793 381 q 731 221 731 290 q 761 105 731 151 q 847 58 792 58 z "},"":{"ha":414,"x_min":61,"x_max":328,"o":"m 92 428 q 86 433 92 428 q 71 454 81 439 q 61 487 61 469 q 72 519 61 504 q 119 567 83 535 q 171 615 156 600 q 206 653 186 631 q 236 683 226 675 q 281 708 260 708 q 315 695 303 708 q 328 663 328 682 q 315 631 328 644 q 273 597 301 617 q 231 564 244 576 q 164 485 164 504 q 231 406 164 465 q 273 373 244 393 q 315 339 301 353 q 328 306 328 325 q 315 274 328 288 q 287 261 303 261 q 258 269 271 261 q 235 285 244 276 q 206 317 226 294 q 170 355 186 339 q 129 394 154 371 q 92 428 104 417 z "},"":{"ha":413,"x_min":86,"x_max":353,"o":"m 322 542 q 327 536 322 542 q 343 515 333 531 q 353 483 353 500 q 342 450 353 465 q 294 402 331 435 q 243 354 258 369 q 208 317 228 339 q 178 286 188 294 q 133 261 154 261 q 99 274 111 261 q 86 306 86 288 q 99 339 86 325 q 141 373 113 353 q 183 406 169 393 q 250 485 250 465 q 183 564 250 504 q 141 597 169 576 q 99 631 113 617 q 86 663 86 644 q 99 695 86 682 q 127 708 111 708 q 156 701 143 708 q 178 684 169 693 q 208 653 188 675 q 244 615 228 631 q 285 576 260 599 q 322 542 310 553 z "},"":{"ha":492,"x_min":21,"x_max":472,"o":"m 450 935 q 439 906 450 935 q 379 759 428 878 q 290 525 331 640 q 214 301 249 410 q 135 65 154 121 q 101 -6 117 10 q 67 -21 85 -21 q 35 -10 49 -21 q 21 26 21 1 q 42 107 21 50 q 113 284 64 164 q 201 519 161 404 q 277 741 240 633 q 336 913 314 849 q 367 1006 358 978 q 431 1063 386 1063 q 458 1051 444 1063 q 472 1016 472 1040 q 450 935 472 992 z "},"":{"ha":893,"x_min":71,"x_max":808,"o":"m 374 438 l 619 442 q 660 429 644 442 q 676 396 676 417 q 660 363 676 375 q 619 350 644 350 l 374 354 q 290 353 318 354 q 381 146 314 224 q 550 68 447 68 q 633 83 594 68 q 692 114 671 97 q 767 160 749 160 q 797 147 786 160 q 808 118 808 135 q 732 28 808 76 q 550 -21 656 -21 q 317 83 411 -21 q 193 351 222 186 q 133 350 164 350 q 87 363 103 350 q 71 396 71 375 q 87 429 71 417 q 128 442 103 442 l 374 438 m 374 610 l 619 614 q 660 601 644 614 q 676 568 676 589 q 660 535 676 547 q 619 522 644 522 l 374 526 l 128 522 q 87 535 103 522 q 71 568 71 547 q 87 601 71 589 q 128 614 103 614 l 192 613 q 313 888 218 782 q 550 993 408 993 q 719 949 649 993 q 789 857 789 906 q 778 828 789 842 q 749 815 768 815 q 710 829 729 815 q 675 860 692 843 q 625 892 658 878 q 550 906 592 906 q 378 824 446 906 q 288 610 310 743 l 374 610 z "},"":{"ha":1201,"x_min":93,"x_max":1075,"o":"m 293 1043 l 428 1049 q 472 1037 456 1049 q 488 1007 488 1025 q 428 965 488 965 l 335 968 q 331 760 331 872 l 335 518 q 293 465 335 465 q 251 518 251 465 l 256 760 q 251 969 256 919 l 150 965 q 93 1006 93 965 q 150 1047 93 1047 l 293 1043 m 569 872 l 568 996 q 581 1033 568 1018 q 614 1049 593 1049 q 686 997 661 1049 q 828 683 719 928 q 899 843 858 744 q 964 995 939 942 q 1026 1049 989 1049 q 1061 1033 1049 1049 q 1074 996 1074 1018 q 1072 872 1074 996 q 1072 757 1072 872 q 1075 517 1072 757 q 1035 465 1075 465 q 992 518 992 465 l 996 757 q 994 901 996 861 q 857 582 861 590 q 826 558 847 558 q 793 585 806 558 q 742 700 793 588 q 647 901 690 813 q 646 757 646 861 l 650 518 q 607 465 650 465 q 567 518 567 465 l 569 757 l 569 872 z "},"":{"ha":1131,"x_min":28,"x_max":1090,"o":"m 563 526 l 1019 533 q 1070 519 1050 533 q 1090 481 1090 504 q 1070 442 1090 457 q 1019 428 1050 428 l 563 435 l 169 435 l 282 340 q 350 283 311 315 q 458 190 438 211 q 479 149 479 169 q 465 114 479 128 q 428 100 451 100 q 379 122 406 100 q 247 247 317 178 q 119 369 178 317 q 56 426 61 421 q 28 481 28 454 q 56 535 28 507 q 119 592 61 540 q 247 714 178 644 q 379 839 317 783 q 428 861 406 861 q 465 847 451 861 q 479 813 479 833 q 461 774 479 792 q 417 733 443 756 q 351 678 390 711 q 282 621 311 646 l 169 526 l 563 526 z "},"":{"ha":797,"x_min":18,"x_max":779,"o":"m 448 174 q 450 121 448 174 q 451 47 451 68 q 437 6 451 26 q 399 -14 422 -14 q 360 6 375 -14 q 346 47 346 26 q 347 132 346 68 q 353 514 353 281 l 353 907 l 258 794 q 200 725 233 765 q 108 618 129 639 q 67 597 88 597 q 32 611 46 597 q 18 648 18 625 q 40 697 18 671 q 165 829 96 760 q 287 957 235 899 q 344 1021 339 1015 q 399 1049 372 1049 q 453 1021 425 1049 q 510 957 458 1015 q 632 829 563 899 q 757 697 701 760 q 779 648 779 671 q 765 611 779 625 q 731 597 751 597 q 692 615 710 597 q 651 660 674 633 q 597 726 629 686 q 539 794 564 765 l 444 907 l 444 514 q 448 174 444 281 z "},"":{"ha":1131,"x_min":40,"x_max":1103,"o":"m 111 533 l 568 526 l 961 526 l 849 621 q 781 678 819 646 q 672 771 693 750 q 651 813 651 792 q 665 847 651 833 q 702 861 679 861 q 751 839 725 861 q 883 714 814 783 q 1011 592 953 644 q 1075 535 1069 540 q 1103 481 1103 507 q 1075 426 1103 454 q 1011 369 1069 421 q 883 247 953 317 q 751 122 814 178 q 702 100 725 100 q 665 114 679 100 q 651 149 651 128 q 669 188 651 169 q 714 228 688 206 q 780 283 740 250 q 849 340 819 315 l 961 435 l 568 435 l 111 428 q 60 442 81 428 q 40 481 40 457 q 60 519 40 504 q 111 533 81 533 z "},"":{"ha":797,"x_min":18,"x_max":779,"o":"m 453 14 q 399 -14 425 -14 q 344 14 372 -14 q 287 78 339 19 q 165 206 235 136 q 40 338 96 275 q 18 387 18 364 q 32 424 18 410 q 67 438 46 438 q 106 419 88 438 q 146 375 124 401 q 201 309 168 349 q 258 240 233 269 l 353 128 l 353 521 q 349 860 353 754 q 346 988 346 967 q 360 1028 346 1008 q 399 1049 375 1049 q 437 1028 422 1049 q 451 988 451 1008 q 450 903 451 967 q 444 521 444 754 l 444 128 l 539 240 q 597 308 564 269 q 689 417 668 396 q 731 438 710 438 q 765 424 751 438 q 779 387 779 410 q 757 338 779 364 q 632 206 701 275 q 510 78 563 136 q 453 14 458 19 z "},"":{"ha":878,"x_min":108,"x_max":769,"o":"m 439 404 l 713 408 q 753 396 738 408 q 769 363 769 383 q 753 329 769 342 q 713 317 738 317 l 439 321 l 165 317 q 124 329 140 317 q 108 363 108 342 q 124 396 108 383 q 165 408 140 408 q 439 404 165 408 z "},"":{"ha":825,"x_min":108,"x_max":717,"o":"m 713 500 q 713 482 713 500 q 663 422 713 464 q 559 381 613 381 q 431 421 506 381 q 316 461 357 461 q 231 419 275 461 q 162 376 188 376 q 122 390 136 376 q 108 422 108 403 q 168 507 108 467 q 298 547 228 547 q 444 507 368 547 q 552 467 519 467 q 608 484 585 467 q 649 519 632 501 q 681 536 665 536 q 713 500 713 536 m 717 286 q 717 268 717 286 q 667 208 717 250 q 563 167 617 167 q 435 207 510 167 q 320 247 361 247 q 235 205 279 247 q 166 163 192 163 q 126 176 140 163 q 113 208 113 189 q 172 293 113 253 q 302 333 232 333 q 448 293 372 333 q 556 253 524 253 q 613 270 589 253 q 653 305 636 288 q 685 322 669 322 q 717 286 717 322 z "},"":{"ha":775,"x_min":85,"x_max":690,"o":"m 400 304 l 633 308 q 674 296 658 308 q 690 263 690 283 q 674 229 690 242 q 633 217 658 217 l 344 221 l 263 92 q 219 60 243 60 q 183 73 194 60 q 171 105 171 86 q 185 144 171 124 l 242 218 l 142 217 q 101 229 117 217 q 85 263 85 242 q 101 296 85 283 q 151 308 117 308 q 299 304 186 308 l 376 421 l 142 417 q 101 429 117 417 q 85 463 85 442 q 101 496 85 483 q 142 508 117 508 l 431 504 l 510 628 q 553 657 532 657 q 588 644 574 657 q 601 612 601 632 q 593 580 601 592 q 567 544 585 568 q 538 506 549 521 q 640 508 621 508 q 674 496 658 508 q 690 463 690 483 q 674 429 690 442 q 639 417 658 417 q 481 419 619 417 l 400 304 z "},"":{"ha":782,"x_min":83,"x_max":689,"o":"m 386 83 l 632 88 q 673 75 657 88 q 689 42 689 63 q 673 8 689 21 q 632 -4 657 -4 l 386 0 l 140 -4 q 99 8 115 -4 q 83 42 83 21 q 99 75 83 63 q 140 88 115 88 q 386 83 140 88 m 636 290 q 649 283 636 290 q 673 265 663 276 q 683 238 683 254 q 672 209 683 221 q 644 197 660 197 q 610 203 628 197 q 567 220 593 208 q 515 245 540 232 q 444 280 489 258 q 367 317 400 301 q 292 353 333 333 q 228 383 250 374 q 178 407 207 393 q 137 430 150 421 q 110 450 124 439 q 91 472 96 461 q 86 494 86 483 q 92 515 86 506 q 111 536 97 525 q 140 557 125 547 q 183 582 154 567 q 236 608 213 597 q 304 642 260 619 l 382 681 q 453 717 415 697 l 508 746 q 613 794 597 792 q 644 797 629 797 q 672 783 658 797 q 685 754 685 769 q 682 731 685 739 q 670 715 679 724 q 651 701 661 707 q 619 685 640 694 q 578 667 599 675 q 469 617 499 632 q 405 588 439 603 q 346 560 371 572 q 293 533 321 549 q 233 492 233 503 q 251 471 233 481 q 281 454 269 461 q 312 438 293 447 q 343 423 331 429 q 376 408 356 417 q 424 386 397 399 q 503 351 450 374 q 583 316 557 328 q 636 290 610 304 z "},"":{"ha":782,"x_min":93,"x_max":699,"o":"m 396 83 l 642 88 q 683 75 667 88 q 699 42 699 63 q 683 8 699 21 q 642 -4 667 -4 l 396 0 l 150 -4 q 109 8 125 -4 q 93 42 93 21 q 109 75 93 63 q 150 88 125 88 q 396 83 150 88 m 690 515 q 693 510 690 515 q 696 494 696 506 q 691 472 696 483 q 672 450 686 461 q 645 430 658 439 q 603 407 632 421 q 553 383 575 393 q 490 353 532 374 q 415 317 449 333 q 338 280 382 301 q 267 245 293 258 q 215 219 242 232 q 143 197 164 197 q 110 209 122 197 q 99 238 99 221 q 109 265 99 254 q 146 290 119 276 q 199 316 172 304 q 278 351 225 328 q 358 386 332 374 q 406 408 385 399 q 439 423 426 417 q 470 438 451 429 q 501 454 489 447 q 525 468 513 461 q 549 492 549 481 q 378 588 549 511 q 320 614 343 603 q 261 641 297 625 q 204 666 225 657 q 163 685 183 675 q 131 701 142 694 q 111 715 121 707 q 97 749 97 729 q 110 783 97 769 q 138 797 124 797 q 160 796 153 797 q 179 790 168 794 q 201 782 190 786 q 233 767 211 778 q 272 746 254 756 l 329 717 q 400 681 367 697 l 478 642 q 546 608 522 619 q 599 582 569 597 q 642 557 628 567 q 671 536 657 547 q 690 515 685 525 z "},"":{"ha":1407,"x_min":38,"x_max":1388,"o":"m 371 1042 l 775 1050 q 826 1035 807 1050 q 846 998 846 1021 q 842 820 846 975 q 839 531 839 665 q 1089 707 936 707 q 1261 628 1200 707 q 1322 436 1322 549 l 1315 218 q 1316 159 1315 179 q 1324 117 1317 139 q 1343 91 1332 96 q 1366 85 1354 86 q 1383 81 1378 83 q 1388 69 1388 78 q 1365 9 1388 33 q 1311 -15 1342 -15 q 1238 26 1257 -15 q 1218 149 1218 67 q 1224 404 1218 149 q 1183 556 1224 497 q 1071 615 1142 615 q 933 535 1000 615 q 840 357 865 456 l 844 56 q 792 -15 844 -15 q 728 83 728 -15 q 756 357 728 181 q 748 707 756 478 q 740 942 740 936 l 428 949 q 421 517 421 636 l 428 57 q 413 6 428 25 q 371 -14 397 -14 q 329 6 344 -14 q 314 57 314 25 l 321 517 q 314 950 321 638 l 104 943 q 38 996 38 943 q 104 1049 38 1049 l 371 1042 z "},"":{"ha":1235,"x_min":28,"x_max":1169,"o":"m 81 697 l 150 696 l 150 813 q 233 999 150 942 q 437 1056 315 1056 q 639 1015 558 1056 q 678 935 678 993 q 676 875 678 925 q 671 547 671 672 q 772 663 708 618 q 916 708 835 708 q 1058 653 997 708 q 1169 363 1169 551 q 1082 99 1169 211 q 857 -14 994 -14 q 676 57 753 -14 q 624 -14 676 -14 q 560 84 560 -14 q 588 357 560 182 q 580 707 588 478 q 572 942 572 936 q 440 963 504 963 q 243 800 243 963 l 243 694 l 378 697 q 415 686 400 697 q 431 653 431 675 q 378 611 431 611 l 243 614 l 243 521 q 247 199 243 329 q 251 47 251 68 q 237 6 251 25 q 197 -14 222 -14 q 158 6 172 -14 q 143 47 143 25 q 144 133 143 68 q 151 521 151 329 l 151 613 l 81 611 q 28 653 28 611 q 43 686 28 675 q 81 697 58 697 m 849 76 q 895 76 849 76 q 1006 158 940 76 q 1071 355 1071 240 q 1028 544 1071 469 q 908 618 986 618 q 767 549 831 618 q 668 371 703 479 l 675 157 q 849 76 758 76 z "},"":{"ha":1664,"x_min":28,"x_max":1599,"o":"m 582 611 l 458 613 q 242 608 438 613 l 242 521 q 246 199 242 329 q 250 57 250 68 q 197 -14 250 -14 q 143 57 143 -14 q 144 133 143 68 q 150 521 150 286 l 150 606 l 94 606 q 28 651 28 606 q 94 700 28 700 q 149 699 125 700 l 149 813 q 199 999 149 942 q 317 1056 250 1056 q 427 1030 383 1056 q 471 975 471 1004 q 432 929 471 929 q 383 946 414 929 q 328 963 353 963 q 242 800 242 963 l 242 696 q 456 693 372 693 q 579 694 539 693 l 579 818 q 662 1000 579 944 q 866 1056 744 1056 q 1068 1015 988 1056 q 1107 935 1107 993 q 1106 875 1107 925 q 1100 547 1100 756 q 1201 663 1138 618 q 1345 708 1264 708 q 1486 653 1426 708 q 1599 363 1599 551 q 1511 99 1599 211 q 1286 -14 1424 -14 q 1106 57 1182 -14 q 1053 -14 1106 -14 q 989 84 989 -14 q 1017 357 989 182 q 1009 707 1017 478 q 1001 942 1001 936 q 869 963 933 963 q 672 800 672 963 l 672 694 l 790 701 q 842 688 822 701 q 861 651 861 675 q 790 604 861 604 q 674 608 753 604 l 674 521 q 678 199 674 329 q 682 57 682 68 q 629 -14 682 -14 q 590 6 604 -14 q 575 57 575 25 l 582 521 l 582 611 m 1278 76 q 1324 76 1278 76 q 1435 158 1369 76 q 1500 355 1500 240 q 1458 544 1500 469 q 1338 618 1415 618 q 1196 549 1260 618 q 1097 371 1132 479 l 1104 157 q 1278 76 1188 76 z "},"":{"ha":1700,"x_min":28,"x_max":1649,"o":"m 582 611 l 458 613 q 242 608 438 613 l 242 521 q 246 199 242 329 q 250 57 250 68 q 197 -14 250 -14 q 143 57 143 -14 q 144 133 143 68 q 150 521 150 286 l 150 606 l 94 606 q 28 651 28 606 q 94 700 28 700 q 149 699 125 700 l 149 813 q 199 999 149 942 q 317 1056 250 1056 q 427 1030 383 1056 q 471 975 471 1004 q 432 929 471 929 q 383 946 414 929 q 328 963 353 963 q 242 800 242 963 l 242 696 q 456 693 372 693 q 579 694 539 693 l 579 818 q 662 1000 579 944 q 866 1056 744 1056 q 1068 1015 988 1056 q 1107 935 1107 993 q 1106 869 1107 925 q 1100 531 1100 742 q 1350 707 1201 707 q 1522 628 1461 707 q 1583 436 1583 549 l 1576 218 q 1577 159 1576 179 q 1585 117 1578 139 q 1604 91 1593 96 q 1627 85 1615 86 q 1644 81 1639 83 q 1649 69 1649 78 q 1626 9 1649 33 q 1572 -15 1603 -15 q 1499 26 1519 -15 q 1479 149 1479 68 l 1485 404 q 1444 557 1485 499 q 1333 615 1404 615 q 1194 536 1261 615 q 1101 357 1128 457 l 1106 56 q 1053 -15 1106 -15 q 989 83 989 -15 q 1017 357 989 181 q 1009 707 1017 478 q 1001 942 1001 936 q 869 963 933 963 q 672 800 672 963 l 672 694 l 790 701 q 842 688 822 701 q 861 651 861 675 q 790 604 861 604 q 674 608 753 604 l 674 521 q 678 199 674 329 q 682 57 682 68 q 629 -14 682 -14 q 590 6 604 -14 q 575 57 575 25 l 582 521 l 582 611 z "},"":{"ha":1200,"x_min":28,"x_max":1107,"o":"m 1042 860 q 1026 860 1042 860 q 996 879 1011 860 q 981 931 981 899 q 1001 987 981 963 q 1050 1011 1021 1011 q 1093 992 1079 1011 q 1107 944 1107 974 q 1090 888 1107 915 q 1042 860 1072 860 m 703 694 l 1043 703 q 1097 635 1097 703 l 1090 315 l 1089 10 q 1028 -188 1089 -110 q 917 -267 968 -267 q 879 -240 879 -267 q 939 -162 879 -221 q 981 -91 963 -140 q 1000 24 1000 -42 l 999 315 q 992 611 999 354 q 826 617 900 617 q 672 614 753 617 l 672 521 q 676 199 672 329 q 681 47 681 68 q 666 6 681 25 q 626 -14 651 -14 q 575 57 575 -14 l 582 521 l 582 611 l 458 613 q 242 608 438 613 l 242 521 q 246 199 242 329 q 250 57 250 68 q 197 -14 250 -14 q 143 57 143 -14 q 144 133 143 68 q 150 521 150 286 l 150 606 l 94 606 q 28 651 28 606 q 94 700 28 700 q 149 699 125 700 l 149 813 q 199 999 149 942 q 317 1056 250 1056 q 427 1030 383 1056 q 471 975 471 1004 q 432 929 471 929 q 383 946 414 929 q 328 963 353 963 q 242 800 242 963 l 242 696 q 456 693 372 693 q 581 694 540 693 l 581 813 q 631 999 581 942 q 749 1056 682 1056 q 859 1030 815 1056 q 903 975 903 1004 q 864 929 903 929 q 815 946 846 929 q 760 963 783 963 q 674 800 674 963 l 674 694 l 703 694 z "},"":{"ha":1608,"x_min":28,"x_max":1561,"o":"m 582 611 l 458 613 q 242 608 438 613 l 242 521 q 246 199 242 329 q 250 57 250 68 q 197 -14 250 -14 q 143 57 143 -14 q 144 133 143 68 q 150 521 150 286 l 150 606 l 94 606 q 28 651 28 606 q 94 700 28 700 q 149 699 125 700 l 149 813 q 199 999 149 942 q 317 1056 250 1056 q 427 1030 383 1056 q 471 975 471 1004 q 432 929 471 929 q 383 946 414 929 q 328 963 353 963 q 242 800 242 963 l 242 696 q 456 693 372 693 q 579 694 539 693 l 579 818 q 662 1000 579 944 q 867 1056 744 1056 q 1069 1015 989 1056 q 1108 935 1108 993 q 1107 869 1108 925 q 1103 532 1103 706 q 1353 708 1204 708 q 1482 661 1433 708 q 1531 546 1531 614 q 1413 351 1531 432 q 1344 307 1386 333 l 1447 149 q 1503 96 1474 108 q 1547 83 1532 83 q 1561 71 1561 83 q 1540 12 1561 38 q 1490 -14 1519 -14 q 1445 -5 1461 -14 q 1410 30 1429 4 q 1375 83 1392 56 q 1251 276 1294 215 q 1192 297 1215 276 q 1168 344 1168 317 q 1187 390 1168 372 q 1236 408 1206 408 q 1299 374 1267 408 q 1392 446 1351 397 q 1433 533 1433 494 q 1412 594 1433 572 q 1347 617 1390 617 q 1200 538 1269 617 q 1104 358 1131 460 l 1108 57 q 1056 -14 1108 -14 q 992 84 992 -14 q 1019 358 992 182 q 1011 708 1019 479 q 1003 942 1003 936 q 869 963 935 963 q 672 800 672 963 l 672 694 l 790 701 q 842 688 822 701 q 861 651 861 675 q 790 604 861 604 q 674 608 753 604 l 674 521 q 678 199 674 329 q 682 57 682 68 q 629 -14 682 -14 q 590 6 604 -14 q 575 57 575 25 l 582 521 l 582 611 z "},"":{"ha":1271,"x_min":28,"x_max":1219,"o":"m 672 357 l 676 56 q 624 -15 676 -15 q 560 83 560 -15 q 588 357 560 181 q 580 707 588 478 q 572 942 572 936 q 440 963 504 963 q 243 800 243 963 l 243 694 l 378 697 q 415 686 400 697 q 431 653 431 675 q 378 611 431 611 l 243 614 l 243 521 q 247 199 243 329 q 251 47 251 68 q 237 6 251 25 q 197 -14 222 -14 q 158 6 172 -14 q 143 47 143 25 q 144 133 143 68 q 151 521 151 329 l 151 613 l 81 611 q 28 653 28 611 q 43 686 28 675 q 81 697 58 697 l 150 696 l 150 813 q 233 999 150 942 q 437 1056 315 1056 q 639 1015 558 1056 q 678 935 678 993 q 676 869 678 925 q 671 531 671 650 q 921 707 772 707 q 1093 628 1032 707 q 1154 436 1154 549 l 1147 218 q 1148 159 1147 179 q 1156 117 1149 139 q 1175 91 1164 96 q 1198 85 1186 86 q 1215 81 1210 83 q 1219 69 1219 78 q 1197 9 1219 33 q 1143 -15 1174 -15 q 1070 26 1090 -15 q 1050 149 1050 68 l 1056 404 q 1015 557 1056 499 q 903 615 975 615 q 765 536 832 615 q 672 357 699 457 z "},"":{"ha":771,"x_min":28,"x_max":678,"o":"m 613 860 q 597 860 613 860 q 567 879 582 860 q 551 931 551 899 q 572 987 551 963 q 621 1011 592 1011 q 664 992 650 1011 q 678 944 678 974 q 660 888 678 915 q 613 860 643 860 m 571 24 l 569 315 q 563 611 569 354 q 397 617 471 617 q 243 614 324 617 l 243 521 q 247 199 243 329 q 251 47 251 68 q 237 6 251 25 q 197 -14 222 -14 q 158 6 172 -14 q 143 47 143 25 q 144 133 143 68 q 151 521 151 329 l 151 614 l 81 611 q 28 653 28 611 q 43 686 28 675 q 81 697 58 697 l 150 694 l 150 813 q 201 999 150 942 q 318 1056 251 1056 q 428 1030 385 1056 q 472 975 472 1004 q 433 929 472 929 q 384 946 415 929 q 329 963 353 963 q 243 800 243 963 l 243 694 l 274 694 l 614 703 q 668 635 668 703 l 661 315 l 660 10 q 599 -188 660 -110 q 488 -267 539 -267 q 450 -240 450 -267 q 511 -162 450 -221 q 552 -91 533 -140 q 571 24 571 -42 z "},"":{"ha":1178,"x_min":28,"x_max":1131,"o":"m 674 358 l 678 57 q 625 -14 678 -14 q 561 84 561 -14 q 589 358 561 182 q 581 708 589 479 q 572 942 572 936 q 440 963 504 963 q 243 800 243 963 l 243 694 l 378 697 q 415 686 400 697 q 431 653 431 675 q 378 611 431 611 l 243 614 l 243 521 q 247 199 243 329 q 251 47 251 68 q 237 6 251 25 q 197 -14 222 -14 q 158 6 172 -14 q 143 47 143 25 q 144 133 143 68 q 151 521 151 329 l 151 613 l 81 611 q 28 653 28 611 q 43 686 28 675 q 81 697 58 697 l 150 696 l 150 813 q 233 999 150 942 q 437 1056 315 1056 q 639 1015 558 1056 q 678 935 678 993 q 676 869 678 925 q 672 532 672 706 q 922 708 774 708 q 1051 661 1003 708 q 1100 546 1100 614 q 982 351 1100 432 q 914 307 956 333 l 1017 149 q 1072 96 1043 108 q 1116 83 1101 83 q 1131 71 1131 83 q 1110 12 1131 38 q 1060 -14 1089 -14 q 1015 -5 1031 -14 q 980 30 999 4 q 944 83 961 56 q 821 276 864 215 q 761 297 785 276 q 738 344 738 317 q 756 390 738 372 q 806 408 775 408 q 868 374 836 408 q 962 446 921 397 q 1003 533 1003 494 q 981 594 1003 572 q 917 617 960 617 q 769 538 839 617 q 674 358 700 460 z "},"":{"ha":1210,"x_min":28,"x_max":1108,"o":"m 582 611 l 458 613 q 242 608 438 613 l 242 521 q 246 199 242 329 q 250 57 250 68 q 197 -14 250 -14 q 143 57 143 -14 q 144 133 143 68 q 150 521 150 286 l 150 606 l 94 606 q 28 651 28 606 q 94 700 28 700 q 149 699 125 700 l 149 813 q 199 999 149 942 q 317 1056 250 1056 q 427 1030 383 1056 q 471 975 471 1004 q 432 929 471 929 q 383 946 414 929 q 328 963 353 963 q 242 800 242 963 l 242 696 q 456 693 372 693 q 579 694 539 693 l 579 818 q 662 1000 579 944 q 866 1056 744 1056 q 1068 1015 988 1056 q 1107 935 1107 993 q 1106 867 1107 925 q 1100 572 1100 733 q 1102 305 1100 411 q 1106 133 1104 199 q 1108 57 1108 68 q 1054 -14 1108 -14 q 1000 57 1000 -14 q 1003 133 1000 68 q 1008 521 1008 329 l 1001 942 q 869 963 933 963 q 672 800 672 963 l 672 694 l 790 701 q 842 688 822 701 q 861 651 861 675 q 790 604 861 604 q 674 608 753 604 l 674 521 q 678 199 674 329 q 682 57 682 68 q 629 -14 682 -14 q 590 6 604 -14 q 575 57 575 25 l 582 521 l 582 611 z "},"":{"ha":297,"x_min":49,"x_max":222,"o":"m 105 -160 q 109 -140 105 -160 q 128 -98 114 -119 q 169 -76 143 -76 q 208 -94 194 -76 q 222 -137 222 -112 q 169 -262 222 -197 q 81 -326 115 -326 q 58 -318 67 -326 q 49 -299 49 -310 q 54 -278 49 -289 q 71 -249 60 -268 q 89 -215 82 -231 q 105 -160 96 -200 z "},"":{"ha":771,"x_min":28,"x_max":678,"o":"m 613 860 q 597 860 613 860 q 567 879 582 860 q 551 931 551 899 q 572 987 551 963 q 621 1011 592 1011 q 664 992 650 1011 q 678 944 678 974 q 660 888 678 915 q 613 860 643 860 m 81 697 l 150 694 l 150 813 q 201 999 150 942 q 318 1056 251 1056 q 428 1030 385 1056 q 472 975 472 1004 q 433 929 472 929 q 384 946 415 929 q 329 963 353 963 q 243 800 243 963 l 243 694 l 274 694 l 614 703 q 668 636 668 703 l 661 347 l 669 57 q 654 6 669 25 q 614 -14 639 -14 q 575 6 589 -14 q 561 57 561 25 l 569 347 q 563 611 569 354 q 397 617 471 617 q 243 614 324 617 l 243 521 q 247 199 243 329 q 251 47 251 68 q 237 6 251 25 q 197 -14 222 -14 q 158 6 172 -14 q 143 47 143 25 q 144 133 143 68 q 151 521 151 329 l 151 614 l 81 611 q 28 653 28 611 q 43 686 28 675 q 81 697 58 697 z "},"":{"ha":781,"x_min":28,"x_max":679,"o":"m 678 935 l 671 521 q 675 199 671 329 q 679 57 679 68 q 625 -14 679 -14 q 571 57 571 -14 q 572 133 571 68 q 579 521 579 329 l 572 942 q 440 963 504 963 q 243 800 243 963 l 243 694 l 378 697 q 415 686 400 697 q 431 653 431 675 q 378 611 431 611 q 243 614 378 611 l 243 521 q 247 199 243 329 q 251 47 251 68 q 237 6 251 25 q 197 -14 222 -14 q 158 6 172 -14 q 143 47 143 25 q 144 133 143 68 q 151 521 151 329 l 151 613 l 81 611 q 28 653 28 611 q 43 686 28 675 q 81 697 58 697 l 150 696 l 150 813 q 233 999 150 942 q 437 1056 315 1056 q 639 1015 558 1056 q 678 935 678 993 z "},"":{"ha":1200,"x_min":28,"x_max":1107,"o":"m 1042 860 q 1026 860 1042 860 q 996 879 1011 860 q 981 931 981 899 q 1001 987 981 963 q 1050 1011 1021 1011 q 1093 992 1079 1011 q 1107 944 1107 974 q 1090 888 1107 915 q 1042 860 1072 860 m 703 694 l 1043 703 q 1097 636 1097 703 l 1090 347 l 1099 57 q 1083 6 1099 25 q 1043 -14 1068 -14 q 1004 6 1018 -14 q 990 57 990 25 l 999 347 q 992 611 999 354 q 826 617 900 617 q 672 614 753 617 l 672 521 q 676 199 672 329 q 681 47 681 68 q 666 6 681 25 q 626 -14 651 -14 q 575 57 575 -14 l 582 521 l 582 611 l 458 613 q 242 608 438 613 l 242 521 q 246 199 242 329 q 250 57 250 68 q 197 -14 250 -14 q 143 57 143 -14 q 144 133 143 68 q 150 521 150 286 l 150 606 l 94 606 q 28 651 28 606 q 94 700 28 700 q 149 699 125 700 l 149 813 q 199 999 149 942 q 317 1056 250 1056 q 427 1030 383 1056 q 471 975 471 1004 q 432 929 471 929 q 383 946 414 929 q 328 963 353 963 q 242 800 242 963 l 242 696 q 456 693 372 693 q 581 694 540 693 l 581 813 q 631 999 581 942 q 749 1056 682 1056 q 859 1030 815 1056 q 903 975 903 1004 q 864 929 903 929 q 815 946 846 929 q 760 963 783 963 q 674 800 674 963 l 674 694 l 703 694 z "}}}
